EulerText-Regular.ufo
<glyph name="dollar" format="2">
  <advance width="476"/>
  <unicode hex="0024"/>
  <outline>
    <contour>
      <point x="268" y="-99" type="line"/>
      <point x="228" y="-107" type="line"/>
      <point x="228" y="790" type="line"/>
      <point x="268" y="798" type="line"/>
    </contour>
    <contour>
      <point x="439" y="593" type="curve"/>
      <point x="379" y="540" type="line"/>
      <point x="366" y="543" type="line"/>
      <point x="350" y="606"/>
      <point x="316" y="649"/>
      <point x="251" y="649" type="curve" smooth="yes"/>
      <point x="190" y="649"/>
      <point x="145" y="599"/>
      <point x="145" y="537" type="curve" smooth="yes"/>
      <point x="145" y="463"/>
      <point x="216" y="419"/>
      <point x="290" y="387" type="curve" smooth="yes"/>
      <point x="390" y="343"/>
      <point x="442" y="292"/>
      <point x="442" y="216" type="curve" smooth="yes"/>
      <point x="442" y="91"/>
      <point x="303" y="3"/>
      <point x="182" y="3" type="curve" smooth="yes"/>
      <point x="116" y="3"/>
      <point x="52" y="31"/>
      <point x="25" y="100" type="curve"/>
      <point x="80" y="163" type="line"/>
      <point x="96" y="162" type="line"/>
      <point x="116" y="96"/>
      <point x="155" y="47"/>
      <point x="222" y="47" type="curve" smooth="yes"/>
      <point x="296" y="47"/>
      <point x="358" y="106"/>
      <point x="358" y="186" type="curve" smooth="yes"/>
      <point x="358" y="239"/>
      <point x="300" y="290"/>
      <point x="243" y="315" type="curve" smooth="yes"/>
      <point x="128" y="364"/>
      <point x="69" y="411"/>
      <point x="69" y="504" type="curve" smooth="yes"/>
      <point x="69" y="623"/>
      <point x="167" y="684"/>
      <point x="271" y="684" type="curve" smooth="yes"/>
      <point x="340" y="684"/>
      <point x="397" y="672"/>
    </contour>
  </outline>
</glyph>
<glyph name="ampersand" format="2">
  <advance width="738"/>
  <unicode hex="0026"/>
  <outline>
    <contour>
      <point x="326" y="356" type="curve"/>
      <point x="328" y="399" type="line"/>
      <point x="384" y="396"/>
      <point x="461" y="396"/>
      <point x="528" y="396" type="curve" smooth="yes"/>
      <point x="580" y="396"/>
      <point x="654" y="396"/>
      <point x="684" y="399" type="curve"/>
      <point x="681" y="351" type="line"/>
      <point x="640" y="358"/>
      <point x="583" y="358"/>
      <point x="534" y="358" type="curve"/>
      <point x="539" y="337"/>
      <point x="543" y="316"/>
      <point x="543" y="295" type="curve" smooth="yes"/>
      <point x="543" y="228"/>
      <point x="510" y="168"/>
      <point x="469" y="115" type="curve"/>
      <point x="472" y="112" type="line" smooth="yes"/>
      <point x="498" y="84"/>
      <point x="537" y="53"/>
      <point x="577" y="53" type="curve" smooth="yes"/>
      <point x="648" y="53"/>
      <point x="678" y="125"/>
      <point x="693" y="189" type="curve"/>
      <point x="714" y="184" type="line"/>
      <point x="698" y="95"/>
      <point x="655" y="-11"/>
      <point x="546" y="-11" type="curve" smooth="yes"/>
      <point x="496" y="-11"/>
      <point x="451" y="14"/>
      <point x="416" y="48" type="curve"/>
      <point x="411" y="52" type="line"/>
      <point x="371" y="20"/>
      <point x="316" y="-8"/>
      <point x="258" y="-8" type="curve" smooth="yes"/>
      <point x="198" y="-8"/>
      <point x="134" y="4"/>
      <point x="91" y="47" type="curve" smooth="yes"/>
      <point x="52" y="86"/>
      <point x="29" y="140"/>
      <point x="29" y="195" type="curve" smooth="yes"/>
      <point x="29" y="286"/>
      <point x="76" y="329"/>
      <point x="187" y="397" type="curve"/>
      <point x="171" y="436"/>
      <point x="161" y="478"/>
      <point x="161" y="520" type="curve" smooth="yes"/>
      <point x="161" y="611"/>
      <point x="222" y="698"/>
      <point x="324" y="698" type="curve" smooth="yes"/>
      <point x="374" y="698"/>
      <point x="426" y="661"/>
      <point x="426" y="606" type="curve" smooth="yes"/>
      <point x="426" y="562"/>
      <point x="412" y="525"/>
      <point x="379" y="495" type="curve" smooth="yes"/>
      <point x="349" y="467"/>
      <point x="275" y="424"/>
      <point x="258" y="416" type="curve"/>
      <point x="306" y="310"/>
      <point x="370" y="217"/>
      <point x="454" y="131" type="curve"/>
      <point x="480" y="169"/>
      <point x="492" y="218"/>
      <point x="492" y="266" type="curve" smooth="yes"/>
      <point x="492" y="296"/>
      <point x="477" y="324"/>
      <point x="456" y="345" type="curve" smooth="yes"/>
      <point x="440" y="361"/>
      <point x="417" y="361"/>
      <point x="395" y="361" type="curve" smooth="yes"/>
      <point x="372" y="361"/>
      <point x="349" y="359"/>
    </contour>
    <contour>
      <point x="396" y="68" type="curve"/>
      <point x="316" y="157"/>
      <point x="242" y="266"/>
      <point x="196" y="376" type="curve"/>
      <point x="128" y="331"/>
      <point x="107" y="281"/>
      <point x="107" y="218" type="curve" smooth="yes"/>
      <point x="107" y="125"/>
      <point x="174" y="31"/>
      <point x="273" y="31" type="curve" smooth="yes"/>
      <point x="326" y="31"/>
      <point x="364" y="42"/>
    </contour>
    <contour>
      <point x="250" y="435" type="curve"/>
      <point x="333" y="487"/>
      <point x="354" y="517"/>
      <point x="354" y="582" type="curve" smooth="yes"/>
      <point x="354" y="617"/>
      <point x="319" y="663"/>
      <point x="287" y="663" type="curve" smooth="yes"/>
      <point x="227" y="663"/>
      <point x="222" y="605"/>
      <point x="222" y="559" type="curve" smooth="yes"/>
      <point x="222" y="516"/>
      <point x="233" y="475"/>
    </contour>
  </outline>
</glyph>
<glyph name="quotesingle" format="2">
  <advance width="210"/>
  <unicode hex="0027"/>
  <outline>
    <contour>
      <point x="94" y="436" type="line"/>
      <point x="76" y="629" type="line" smooth="yes"/>
      <point x="75" y="641"/>
      <point x="74" y="653"/>
      <point x="74" y="666" type="curve" smooth="yes"/>
      <point x="74" y="685"/>
      <point x="91" y="695"/>
      <point x="110" y="695" type="curve" smooth="yes"/>
      <point x="131" y="695"/>
      <point x="140" y="681"/>
      <point x="140" y="662" type="curve" smooth="yes"/>
      <point x="140" y="651"/>
      <point x="138" y="635"/>
      <point x="136" y="622" type="curve" smooth="yes"/>
      <point x="110" y="436" type="line"/>
    </contour>
  </outline>
</glyph>
<glyph name="asterisk" format="2">
  <advance width="301"/>
  <unicode hex="002A"/>
  <outline>
    <contour>
      <point x="175" y="448" type="curve"/>
      <point x="135" y="448" type="line"/>
      <point x="141" y="486"/>
      <point x="143" y="516"/>
      <point x="144" y="559" type="curve"/>
      <point x="117" y="538"/>
      <point x="91" y="515"/>
      <point x="67" y="487" type="curve"/>
      <point x="46" y="522" type="line"/>
      <point x="80" y="539"/>
      <point x="107" y="557"/>
      <point x="133" y="575" type="curve"/>
      <point x="104" y="596"/>
      <point x="77" y="612"/>
      <point x="48" y="627" type="curve"/>
      <point x="75" y="655" type="line"/>
      <point x="97" y="634"/>
      <point x="118" y="615"/>
      <point x="143" y="596" type="curve"/>
      <point x="143" y="628"/>
      <point x="143" y="659"/>
      <point x="135" y="692" type="curve"/>
      <point x="175" y="692" type="line"/>
      <point x="168" y="659"/>
      <point x="166" y="630"/>
      <point x="164" y="597" type="curve"/>
      <point x="189" y="617"/>
      <point x="212" y="638"/>
      <point x="232" y="659" type="curve"/>
      <point x="257" y="628" type="line"/>
      <point x="225" y="613"/>
      <point x="197" y="596"/>
      <point x="169" y="576" type="curve"/>
      <point x="200" y="553"/>
      <point x="229" y="533"/>
      <point x="257" y="520" type="curve"/>
      <point x="231" y="491" type="line"/>
      <point x="214" y="510"/>
      <point x="190" y="532"/>
      <point x="164" y="552" type="curve"/>
      <point x="165" y="517"/>
      <point x="167" y="484"/>
    </contour>
  </outline>
</glyph>
<glyph name="plus" format="2">
  <advance width="747"/>
  <unicode hex="002B"/>
  <outline>
    <contour>
      <point x="392" y="276" type="line"/>
      <point x="705" y="276" type="line"/>
      <point x="700" y="236" type="line"/>
      <point x="392" y="236" type="line"/>
      <point x="392" y="-67" type="line"/>
      <point x="352" y="-74" type="line"/>
      <point x="352" y="236" type="line"/>
      <point x="42" y="236" type="line"/>
      <point x="49" y="276" type="line"/>
      <point x="352" y="276" type="line"/>
      <point x="352" y="580" type="line"/>
      <point x="392" y="586" type="line"/>
    </contour>
  </outline>
</glyph>
<glyph name="comma" format="2">
  <advance width="233"/>
  <unicode hex="002C"/>
  <outline>
    <contour>
      <point x="77" y="-210" type="curve"/>
      <point x="58" y="-196" type="line"/>
      <point x="93" y="-150"/>
      <point x="124" y="-101"/>
      <point x="124" y="-61" type="curve" smooth="yes"/>
      <point x="124" y="-47"/>
      <point x="120" y="-30"/>
      <point x="111" y="-19" type="curve" smooth="yes"/>
      <point x="41" y="64" type="line" smooth="yes"/>
      <point x="37" y="69"/>
      <point x="34" y="80"/>
      <point x="34" y="90" type="curve" smooth="yes"/>
      <point x="34" y="116"/>
      <point x="68" y="138"/>
      <point x="93" y="138" type="curve" smooth="yes"/>
      <point x="146" y="138"/>
      <point x="181" y="8"/>
      <point x="181" y="-27" type="curve" smooth="yes"/>
      <point x="181" y="-77"/>
      <point x="148" y="-128"/>
    </contour>
  </outline>
</glyph>
<glyph name="hyphen" format="2">
  <advance width="353"/>
  <unicode hex="002D"/>
  <outline>
    <contour>
      <point x="291" y="236" type="line"/>
      <point x="55" y="236" type="line"/>
      <point x="62" y="276" type="line"/>
      <point x="297" y="276" type="line"/>
    </contour>
  </outline>
</glyph>
<glyph name="period" format="2">
  <advance width="272"/>
  <unicode hex="002E"/>
  <outline>
    <contour>
      <point x="69" y="52" type="curve" smooth="yes"/>
      <point x="69" y="89"/>
      <point x="99" y="119"/>
      <point x="136" y="119" type="curve" smooth="yes"/>
      <point x="173" y="119"/>
      <point x="203" y="89"/>
      <point x="203" y="52" type="curve" smooth="yes"/>
      <point x="203" y="15"/>
      <point x="173" y="-15"/>
      <point x="136" y="-15" type="curve" smooth="yes"/>
      <point x="99" y="-15"/>
      <point x="69" y="15"/>
    </contour>
  </outline>
</glyph>
<glyph name="slash" format="2">
  <advance width="390"/>
  <unicode hex="002F"/>
  <outline>
    <contour>
      <point x="402" y="715" type="line"/>
      <point x="407" y="704" type="line"/>
      <point x="18" y="-192" type="line"/>
      <point x="-14" y="-184" type="line"/>
      <point x="-17" y="-170" type="line"/>
      <point x="369" y="718" type="line"/>
      <point x="380" y="720" type="line"/>
    </contour>
  </outline>
</glyph>
<glyph name="one" format="2">
  <advance width="500"/>
  <unicode hex="0031"/>
  <outline>
    <contour>
      <point x="308" y="712" type="line"/>
      <point x="314" y="700" type="line"/>
      <point x="309" y="611"/>
      <point x="307" y="521"/>
      <point x="307" y="432" type="curve" smooth="yes"/>
      <point x="307" y="296"/>
      <point x="307" y="98"/>
      <point x="310" y="22" type="curve"/>
      <point x="226" y="-5" type="line"/>
      <point x="214" y="0" type="line"/>
      <point x="219" y="139"/>
      <point x="222" y="279"/>
      <point x="222" y="419" type="curve" smooth="yes"/>
      <point x="222" y="530"/>
      <point x="237" y="612"/>
      <point x="175" y="612" type="curve" smooth="yes"/>
      <point x="92" y="612" type="line"/>
      <point x="92" y="639" type="line"/>
    </contour>
  </outline>
</glyph>
<glyph name="two" format="2">
  <advance width="500"/>
  <unicode hex="0032"/>
  <outline>
    <contour>
      <point x="472" y="80" type="line"/>
      <point x="449" y="2" type="line"/>
      <point x="12" y="2" type="line"/>
      <point x="12" y="18" type="line"/>
      <point x="69" y="76"/>
      <point x="125" y="135"/>
      <point x="178" y="197" type="curve" smooth="yes"/>
      <point x="256" y="288"/>
      <point x="334" y="389"/>
      <point x="334" y="508" type="curve" smooth="yes"/>
      <point x="334" y="560"/>
      <point x="306" y="640"/>
      <point x="221" y="640" type="curve" smooth="yes"/>
      <point x="166" y="640"/>
      <point x="122" y="608"/>
      <point x="84" y="576" type="curve"/>
      <point x="64" y="595" type="line"/>
      <point x="118" y="655"/>
      <point x="191" y="708"/>
      <point x="275" y="708" type="curve" smooth="yes"/>
      <point x="363" y="708"/>
      <point x="426" y="640"/>
      <point x="426" y="553" type="curve" smooth="yes"/>
      <point x="426" y="499"/>
      <point x="404" y="451"/>
      <point x="378" y="405" type="curve" smooth="yes"/>
      <point x="319" y="298"/>
      <point x="231" y="197"/>
      <point x="147" y="99" type="curve"/>
      <point x="146" y="98"/>
      <point x="145" y="97"/>
      <point x="145" y="95" type="curve" smooth="yes"/>
      <point x="145" y="89"/>
      <point x="153" y="88"/>
      <point x="158" y="88" type="curve" smooth="yes"/>
      <point x="467" y="88" type="line"/>
    </contour>
  </outline>
</glyph>
<glyph name="three" format="2">
  <advance width="500"/>
  <unicode hex="0033"/>
  <outline>
    <contour>
      <point x="241" y="382" type="curve"/>
      <point x="241" y="374" type="line"/>
      <point x="368" y="363"/>
      <point x="446" y="315"/>
      <point x="446" y="215" type="curve" smooth="yes"/>
      <point x="446" y="78"/>
      <point x="314" y="-17"/>
      <point x="181" y="-17" type="curve" smooth="yes"/>
      <point x="124" y="-17"/>
      <point x="70" y="3"/>
      <point x="25" y="38" type="curve"/>
      <point x="18" y="49" type="line"/>
      <point x="60" y="121" type="line"/>
      <point x="70" y="121" type="line"/>
      <point x="100" y="70"/>
      <point x="145" y="23"/>
      <point x="206" y="23" type="curve" smooth="yes"/>
      <point x="296" y="23"/>
      <point x="352" y="100"/>
      <point x="352" y="186" type="curve" smooth="yes"/>
      <point x="352" y="229"/>
      <point x="332" y="269"/>
      <point x="303" y="300" type="curve" smooth="yes"/>
      <point x="264" y="341"/>
      <point x="185" y="345"/>
      <point x="125" y="345" type="curve"/>
      <point x="126" y="371" type="line"/>
      <point x="247" y="399"/>
      <point x="317" y="450"/>
      <point x="317" y="540" type="curve" smooth="yes"/>
      <point x="317" y="602"/>
      <point x="268" y="639"/>
      <point x="208" y="639" type="curve" smooth="yes"/>
      <point x="169" y="639"/>
      <point x="123" y="610"/>
      <point x="86" y="586" type="curve"/>
      <point x="72" y="608" type="line"/>
      <point x="123" y="651"/>
      <point x="191" y="702"/>
      <point x="253" y="702" type="curve" smooth="yes"/>
      <point x="334" y="702"/>
      <point x="399" y="655"/>
      <point x="399" y="568" type="curve" smooth="yes"/>
      <point x="399" y="472"/>
      <point x="328" y="407"/>
    </contour>
  </outline>
</glyph>
<glyph name="five" format="2">
  <advance width="500"/>
  <unicode hex="0035"/>
  <outline>
    <contour>
      <point x="125" y="594" type="curve" smooth="yes"/>
      <point x="125" y="413" type="line"/>
      <point x="125" y="406" type="line"/>
      <point x="166" y="426"/>
      <point x="211" y="443"/>
      <point x="257" y="443" type="curve" smooth="yes"/>
      <point x="374" y="443"/>
      <point x="448" y="363"/>
      <point x="448" y="251" type="curve" smooth="yes"/>
      <point x="448" y="98"/>
      <point x="323" y="-11"/>
      <point x="178" y="-11" type="curve" smooth="yes"/>
      <point x="115" y="-11"/>
      <point x="54" y="15"/>
      <point x="13" y="64" type="curve"/>
      <point x="12" y="76" type="line"/>
      <point x="56" y="132" type="line"/>
      <point x="67" y="132" type="line"/>
      <point x="89" y="83"/>
      <point x="124" y="26"/>
      <point x="186" y="26" type="curve" smooth="yes"/>
      <point x="298" y="26"/>
      <point x="352" y="121"/>
      <point x="352" y="223" type="curve" smooth="yes"/>
      <point x="352" y="305"/>
      <point x="316" y="395"/>
      <point x="213" y="395" type="curve" smooth="yes"/>
      <point x="169" y="395"/>
      <point x="128" y="373"/>
      <point x="96" y="342" type="curve"/>
      <point x="83" y="353" type="line"/>
      <point x="83" y="680" type="line"/>
      <point x="90" y="687" type="line"/>
      <point x="425" y="687" type="line"/>
      <point x="398" y="609" type="line"/>
      <point x="311" y="607"/>
      <point x="185" y="604"/>
      <point x="137" y="604" type="curve" smooth="yes"/>
      <point x="131" y="604"/>
      <point x="125" y="600"/>
    </contour>
  </outline>
</glyph>
<glyph name="six" format="2">
  <advance width="500"/>
  <unicode hex="0036"/>
  <outline>
    <contour>
      <point x="471" y="688" type="curve"/>
      <point x="451" y="634" type="line"/>
      <point x="442" y="630" type="line"/>
      <point x="422" y="638"/>
      <point x="404" y="641"/>
      <point x="384" y="641" type="curve" smooth="yes"/>
      <point x="323" y="641"/>
      <point x="269" y="614"/>
      <point x="228" y="576" type="curve" smooth="yes"/>
      <point x="149" y="503"/>
      <point x="130" y="402"/>
      <point x="129" y="306" type="curve"/>
      <point x="136" y="305" type="line"/>
      <point x="189" y="348"/>
      <point x="252" y="377"/>
      <point x="321" y="377" type="curve" smooth="yes"/>
      <point x="412" y="377"/>
      <point x="471" y="296"/>
      <point x="471" y="211" type="curve" smooth="yes"/>
      <point x="471" y="94"/>
      <point x="356" y="-13"/>
      <point x="236" y="-13" type="curve" smooth="yes"/>
      <point x="95" y="-13"/>
      <point x="45" y="124"/>
      <point x="45" y="238" type="curve" smooth="yes"/>
      <point x="45" y="363"/>
      <point x="90" y="487"/>
      <point x="179" y="576" type="curve" smooth="yes"/>
      <point x="241" y="641"/>
      <point x="327" y="700"/>
      <point x="416" y="700" type="curve" smooth="yes"/>
      <point x="431" y="700"/>
      <point x="456" y="694"/>
    </contour>
    <contour>
      <point x="132" y="265" type="curve"/>
      <point x="132" y="174"/>
      <point x="157" y="32"/>
      <point x="263" y="32" type="curve" smooth="yes"/>
      <point x="348" y="32"/>
      <point x="392" y="96"/>
      <point x="392" y="172" type="curve" smooth="yes"/>
      <point x="392" y="246"/>
      <point x="335" y="314"/>
      <point x="256" y="314" type="curve" smooth="yes"/>
      <point x="215" y="314"/>
      <point x="154" y="286"/>
    </contour>
  </outline>
</glyph>
<glyph name="seven" format="2">
  <advance width="500"/>
  <unicode hex="0037"/>
  <outline>
    <contour>
      <point x="494" y="674" type="line"/>
      <point x="340" y="422" type="line" smooth="yes"/>
      <point x="262" y="294"/>
      <point x="197" y="158"/>
      <point x="165" y="12" type="curve"/>
      <point x="81" y="-8" type="line"/>
      <point x="75" y="0" type="line"/>
      <point x="99" y="82"/>
      <point x="184" y="232"/>
      <point x="238" y="324" type="curve"/>
      <point x="238" y="324"/>
      <point x="336" y="495"/>
      <point x="398" y="594" type="curve"/>
      <point x="392" y="606" type="line"/>
      <point x="56" y="606" type="line"/>
      <point x="49" y="615" type="line"/>
      <point x="70" y="694" type="line"/>
      <point x="88" y="688"/>
      <point x="241" y="686"/>
      <point x="286" y="686" type="curve" smooth="yes"/>
      <point x="494" y="686" type="line"/>
    </contour>
  </outline>
</glyph>
<glyph name="eight" format="2">
  <advance width="500"/>
  <unicode hex="0038"/>
  <outline>
    <contour>
      <point x="238" y="334" type="curve"/>
      <point x="169" y="298"/>
      <point x="123" y="254"/>
      <point x="123" y="177" type="curve" smooth="yes"/>
      <point x="123" y="107"/>
      <point x="166" y="32"/>
      <point x="245" y="32" type="curve" smooth="yes"/>
      <point x="328" y="32"/>
      <point x="374" y="89"/>
      <point x="374" y="168" type="curve" smooth="yes"/>
      <point x="374" y="243"/>
      <point x="320" y="282"/>
    </contour>
    <contour>
      <point x="312" y="385" type="line"/>
      <point x="418" y="313"/>
      <point x="461" y="277"/>
      <point x="461" y="197" type="curve" smooth="yes"/>
      <point x="461" y="68"/>
      <point x="338" y="-10"/>
      <point x="219" y="-10" type="curve" smooth="yes"/>
      <point x="171" y="-10"/>
      <point x="117" y="0"/>
      <point x="82" y="35" type="curve" smooth="yes"/>
      <point x="50" y="67"/>
      <point x="40" y="112"/>
      <point x="40" y="157" type="curve" smooth="yes"/>
      <point x="40" y="250"/>
      <point x="93" y="289"/>
      <point x="201" y="352" type="curve"/>
      <point x="201" y="363" type="line"/>
      <point x="146" y="401"/>
      <point x="89" y="459"/>
      <point x="89" y="530" type="curve" smooth="yes"/>
      <point x="89" y="628"/>
      <point x="173" y="674"/>
      <point x="254" y="706" type="curve"/>
      <point x="257" y="706"/>
      <point x="260" y="706"/>
      <point x="263" y="706" type="curve" smooth="yes"/>
      <point x="365" y="706"/>
      <point x="435" y="650"/>
      <point x="435" y="568" type="curve" smooth="yes"/>
      <point x="435" y="496"/>
      <point x="372" y="433"/>
      <point x="312" y="396" type="curve"/>
    </contour>
    <contour>
      <point x="279" y="412" type="curve"/>
      <point x="321" y="441"/>
      <point x="351" y="490"/>
      <point x="351" y="543" type="curve" smooth="yes"/>
      <point x="351" y="593"/>
      <point x="308" y="659"/>
      <point x="223" y="659" type="curve"/>
      <point x="177" y="629"/>
      <point x="166" y="601"/>
      <point x="166" y="562" type="curve" smooth="yes"/>
      <point x="166" y="503"/>
      <point x="226" y="449"/>
    </contour>
  </outline>
</glyph>
<glyph name="colon" format="2">
  <advance width="184"/>
  <unicode hex="003A"/>
  <outline>
    <contour>
      <point x="35" y="45" type="curve" smooth="yes"/>
      <point x="35" y="76"/>
      <point x="61" y="102"/>
      <point x="93" y="102" type="curve" smooth="yes"/>
      <point x="124" y="102"/>
      <point x="149" y="76"/>
      <point x="149" y="45" type="curve" smooth="yes"/>
      <point x="149" y="14"/>
      <point x="124" y="-12"/>
      <point x="93" y="-12" type="curve" smooth="yes"/>
      <point x="61" y="-12"/>
      <point x="35" y="14"/>
    </contour>
    <contour>
      <point x="35" y="398" type="curve" smooth="yes"/>
      <point x="35" y="429"/>
      <point x="61" y="455"/>
      <point x="93" y="455" type="curve" smooth="yes"/>
      <point x="124" y="455"/>
      <point x="149" y="429"/>
      <point x="149" y="398" type="curve" smooth="yes"/>
      <point x="149" y="367"/>
      <point x="124" y="341"/>
      <point x="93" y="341" type="curve" smooth="yes"/>
      <point x="61" y="341"/>
      <point x="35" y="367"/>
    </contour>
  </outline>
</glyph>
<glyph name="less" format="2">
  <advance width="710"/>
  <unicode hex="003C"/>
  <outline>
    <contour>
      <point x="662" y="505" type="line"/>
      <point x="660" y="496" type="line"/>
      <point x="138" y="255" type="line"/>
      <point x="138" y="243" type="line"/>
      <point x="657" y="2" type="line"/>
      <point x="662" y="-8" type="line"/>
      <point x="651" y="-31" type="line"/>
      <point x="641" y="-36" type="line"/>
      <point x="41" y="244" type="line"/>
      <point x="41" y="256" type="line"/>
      <point x="642" y="531" type="line"/>
      <point x="653" y="528" type="line"/>
    </contour>
  </outline>
</glyph>
<glyph name="equal" format="2">
  <advance width="823"/>
  <unicode hex="003D"/>
  <outline>
    <contour>
      <point x="739" y="329" type="line"/>
      <point x="77" y="329" type="line"/>
      <point x="84" y="369" type="line"/>
      <point x="745" y="369" type="line"/>
    </contour>
    <contour>
      <point x="739" y="132" type="line"/>
      <point x="77" y="132" type="line"/>
      <point x="84" y="172" type="line"/>
      <point x="745" y="172" type="line"/>
    </contour>
  </outline>
</glyph>
<glyph name="greater" format="2">
  <advance width="711"/>
  <unicode hex="003E"/>
  <outline>
    <contour>
      <point x="50" y="494" type="line"/>
      <point x="48" y="504" type="line"/>
      <point x="58" y="528" type="line"/>
      <point x="68" y="531" type="line"/>
      <point x="670" y="256" type="line"/>
      <point x="670" y="244" type="line"/>
      <point x="70" y="-36" type="line"/>
      <point x="60" y="-31" type="line"/>
      <point x="52" y="-7" type="line"/>
      <point x="56" y="2" type="line"/>
      <point x="574" y="245" type="line"/>
      <point x="574" y="254" type="line"/>
    </contour>
  </outline>
</glyph>
<glyph name="question" format="2">
  <advance width="353"/>
  <unicode hex="003F"/>
  <outline>
    <contour>
      <point x="82" y="46" type="curve" smooth="yes"/>
      <point x="82" y="77"/>
      <point x="107" y="103"/>
      <point x="138" y="103" type="curve" smooth="yes"/>
      <point x="170" y="103"/>
      <point x="196" y="77"/>
      <point x="196" y="46" type="curve" smooth="yes"/>
      <point x="196" y="15"/>
      <point x="170" y="-11"/>
      <point x="138" y="-11" type="curve" smooth="yes"/>
      <point x="107" y="-11"/>
      <point x="82" y="15"/>
    </contour>
    <contour>
      <point x="162" y="211" type="line"/>
      <point x="116" y="179" type="line"/>
      <point x="93" y="193"/>
      <point x="74" y="220"/>
      <point x="74" y="250" type="curve" smooth="yes"/>
      <point x="74" y="270"/>
      <point x="87" y="289"/>
      <point x="100" y="305" type="curve" smooth="yes"/>
      <point x="164" y="388"/>
      <point x="263" y="432"/>
      <point x="263" y="545" type="curve" smooth="yes"/>
      <point x="263" y="599"/>
      <point x="215" y="661"/>
      <point x="165" y="661" type="curve" smooth="yes"/>
      <point x="126" y="661"/>
      <point x="84" y="634"/>
      <point x="84" y="589" type="curve" smooth="yes"/>
      <point x="84" y="565"/>
      <point x="97" y="543"/>
      <point x="116" y="528" type="curve"/>
      <point x="49" y="488" type="line"/>
      <point x="31" y="504"/>
      <point x="21" y="531"/>
      <point x="21" y="557" type="curve" smooth="yes"/>
      <point x="21" y="640"/>
      <point x="126" y="693"/>
      <point x="205" y="693" type="curve" smooth="yes"/>
      <point x="281" y="693"/>
      <point x="334" y="642"/>
      <point x="334" y="565" type="curve" smooth="yes"/>
      <point x="334" y="532"/>
      <point x="321" y="505"/>
      <point x="304" y="476" type="curve" smooth="yes"/>
      <point x="257" y="397"/>
      <point x="135" y="336"/>
      <point x="135" y="274" type="curve" smooth="yes"/>
      <point x="135" y="254"/>
      <point x="146" y="234"/>
      <point x="162" y="222" type="curve"/>
    </contour>
  </outline>
</glyph>
<glyph name="at" format="2">
  <advance width="728"/>
  <unicode hex="0040"/>
  <outline>
    <contour>
      <point x="455" y="138" type="curve"/>
      <point x="455" y="299" type="line" smooth="yes"/>
      <point x="455" y="317"/>
      <point x="455" y="336"/>
      <point x="442" y="348" type="curve" smooth="yes"/>
      <point x="428" y="361"/>
      <point x="409" y="371"/>
      <point x="389" y="371" type="curve" smooth="yes"/>
      <point x="360" y="371"/>
      <point x="334" y="362"/>
      <point x="313" y="344" type="curve" smooth="yes"/>
      <point x="295" y="329"/>
      <point x="271" y="291"/>
      <point x="270" y="220" type="curve" smooth="yes"/>
      <point x="269" y="191"/>
      <point x="275" y="160"/>
      <point x="293" y="136" type="curve" smooth="yes"/>
      <point x="310" y="113"/>
      <point x="342" y="107"/>
      <point x="371" y="107" type="curve" smooth="yes"/>
      <point x="403" y="107"/>
      <point x="432" y="123"/>
    </contour>
    <contour>
      <point x="472" y="371" type="curve"/>
      <point x="514" y="393" type="line"/>
      <point x="518" y="389" type="line"/>
      <point x="514" y="337"/>
      <point x="514" y="285"/>
      <point x="514" y="233" type="curve" smooth="yes"/>
      <point x="514" y="206"/>
      <point x="515" y="178"/>
      <point x="515" y="151" type="curve" smooth="yes"/>
      <point x="515" y="134"/>
      <point x="517" y="105"/>
      <point x="544" y="105" type="curve" smooth="yes"/>
      <point x="607" y="105"/>
      <point x="630" y="195"/>
      <point x="634" y="249" type="curve" smooth="yes"/>
      <point x="647" y="427"/>
      <point x="484" y="541"/>
      <point x="316" y="509" type="curve" smooth="yes"/>
      <point x="263" y="499"/>
      <point x="213" y="474"/>
      <point x="171" y="439" type="curve"/>
      <point x="80" y="330"/>
      <point x="74" y="141"/>
      <point x="172" y="36" type="curve"/>
      <point x="214" y="-3"/>
      <point x="272" y="-31"/>
      <point x="339" y="-36" type="curve"/>
      <point x="353" y="-51" type="line"/>
      <point x="310" y="-93" type="line"/>
      <point x="205" y="-85"/>
      <point x="122" y="-17"/>
      <point x="78" y="59" type="curve" smooth="yes"/>
      <point x="21" y="157"/>
      <point x="30" y="279"/>
      <point x="86" y="371" type="curve" smooth="yes"/>
      <point x="138" y="457"/>
      <point x="236" y="544"/>
      <point x="345" y="565" type="curve" smooth="yes"/>
      <point x="520" y="599"/>
      <point x="705" y="462"/>
      <point x="691" y="277" type="curve" smooth="yes"/>
      <point x="686" y="214"/>
      <point x="659" y="161"/>
      <point x="620" y="122" type="curve"/>
      <point x="596" y="95"/>
      <point x="535" y="61"/>
      <point x="501" y="61" type="curve" smooth="yes"/>
      <point x="472" y="61"/>
      <point x="461" y="78"/>
      <point x="457" y="102" type="curve"/>
      <point x="445" y="105" type="line"/>
      <point x="406" y="83"/>
      <point x="362" y="61"/>
      <point x="316" y="61" type="curve" smooth="yes"/>
      <point x="228" y="61"/>
      <point x="199" y="135"/>
      <point x="199" y="199" type="curve" smooth="yes"/>
      <point x="199" y="298"/>
      <point x="255" y="395"/>
      <point x="387" y="395" type="curve" smooth="yes"/>
      <point x="412" y="395"/>
      <point x="447" y="387"/>
    </contour>
  </outline>
</glyph>
<glyph name="C" format="2">
  <advance width="633"/>
  <unicode hex="0043"/>
  <anchor x="357" y="0" name="bottom"/>
  <anchor x="317" y="683" name="top"/>
  <outline>
    <contour>
      <point x="567" y="528" type="line"/>
      <point x="553" y="529" type="line"/>
      <point x="519" y="619"/>
      <point x="456" y="658"/>
      <point x="374" y="658" type="curve" smooth="yes"/>
      <point x="192" y="658"/>
      <point x="128" y="496"/>
      <point x="128" y="344" type="curve" smooth="yes"/>
      <point x="128" y="252"/>
      <point x="176" y="154"/>
      <point x="209" y="121" type="curve" smooth="yes"/>
      <point x="264" y="66"/>
      <point x="306" y="38"/>
      <point x="388" y="38" type="curve" smooth="yes"/>
      <point x="456" y="38"/>
      <point x="519" y="67"/>
      <point x="575" y="105" type="curve"/>
      <point x="592" y="76" type="line"/>
      <point x="520" y="27"/>
      <point x="440" y="-15"/>
      <point x="353" y="-15" type="curve" smooth="yes"/>
      <point x="274" y="-15"/>
      <point x="192" y="2"/>
      <point x="135" y="59" type="curve" smooth="yes"/>
      <point x="65" y="129"/>
      <point x="39" y="228"/>
      <point x="39" y="326" type="curve" smooth="yes"/>
      <point x="39" y="422"/>
      <point x="60" y="520"/>
      <point x="130" y="590" type="curve" smooth="yes"/>
      <point x="203" y="663"/>
      <point x="304" y="699"/>
      <point x="408" y="699" type="curve" smooth="yes"/>
      <point x="496" y="699"/>
      <point x="572" y="671"/>
      <point x="624" y="586" type="curve"/>
    </contour>
  </outline>
</glyph>
<glyph name="E" format="2">
  <advance width="518"/>
  <unicode hex="0045"/>
  <anchor x="259" y="0" name="bottom"/>
  <anchor x="270" y="683" name="top"/>
  <outline>
    <contour>
      <point x="411" y="336" type="line"/>
      <point x="372" y="339"/>
      <point x="332" y="342"/>
      <point x="293" y="342" type="curve" smooth="yes"/>
      <point x="235" y="342"/>
      <point x="164" y="345"/>
      <point x="164" y="327" type="curve" smooth="yes"/>
      <point x="164" y="188" type="line" smooth="yes"/>
      <point x="164" y="150"/>
      <point x="165" y="101"/>
      <point x="179" y="76" type="curve" smooth="yes"/>
      <point x="193" y="50"/>
      <point x="214" y="44"/>
      <point x="275" y="44" type="curve" smooth="yes"/>
      <point x="322" y="44"/>
      <point x="345" y="44"/>
      <point x="509" y="58" type="curve"/>
      <point x="514" y="53" type="line"/>
      <point x="501" y="0" type="line"/>
      <point x="113" y="0" type="line"/>
      <point x="93" y="11"/>
      <point x="87" y="39"/>
      <point x="87" y="66" type="curve" smooth="yes"/>
      <point x="87" y="558" type="line" smooth="yes"/>
      <point x="87" y="572"/>
      <point x="87" y="602"/>
      <point x="78" y="622" type="curve" smooth="yes"/>
      <point x="72" y="635"/>
      <point x="49" y="647"/>
      <point x="2" y="654" type="curve"/>
      <point x="1" y="674" type="line"/>
      <point x="8" y="681" type="line"/>
      <point x="156" y="682" type="line" smooth="yes"/>
      <point x="226" y="682"/>
      <point x="327" y="687"/>
      <point x="398" y="688" type="curve" smooth="yes"/>
      <point x="416" y="688"/>
      <point x="431" y="688"/>
      <point x="444" y="687" type="curve"/>
      <point x="442" y="637" type="line"/>
      <point x="438" y="630" type="line"/>
      <point x="369" y="634"/>
      <point x="236" y="640"/>
      <point x="229" y="640" type="curve" smooth="yes"/>
      <point x="189" y="640" type="line"/>
      <point x="169" y="636"/>
      <point x="165" y="599"/>
      <point x="165" y="564" type="curve" smooth="yes"/>
      <point x="165" y="398" type="line" smooth="yes"/>
      <point x="165" y="381"/>
      <point x="194" y="384"/>
      <point x="231" y="384" type="curve" smooth="yes"/>
      <point x="284" y="384"/>
      <point x="358" y="387"/>
      <point x="411" y="391" type="curve"/>
      <point x="417" y="384" type="line"/>
    </contour>
  </outline>
</glyph>
<glyph name="F" format="2">
  <advance width="441"/>
  <unicode hex="0046"/>
  <outline>
    <contour>
      <point x="87" y="360" type="curve" smooth="yes"/>
      <point x="89" y="521" type="line" smooth="yes"/>
      <point x="89" y="564"/>
      <point x="96" y="637"/>
      <point x="56" y="647" type="curve" smooth="yes"/>
      <point x="1" y="660" type="line"/>
      <point x="1" y="681" type="line"/>
      <point x="8" y="688" type="line"/>
      <point x="150" y="688"/>
      <point x="356" y="688"/>
      <point x="429" y="690" type="curve"/>
      <point x="429" y="637" type="line"/>
      <point x="421" y="629" type="line"/>
      <point x="349" y="634"/>
      <point x="277" y="649"/>
      <point x="205" y="649" type="curve" smooth="yes"/>
      <point x="192" y="649"/>
      <point x="178" y="643"/>
      <point x="173" y="626" type="curve" smooth="yes"/>
      <point x="169" y="612"/>
      <point x="166" y="602"/>
      <point x="166" y="391" type="curve" smooth="yes"/>
      <point x="166" y="386"/>
      <point x="170" y="378"/>
      <point x="179" y="378" type="curve" smooth="yes"/>
      <point x="252" y="378"/>
      <point x="342" y="387"/>
      <point x="414" y="390" type="curve"/>
      <point x="413" y="341" type="line"/>
      <point x="408" y="336" type="line"/>
      <point x="338" y="340"/>
      <point x="250" y="341"/>
      <point x="179" y="341" type="curve" smooth="yes"/>
      <point x="174" y="341"/>
      <point x="167" y="337"/>
      <point x="167" y="330" type="curve" smooth="yes"/>
      <point x="167" y="229"/>
      <point x="168" y="114"/>
      <point x="172" y="13" type="curve"/>
      <point x="80" y="-2" type="line"/>
      <point x="84" y="119"/>
      <point x="87" y="239"/>
    </contour>
  </outline>
</glyph>
<glyph name="H" format="2">
  <advance width="706"/>
  <unicode hex="0048"/>
  <outline>
    <contour>
      <point x="700" y="14" type="line"/>
      <point x="694" y="0" type="line"/>
      <point x="545" y="0" type="line"/>
      <point x="534" y="21" type="line"/>
      <point x="536" y="118"/>
      <point x="539" y="237"/>
      <point x="539" y="334" type="curve" smooth="yes"/>
      <point x="539" y="339"/>
      <point x="536" y="346"/>
      <point x="527" y="346" type="curve" smooth="yes"/>
      <point x="184" y="346" type="line" smooth="yes"/>
      <point x="177" y="346"/>
      <point x="171" y="341"/>
      <point x="171" y="334" type="curve" smooth="yes"/>
      <point x="171" y="289"/>
      <point x="170" y="232"/>
      <point x="170" y="178" type="curve" smooth="yes"/>
      <point x="170" y="120"/>
      <point x="170" y="76"/>
      <point x="176" y="26" type="curve"/>
      <point x="84" y="-2" type="line"/>
      <point x="78" y="3" type="line"/>
      <point x="88" y="116"/>
      <point x="88" y="245"/>
      <point x="88" y="367" type="curve" smooth="yes"/>
      <point x="88" y="450"/>
      <point x="88" y="533"/>
      <point x="82" y="616" type="curve" smooth="yes"/>
      <point x="80" y="643"/>
      <point x="66" y="639"/>
      <point x="9" y="659" type="curve"/>
      <point x="8" y="678" type="line"/>
      <point x="15" y="685" type="line"/>
      <point x="177" y="685" type="line"/>
      <point x="182" y="680" type="line"/>
      <point x="170" y="612"/>
      <point x="169" y="489"/>
      <point x="169" y="397" type="curve" smooth="yes"/>
      <point x="169" y="392"/>
      <point x="171" y="385"/>
      <point x="181" y="385" type="curve" smooth="yes"/>
      <point x="527" y="385" type="line" smooth="yes"/>
      <point x="538" y="385"/>
      <point x="539" y="391"/>
      <point x="539" y="397" type="curve" smooth="yes"/>
      <point x="539" y="483"/>
      <point x="536" y="587"/>
      <point x="536" y="673" type="curve"/>
      <point x="624" y="690" type="line"/>
      <point x="629" y="684" type="line"/>
      <point x="620" y="563"/>
      <point x="618" y="443"/>
      <point x="618" y="322" type="curve" smooth="yes"/>
      <point x="618" y="241"/>
      <point x="619" y="160"/>
      <point x="622" y="79" type="curve" smooth="yes"/>
      <point x="622" y="43"/>
      <point x="692" y="32"/>
      <point x="699" y="32" type="curve"/>
    </contour>
  </outline>
</glyph>
<glyph name="J" format="2">
  <advance width="265"/>
  <unicode hex="004A"/>
  <outline>
    <contour>
      <point x="175" y="608" type="curve" smooth="yes"/>
      <point x="175" y="91" type="line" smooth="yes"/>
      <point x="175" y="-64"/>
      <point x="113" y="-165"/>
      <point x="-21" y="-234" type="curve"/>
      <point x="-35" y="-216" type="line"/>
      <point x="43" y="-167"/>
      <point x="90" y="-106"/>
      <point x="90" y="96" type="curve" smooth="yes"/>
      <point x="90" y="608" type="line" smooth="yes"/>
      <point x="90" y="619"/>
      <point x="86" y="642"/>
      <point x="74" y="645" type="curve" smooth="yes"/>
      <point x="2" y="663" type="line"/>
      <point x="2" y="684" type="line"/>
      <point x="9" y="690" type="line"/>
      <point x="259" y="690" type="line"/>
      <point x="266" y="684" type="line"/>
      <point x="264" y="660" type="line"/>
      <point x="196" y="646" type="line" smooth="yes"/>
      <point x="184" y="643"/>
      <point x="175" y="626"/>
    </contour>
  </outline>
</glyph>
<glyph name="K" format="2">
  <advance width="593"/>
  <unicode hex="004B"/>
  <outline>
    <contour>
      <point x="178" y="319" type="curve"/>
      <point x="169" y="318" type="line"/>
      <point x="169" y="220"/>
      <point x="169" y="122"/>
      <point x="175" y="25" type="curve"/>
      <point x="94" y="-4" type="line"/>
      <point x="86" y="1" type="line"/>
      <point x="86" y="148" type="line"/>
      <point x="86" y="595" type="line" smooth="yes"/>
      <point x="86" y="605"/>
      <point x="85" y="616"/>
      <point x="81" y="626" type="curve"/>
      <point x="72" y="643"/>
      <point x="12" y="659"/>
      <point x="6" y="659" type="curve"/>
      <point x="8" y="676" type="line"/>
      <point x="16" y="683" type="line"/>
      <point x="174" y="683" type="line"/>
      <point x="181" y="676" type="line"/>
      <point x="170" y="643"/>
      <point x="166" y="560"/>
      <point x="166" y="358" type="curve"/>
      <point x="174" y="357" type="line"/>
      <point x="461" y="683" type="line"/>
      <point x="551" y="683" type="line"/>
      <point x="550" y="674" type="line"/>
      <point x="259" y="380" type="line" smooth="yes"/>
      <point x="256" y="377"/>
      <point x="251" y="372"/>
      <point x="251" y="369" type="curve" smooth="yes"/>
      <point x="251" y="366"/>
      <point x="252" y="364"/>
      <point x="256" y="360" type="curve" smooth="yes"/>
      <point x="363" y="253"/>
      <point x="528" y="89"/>
      <point x="589" y="35" type="curve"/>
      <point x="588" y="24" type="line"/>
      <point x="503" y="-7" type="line"/>
      <point x="398" y="105"/>
      <point x="286" y="210"/>
    </contour>
  </outline>
</glyph>
<glyph name="L" format="2">
  <advance width="494"/>
  <unicode hex="004C"/>
  <outline>
    <contour>
      <point x="492" y="48" type="line"/>
      <point x="478" y="-5" type="line"/>
      <point x="404" y="2"/>
      <point x="203" y="2"/>
      <point x="65" y="2" type="curve"/>
      <point x="65" y="16" type="line"/>
      <point x="81" y="38"/>
      <point x="87" y="91"/>
      <point x="87" y="143" type="curve" smooth="yes"/>
      <point x="87" y="621" type="line" smooth="yes"/>
      <point x="87" y="635"/>
      <point x="81" y="651"/>
      <point x="66" y="654" type="curve" smooth="yes"/>
      <point x="46" y="658"/>
      <point x="9" y="666"/>
      <point x="8" y="666" type="curve"/>
      <point x="9" y="683" type="line"/>
      <point x="16" y="690" type="line"/>
      <point x="253" y="690" type="line"/>
      <point x="259" y="684" type="line"/>
      <point x="259" y="663" type="line"/>
      <point x="258" y="663"/>
      <point x="215" y="654"/>
      <point x="194" y="649" type="curve"/>
      <point x="182" y="647"/>
      <point x="177" y="635"/>
      <point x="176" y="624" type="curve" smooth="yes"/>
      <point x="172" y="551"/>
      <point x="170" y="473"/>
      <point x="170" y="393" type="curve" smooth="yes"/>
      <point x="170" y="280"/>
      <point x="173" y="164"/>
      <point x="177" y="56" type="curve"/>
      <point x="178" y="50"/>
      <point x="185" y="43"/>
      <point x="190" y="43" type="curve" smooth="yes"/>
      <point x="294" y="43"/>
      <point x="476" y="57"/>
      <point x="482" y="58" type="curve"/>
    </contour>
  </outline>
</glyph>
<glyph name="M" format="2">
  <advance width="962"/>
  <unicode hex="004D"/>
  <outline>
    <contour>
      <point x="751" y="690" type="line"/>
      <point x="854" y="690" type="line"/>
      <point x="854" y="678" type="line"/>
      <point x="827" y="664"/>
      <point x="829" y="627"/>
      <point x="829" y="583" type="curve" smooth="yes"/>
      <point x="829" y="419"/>
      <point x="830" y="266"/>
      <point x="847" y="102" type="curve" smooth="yes"/>
      <point x="850" y="73"/>
      <point x="872" y="46"/>
      <point x="905" y="46" type="curve" smooth="yes"/>
      <point x="918" y="46"/>
      <point x="943" y="50"/>
      <point x="961" y="52" type="curve"/>
      <point x="961" y="28" type="line"/>
      <point x="917" y="12"/>
      <point x="865" y="-6"/>
      <point x="825" y="-6" type="curve" smooth="yes"/>
      <point x="795" y="-6"/>
      <point x="762" y="3"/>
      <point x="762" y="29" type="curve" smooth="yes"/>
      <point x="762" y="211" type="line" smooth="yes"/>
      <point x="762" y="236"/>
      <point x="754" y="482"/>
      <point x="752" y="548" type="curve" smooth="yes"/>
      <point x="752" y="556"/>
      <point x="749" y="563"/>
      <point x="744" y="563" type="curve" smooth="yes"/>
      <point x="741" y="563"/>
      <point x="736" y="560"/>
      <point x="733" y="555" type="curve"/>
      <point x="447" y="1" type="line"/>
      <point x="417" y="1" type="line"/>
      <point x="342" y="181"/>
      <point x="248" y="410"/>
      <point x="185" y="538" type="curve"/>
      <point x="182" y="543"/>
      <point x="178" y="548"/>
      <point x="174" y="548" type="curve" smooth="yes"/>
      <point x="153" y="548"/>
      <point x="119" y="113"/>
      <point x="112" y="23" type="curve"/>
      <point x="37" y="-3" type="line"/>
      <point x="30" y="0" type="line"/>
      <point x="68" y="196"/>
      <point x="103" y="393"/>
      <point x="130" y="591" type="curve"/>
      <point x="131" y="595"/>
      <point x="131" y="599"/>
      <point x="131" y="603" type="curve" smooth="yes"/>
      <point x="131" y="621"/>
      <point x="121" y="637"/>
      <point x="103" y="642" type="curve" smooth="yes"/>
      <point x="35" y="661" type="line"/>
      <point x="37" y="683" type="line"/>
      <point x="44" y="690" type="line"/>
      <point x="220" y="690" type="line"/>
      <point x="275" y="529"/>
      <point x="369" y="329"/>
      <point x="452" y="152" type="curve" smooth="yes"/>
      <point x="454" y="148"/>
      <point x="459" y="138"/>
      <point x="463" y="138" type="curve" smooth="yes"/>
      <point x="467" y="138"/>
      <point x="473" y="143"/>
      <point x="475" y="147" type="curve" smooth="yes"/>
    </contour>
  </outline>
</glyph>
<glyph name="R" format="2">
  <advance width="548"/>
  <unicode hex="0052"/>
  <outline>
    <contour>
      <point x="167" y="370" type="curve" smooth="yes"/>
      <point x="167" y="364"/>
      <point x="169" y="355"/>
      <point x="176" y="355" type="curve" smooth="yes"/>
      <point x="286" y="355"/>
      <point x="392" y="404"/>
      <point x="392" y="523" type="curve" smooth="yes"/>
      <point x="392" y="619"/>
      <point x="303" y="640"/>
      <point x="225" y="640" type="curve" smooth="yes"/>
      <point x="185" y="640" type="line" smooth="yes"/>
      <point x="177" y="640"/>
      <point x="174" y="633"/>
      <point x="173" y="614" type="curve" smooth="yes"/>
      <point x="171" y="550"/>
      <point x="167" y="375"/>
    </contour>
    <contour>
      <point x="275" y="331" type="curve"/>
      <point x="273" y="323" type="line"/>
      <point x="536" y="27" type="line"/>
      <point x="536" y="18" type="line"/>
      <point x="437" y="-8" type="line"/>
      <point x="344" y="111"/>
      <point x="217" y="274"/>
      <point x="188" y="303" type="curve" smooth="yes"/>
      <point x="183" y="308"/>
      <point x="174" y="312"/>
      <point x="168" y="312" type="curve"/>
      <point x="168" y="216"/>
      <point x="168" y="119"/>
      <point x="173" y="23" type="curve"/>
      <point x="90" y="-6" type="line"/>
      <point x="79" y="3" type="line"/>
      <point x="87" y="148"/>
      <point x="88" y="294"/>
      <point x="88" y="439" type="curve" smooth="yes"/>
      <point x="88" y="454"/>
      <point x="85" y="554"/>
      <point x="85" y="611" type="curve" smooth="yes"/>
      <point x="85" y="643"/>
      <point x="17" y="656"/>
      <point x="8" y="656" type="curve"/>
      <point x="9" y="673" type="line"/>
      <point x="15" y="679" type="line"/>
      <point x="287" y="679" type="line" smooth="yes"/>
      <point x="409" y="679"/>
      <point x="490" y="632"/>
      <point x="490" y="539" type="curve" smooth="yes"/>
      <point x="490" y="400"/>
      <point x="394" y="344"/>
    </contour>
  </outline>
</glyph>
<glyph name="S" format="2">
  <advance width="484"/>
  <unicode hex="0053"/>
  <outline>
    <contour>
      <point x="451" y="606" type="curve"/>
      <point x="388" y="550" type="line"/>
      <point x="375" y="553" type="line"/>
      <point x="358" y="619"/>
      <point x="321" y="665"/>
      <point x="253" y="665" type="curve" smooth="yes"/>
      <point x="189" y="665"/>
      <point x="142" y="612"/>
      <point x="142" y="547" type="curve" smooth="yes"/>
      <point x="142" y="469"/>
      <point x="217" y="423"/>
      <point x="295" y="389" type="curve" smooth="yes"/>
      <point x="400" y="343"/>
      <point x="454" y="289"/>
      <point x="454" y="209" type="curve" smooth="yes"/>
      <point x="454" y="77"/>
      <point x="308" y="-15"/>
      <point x="181" y="-15" type="curve" smooth="yes"/>
      <point x="112" y="-15"/>
      <point x="44" y="14"/>
      <point x="16" y="87" type="curve"/>
      <point x="73" y="153" type="line"/>
      <point x="90" y="152" type="line"/>
      <point x="111" y="82"/>
      <point x="152" y="31"/>
      <point x="223" y="31" type="curve" smooth="yes"/>
      <point x="301" y="31"/>
      <point x="366" y="94"/>
      <point x="366" y="178" type="curve" smooth="yes"/>
      <point x="366" y="234"/>
      <point x="305" y="288"/>
      <point x="245" y="314" type="curve" smooth="yes"/>
      <point x="124" y="366"/>
      <point x="62" y="414"/>
      <point x="62" y="512" type="curve" smooth="yes"/>
      <point x="62" y="637"/>
      <point x="165" y="702"/>
      <point x="274" y="702" type="curve" smooth="yes"/>
      <point x="347" y="702"/>
      <point x="407" y="689"/>
    </contour>
  </outline>
</glyph>
<glyph name="T" format="2">
  <advance width="551"/>
  <unicode hex="0054"/>
  <outline>
    <contour>
      <point x="549" y="689" type="line"/>
      <point x="549" y="641" type="line"/>
      <point x="541" y="634" type="line"/>
      <point x="373" y="642"/>
      <point x="352" y="644"/>
      <point x="331" y="644" type="curve" smooth="yes"/>
      <point x="317" y="644"/>
      <point x="318" y="559"/>
      <point x="318" y="438" type="curve" smooth="yes"/>
      <point x="318" y="317"/>
      <point x="324" y="138"/>
      <point x="331" y="17" type="curve"/>
      <point x="231" y="-10" type="line"/>
      <point x="222" y="-1" type="line"/>
      <point x="230" y="126"/>
      <point x="235" y="253"/>
      <point x="235" y="380" type="curve" smooth="yes"/>
      <point x="235" y="462"/>
      <point x="234" y="606"/>
      <point x="233" y="636" type="curve" smooth="yes"/>
      <point x="233" y="640"/>
      <point x="229" y="642"/>
      <point x="224" y="642" type="curve" smooth="yes"/>
      <point x="200" y="642"/>
      <point x="121" y="639"/>
      <point x="10" y="635" type="curve"/>
      <point x="2" y="642" type="line"/>
      <point x="2" y="690" type="line"/>
      <point x="9" y="697" type="line"/>
      <point x="104" y="694"/>
      <point x="104" y="686"/>
      <point x="281" y="686" type="curve" smooth="yes"/>
      <point x="356" y="686"/>
      <point x="455" y="692"/>
      <point x="543" y="696" type="curve"/>
    </contour>
  </outline>
</glyph>
<glyph name="W" format="2">
  <advance width="1050"/>
  <unicode hex="0057"/>
  <outline>
    <contour>
      <point x="965" y="675" type="curve"/>
      <point x="1046" y="689" type="line"/>
      <point x="1046" y="668" type="line"/>
      <point x="931" y="480" type="line" smooth="yes"/>
      <point x="884" y="403"/>
      <point x="768" y="173"/>
      <point x="703" y="16" type="curve"/>
      <point x="643" y="-11" type="line"/>
      <point x="631" y="-3" type="line"/>
      <point x="599" y="178"/>
      <point x="562" y="357"/>
      <point x="522" y="536" type="curve" smooth="yes"/>
      <point x="521" y="541"/>
      <point x="520" y="548"/>
      <point x="515" y="548" type="curve" smooth="yes"/>
      <point x="512" y="548"/>
      <point x="508" y="541"/>
      <point x="506" y="536" type="curve" smooth="yes"/>
      <point x="478" y="473" type="line" smooth="yes"/>
      <point x="424" y="352"/>
      <point x="343" y="173"/>
      <point x="296" y="18" type="curve"/>
      <point x="232" y="-11" type="line"/>
      <point x="221" y="-6" type="line"/>
      <point x="198" y="122"/>
      <point x="173" y="249"/>
      <point x="143" y="375" type="curve" smooth="yes"/>
      <point x="123" y="456"/>
      <point x="103" y="537"/>
      <point x="73" y="614" type="curve" smooth="yes"/>
      <point x="62" y="642"/>
      <point x="32" y="649"/>
      <point x="1" y="655" type="curve"/>
      <point x="-1" y="679" type="line"/>
      <point x="7" y="686" type="line"/>
      <point x="163" y="689" type="line"/>
      <point x="178" y="608"/>
      <point x="237" y="338"/>
      <point x="276" y="163" type="curve" smooth="yes"/>
      <point x="277" y="158"/>
      <point x="281" y="157"/>
      <point x="283" y="157" type="curve" smooth="yes"/>
      <point x="286" y="157"/>
      <point x="289" y="159"/>
      <point x="290" y="161" type="curve" smooth="yes"/>
      <point x="332" y="244"/>
      <point x="464" y="535"/>
      <point x="509" y="661" type="curve"/>
      <point x="585" y="690" type="line"/>
      <point x="592" y="684" type="line"/>
      <point x="592" y="622"/>
      <point x="623" y="471"/>
      <point x="654" y="325" type="curve" smooth="yes"/>
      <point x="666" y="270"/>
      <point x="685" y="139"/>
      <point x="703" y="139" type="curve" smooth="yes"/>
      <point x="712" y="139"/>
      <point x="714" y="143"/>
      <point x="716" y="146" type="curve"/>
      <point x="796" y="316" type="line"/>
      <point x="905" y="558" type="line" smooth="yes"/>
      <point x="926" y="604"/>
      <point x="948" y="643"/>
    </contour>
  </outline>
</glyph>
<glyph name="X" format="2">
  <advance width="624"/>
  <unicode hex="0058"/>
  <outline>
    <contour>
      <point x="612" y="672" type="line"/>
      <point x="425" y="466" type="line" smooth="yes"/>
      <point x="395" y="431"/>
      <point x="362" y="387"/>
      <point x="358" y="380" type="curve"/>
      <point x="359" y="368"/>
      <point x="474" y="179"/>
      <point x="514" y="131" type="curve" smooth="yes"/>
      <point x="574" y="59" type="line"/>
      <point x="581" y="52"/>
      <point x="603" y="38"/>
      <point x="611" y="36" type="curve"/>
      <point x="616" y="32" type="line"/>
      <point x="616" y="16" type="line"/>
      <point x="506" y="-11" type="line"/>
      <point x="492" y="-5" type="line"/>
      <point x="474" y="13"/>
      <point x="459" y="35"/>
      <point x="446" y="57" type="curve" smooth="yes"/>
      <point x="303" y="296" type="line"/>
      <point x="291" y="296" type="line"/>
      <point x="248" y="244"/>
      <point x="137" y="87"/>
      <point x="101" y="11" type="curve"/>
      <point x="7" y="0" type="line"/>
      <point x="7" y="16" type="line"/>
      <point x="278" y="345" type="line"/>
      <point x="273" y="345"/>
      <point x="180" y="508"/>
      <point x="133" y="590" type="curve" smooth="yes"/>
      <point x="111" y="628"/>
      <point x="69" y="638"/>
      <point x="28" y="649" type="curve"/>
      <point x="28" y="674" type="line"/>
      <point x="35" y="680" type="line"/>
      <point x="60" y="681"/>
      <point x="136" y="685"/>
      <point x="181" y="688" type="curve"/>
      <point x="328" y="422" type="line"/>
      <point x="337" y="422" type="line"/>
      <point x="370" y="455"/>
      <point x="508" y="653"/>
      <point x="517" y="674" type="curve"/>
      <point x="612" y="687" type="line"/>
    </contour>
  </outline>
</glyph>
<glyph name="Y" format="2">
  <advance width="592"/>
  <unicode hex="0059"/>
  <anchor x="296" y="0" name="bottom"/>
  <anchor x="336" y="683" name="top"/>
  <outline>
    <contour>
      <point x="234" y="98"/>
      <point x="234" y="199"/>
      <point x="234" y="299" type="curve"/>
      <point x="85" y="594" type="line" smooth="yes"/>
      <point x="62" y="639"/>
      <point x="39" y="645"/>
      <point x="-1" y="651" type="curve"/>
      <point x="-1" y="679" type="line"/>
      <point x="6" y="686" type="line"/>
      <point x="151" y="686" type="line"/>
      <point x="292" y="361" type="line"/>
      <point x="293" y="359"/>
      <point x="298" y="353"/>
      <point x="304" y="353" type="curve" smooth="yes"/>
      <point x="309" y="353"/>
      <point x="344" y="406"/>
      <point x="374" y="460" type="curve" smooth="yes"/>
      <point x="382" y="474"/>
      <point x="466" y="619"/>
      <point x="502" y="676" type="curve"/>
      <point x="587" y="693" type="line"/>
      <point x="591" y="675" type="line"/>
      <point x="480" y="530"/>
      <point x="406" y="434"/>
      <point x="323" y="306" type="curve"/>
      <point x="332" y="18" type="line"/>
      <point x="242" y="-11" type="line"/>
      <point x="231" y="-2" type="line"/>
    </contour>
  </outline>
</glyph>
<glyph name="Z" format="2">
  <advance width="603"/>
  <unicode hex="005A"/>
  <outline>
    <contour>
      <point x="552" y="664" type="line"/>
      <point x="417" y="471"/>
      <point x="243" y="200"/>
      <point x="153" y="61" type="curve"/>
      <point x="159" y="68" type="line"/>
      <point x="588" y="68" type="line"/>
      <point x="597" y="59" type="line"/>
      <point x="579" y="-12" type="line"/>
      <point x="450" y="0"/>
      <point x="196" y="0"/>
      <point x="4" y="0" type="curve"/>
      <point x="3" y="21" type="line"/>
      <point x="427" y="627" type="line"/>
      <point x="420" y="637" type="line"/>
      <point x="233" y="637"/>
      <point x="131" y="631"/>
      <point x="104" y="628" type="curve"/>
      <point x="98" y="633" type="line"/>
      <point x="98" y="687" type="line"/>
      <point x="107" y="695" type="line"/>
      <point x="255" y="686"/>
      <point x="403" y="683"/>
      <point x="552" y="683" type="curve"/>
    </contour>
  </outline>
</glyph>
<glyph name="underscore" format="2">
  <advance width="756"/>
  <unicode hex="005F"/>
  <outline>
    <contour>
      <point x="756" y="-114" type="line"/>
      <point x="0" y="-114" type="line"/>
      <point x="0" y="-74" type="line"/>
      <point x="756" y="-74" type="line"/>
    </contour>
  </outline>
</glyph>
<glyph name="a" format="2">
  <advance width="548"/>
  <unicode hex="0061"/>
  <anchor x="274" y="0" name="bottom"/>
  <anchor x="274" y="500" name="top"/>
  <outline>
    <contour>
      <point x="310" y="466"/>
      <point x="353" y="454"/>
      <point x="385" y="431" type="curve"/>
      <point x="438" y="462" type="line"/>
      <point x="443" y="457" type="line"/>
      <point x="439" y="384"/>
      <point x="437" y="312"/>
      <point x="437" y="239" type="curve" smooth="yes"/>
      <point x="437" y="177"/>
      <point x="422" y="52"/>
      <point x="476" y="52" type="curve" smooth="yes"/>
      <point x="490" y="52"/>
      <point x="520" y="62"/>
      <point x="541" y="70" type="curve"/>
      <point x="548" y="46" type="line"/>
      <point x="508" y="22"/>
      <point x="454" y="-12"/>
      <point x="422" y="-12" type="curve" smooth="yes"/>
      <point x="385" y="-12"/>
      <point x="371" y="13"/>
      <point x="365" y="47" type="curve"/>
      <point x="350" y="51" type="line"/>
      <point x="301" y="19"/>
      <point x="245" y="-12"/>
      <point x="187" y="-12" type="curve" smooth="yes"/>
      <point x="76" y="-12"/>
      <point x="40" y="95"/>
      <point x="40" y="185" type="curve" smooth="yes"/>
      <point x="40" y="326"/>
      <point x="108" y="466"/>
      <point x="278" y="466" type="curve" smooth="yes"/>
    </contour>
    <contour>
      <point x="296" y="54"/>
      <point x="333" y="76"/>
      <point x="363" y="99" type="curve"/>
      <point x="363" y="329" type="line" smooth="yes"/>
      <point x="363" y="355"/>
      <point x="363" y="381"/>
      <point x="347" y="398" type="curve" smooth="yes"/>
      <point x="329" y="417"/>
      <point x="304" y="431"/>
      <point x="279" y="431" type="curve" smooth="yes"/>
      <point x="243" y="431"/>
      <point x="210" y="418"/>
      <point x="184" y="393" type="curve" smooth="yes"/>
      <point x="161" y="371"/>
      <point x="132" y="316"/>
      <point x="130" y="215" type="curve" smooth="yes"/>
      <point x="129" y="173"/>
      <point x="135" y="130"/>
      <point x="158" y="95" type="curve" smooth="yes"/>
      <point x="179" y="62"/>
      <point x="220" y="54"/>
      <point x="257" y="54" type="curve" smooth="yes"/>
    </contour>
  </outline>
</glyph>
<glyph name="j" format="2">
  <advance width="291"/>
  <unicode hex="006A"/>
  <outline>
    <contour>
      <point x="18" y="375" type="curve"/>
      <point x="5" y="393" type="line"/>
      <point x="46" y="425"/>
      <point x="103" y="468"/>
      <point x="146" y="468" type="curve" smooth="yes"/>
      <point x="194" y="468"/>
      <point x="204" y="434"/>
      <point x="207" y="401" type="curve"/>
      <point x="214" y="358"/>
      <point x="214" y="191"/>
      <point x="214" y="154" type="curve" smooth="yes"/>
      <point x="214" y="134"/>
      <point x="214" y="-6"/>
      <point x="202" y="-41" type="curve" smooth="yes"/>
      <point x="172" y="-128"/>
      <point x="96" y="-188"/>
      <point x="6" y="-231" type="curve"/>
      <point x="-10" y="-215" type="line"/>
      <point x="64" y="-171"/>
      <point x="104" y="-126"/>
      <point x="118" y="-76" type="curve" smooth="yes"/>
      <point x="135" y="-14"/>
      <point x="138" y="110"/>
      <point x="138" y="154" type="curve" smooth="yes"/>
      <point x="138" y="396"/>
      <point x="130" y="408"/>
      <point x="94" y="408" type="curve" smooth="yes"/>
      <point x="78" y="408"/>
      <point x="43" y="388"/>
    </contour>
    <contour>
      <point x="159" y="683" type="curve" smooth="yes"/>
      <point x="189" y="683"/>
      <point x="217" y="661"/>
      <point x="217" y="629" type="curve" smooth="yes"/>
      <point x="217" y="595"/>
      <point x="191" y="565"/>
      <point x="156" y="565" type="curve" smooth="yes"/>
      <point x="123" y="565"/>
      <point x="100" y="593"/>
      <point x="100" y="625" type="curve" smooth="yes"/>
      <point x="100" y="657"/>
      <point x="127" y="683"/>
    </contour>
  </outline>
</glyph>
<glyph name="n" format="2">
  <advance width="631"/>
  <unicode hex="006E"/>
  <anchor x="317" y="0" name="bottom"/>
  <anchor x="317" y="462" name="top"/>
  <outline>
    <contour>
      <point x="195" y="18" type="curve"/>
      <point x="125" y="-6" type="line"/>
      <point x="110" y="1" type="line"/>
      <point x="112" y="52"/>
      <point x="119" y="217"/>
      <point x="119" y="298" type="curve" smooth="yes"/>
      <point x="119" y="365"/>
      <point x="115" y="413"/>
      <point x="82" y="413" type="curve" smooth="yes"/>
      <point x="61" y="413"/>
      <point x="36" y="397"/>
      <point x="7" y="378" type="curve"/>
      <point x="-10" y="400" type="line"/>
      <point x="31" y="430"/>
      <point x="88" y="471"/>
      <point x="125" y="471" type="curve" smooth="yes"/>
      <point x="175" y="471"/>
      <point x="191" y="440"/>
      <point x="197" y="403" type="curve"/>
      <point x="205" y="397" type="line"/>
      <point x="261" y="431"/>
      <point x="330" y="469"/>
      <point x="394" y="469" type="curve" smooth="yes"/>
      <point x="423" y="469"/>
      <point x="452" y="462"/>
      <point x="471" y="440" type="curve" smooth="yes"/>
      <point x="491" y="416"/>
      <point x="491" y="320"/>
      <point x="491" y="256" type="curve" smooth="yes"/>
      <point x="491" y="105"/>
      <point x="484" y="60"/>
      <point x="539" y="60" type="curve" smooth="yes"/>
      <point x="562" y="60"/>
      <point x="594" y="81"/>
      <point x="619" y="100" type="curve"/>
      <point x="632" y="100" type="line"/>
      <point x="641" y="79" type="line"/>
      <point x="595" y="34"/>
      <point x="532" y="-10"/>
      <point x="484" y="-10" type="curve" smooth="yes"/>
      <point x="429" y="-10"/>
      <point x="412" y="30"/>
      <point x="412" y="78" type="curve" smooth="yes"/>
      <point x="417" y="249" type="line" smooth="yes"/>
      <point x="417" y="349"/>
      <point x="398" y="410"/>
      <point x="327" y="410" type="curve" smooth="yes"/>
      <point x="281" y="410"/>
      <point x="234" y="378"/>
      <point x="198" y="349" type="curve"/>
      <point x="195" y="277"/>
      <point x="192" y="189"/>
      <point x="192" y="116" type="curve" smooth="yes"/>
      <point x="192" y="88"/>
      <point x="193" y="58"/>
    </contour>
  </outline>
</glyph>
<glyph name="u" format="2">
  <advance width="638"/>
  <unicode hex="0075"/>
  <anchor x="319" y="0" name="bottom"/>
  <anchor x="319" y="462" name="top"/>
  <outline>
    <contour>
      <point x="635" y="105" type="line"/>
      <point x="646" y="86" type="line"/>
      <point x="599" y="45"/>
      <point x="536" y="-8"/>
      <point x="485" y="-8" type="curve" smooth="yes"/>
      <point x="439" y="-8"/>
      <point x="420" y="22"/>
      <point x="416" y="64" type="curve"/>
      <point x="408" y="65" type="line"/>
      <point x="352" y="31"/>
      <point x="279" y="-10"/>
      <point x="220" y="-10" type="curve" smooth="yes"/>
      <point x="134" y="-10"/>
      <point x="115" y="56"/>
      <point x="115" y="112" type="curve" smooth="yes"/>
      <point x="115" y="145"/>
      <point x="119" y="246"/>
      <point x="119" y="275" type="curve" smooth="yes"/>
      <point x="119" y="366"/>
      <point x="115" y="382"/>
      <point x="102" y="396" type="curve" smooth="yes"/>
      <point x="96" y="403"/>
      <point x="86" y="405"/>
      <point x="74" y="405" type="curve" smooth="yes"/>
      <point x="60" y="405"/>
      <point x="26" y="388"/>
      <point x="3" y="375" type="curve"/>
      <point x="-10" y="395" type="line"/>
      <point x="29" y="425"/>
      <point x="84" y="468"/>
      <point x="126" y="468" type="curve" smooth="yes"/>
      <point x="201" y="468"/>
      <point x="192" y="413"/>
      <point x="192" y="244" type="curve" smooth="yes"/>
      <point x="192" y="142"/>
      <point x="190" y="51"/>
      <point x="282" y="51" type="curve" smooth="yes"/>
      <point x="327" y="51"/>
      <point x="374" y="80"/>
      <point x="413" y="104" type="curve"/>
      <point x="413" y="169"/>
      <point x="414" y="258"/>
      <point x="414" y="329" type="curve" smooth="yes"/>
      <point x="414" y="375"/>
      <point x="414" y="414"/>
      <point x="413" y="435" type="curve"/>
      <point x="490" y="470" type="line"/>
      <point x="503" y="459" type="line"/>
      <point x="495" y="366"/>
      <point x="491" y="273"/>
      <point x="491" y="181" type="curve" smooth="yes"/>
      <point x="491" y="120"/>
      <point x="491" y="65"/>
      <point x="540" y="65" type="curve" smooth="yes"/>
      <point x="567" y="65"/>
      <point x="601" y="88"/>
      <point x="627" y="107" type="curve"/>
    </contour>
  </outline>
</glyph>
<glyph name="z" format="2">
  <advance width="463"/>
  <unicode hex="007A"/>
  <outline>
    <contour>
      <point x="402" y="462" type="curve"/>
      <point x="408" y="462" type="line"/>
      <point x="422" y="449" type="line"/>
      <point x="339" y="361"/>
      <point x="231" y="228"/>
      <point x="132" y="94" type="curve"/>
      <point x="137" y="86" type="line"/>
      <point x="235" y="76"/>
      <point x="333" y="73"/>
      <point x="342" y="73" type="curve" smooth="yes"/>
      <point x="399" y="73"/>
      <point x="428" y="115"/>
      <point x="451" y="151" type="curve"/>
      <point x="473" y="139" type="line"/>
      <point x="432" y="59" type="line" smooth="yes"/>
      <point x="412" y="19"/>
      <point x="385" y="-9"/>
      <point x="335" y="-8" type="curve"/>
      <point x="324" y="-9"/>
      <point x="249" y="1"/>
      <point x="206" y="5" type="curve" smooth="yes"/>
      <point x="89" y="16" type="line"/>
      <point x="65" y="16"/>
      <point x="43" y="-4"/>
      <point x="27" y="-27" type="curve"/>
      <point x="21" y="-27" type="line"/>
      <point x="6" y="-8" type="line"/>
      <point x="301" y="373" type="line"/>
      <point x="291" y="371"/>
      <point x="282" y="371"/>
      <point x="271" y="371" type="curve" smooth="yes"/>
      <point x="238" y="371"/>
      <point x="187" y="390"/>
      <point x="151" y="390" type="curve" smooth="yes"/>
      <point x="114" y="390"/>
      <point x="93" y="362"/>
      <point x="62" y="319" type="curve"/>
      <point x="42" y="332" type="line"/>
      <point x="92" y="421" type="line"/>
      <point x="112" y="452"/>
      <point x="125" y="462"/>
      <point x="154" y="462" type="curve" smooth="yes"/>
      <point x="205" y="462"/>
      <point x="273" y="431"/>
      <point x="329" y="431" type="curve" smooth="yes"/>
      <point x="358" y="431"/>
      <point x="381" y="445"/>
    </contour>
  </outline>
</glyph>
<glyph name="braceleft" format="2">
  <advance width="313"/>
  <unicode hex="007B"/>
  <outline>
    <contour>
      <point x="303" y="-154" type="curve"/>
      <point x="303" y="-178" type="line"/>
      <point x="264" y="-178"/>
      <point x="211" y="-178"/>
      <point x="187" y="-172" type="curve" smooth="yes"/>
      <point x="112" y="-152"/>
      <point x="120" y="-67"/>
      <point x="120" y="34" type="curve" smooth="yes"/>
      <point x="120" y="103"/>
      <point x="120" y="208"/>
      <point x="95" y="236" type="curve" smooth="yes"/>
      <point x="76" y="257"/>
      <point x="39" y="259"/>
      <point x="8" y="259" type="curve"/>
      <point x="8" y="285" type="line"/>
      <point x="47" y="285"/>
      <point x="71" y="286"/>
      <point x="93" y="305" type="curve" smooth="yes"/>
      <point x="125" y="333"/>
      <point x="119" y="421"/>
      <point x="119" y="514" type="curve" smooth="yes"/>
      <point x="119" y="729"/>
      <point x="143" y="730"/>
      <point x="303" y="730" type="curve"/>
      <point x="303" y="706" type="line"/>
      <point x="274" y="706"/>
      <point x="243" y="705"/>
      <point x="216" y="698" type="curve" smooth="yes"/>
      <point x="166" y="685"/>
      <point x="170" y="584"/>
      <point x="170" y="518" type="curve" smooth="yes"/>
      <point x="170" y="385"/>
      <point x="149" y="297"/>
      <point x="85" y="274" type="curve"/>
      <point x="85" y="273" type="line"/>
      <point x="177" y="241"/>
      <point x="170" y="121"/>
      <point x="170" y="30" type="curve" smooth="yes"/>
      <point x="170" y="-152"/>
      <point x="206" y="-154"/>
    </contour>
  </outline>
</glyph>
<glyph name="exclamdown" format="2">
  <advance width="216"/>
  <unicode hex="00A1"/>
  <outline>
    <contour>
      <point x="54" y="442" type="curve" smooth="yes"/>
      <point x="54" y="411"/>
      <point x="80" y="385"/>
      <point x="112" y="385" type="curve" smooth="yes"/>
      <point x="143" y="385"/>
      <point x="168" y="411"/>
      <point x="168" y="442" type="curve" smooth="yes"/>
      <point x="168" y="473"/>
      <point x="143" y="499"/>
      <point x="112" y="499" type="curve" smooth="yes"/>
      <point x="80" y="499"/>
      <point x="54" y="473"/>
    </contour>
    <contour>
      <point x="96" y="304" type="line"/>
      <point x="69" y="-79" type="line" smooth="yes"/>
      <point x="68" y="-98"/>
      <point x="65" y="-120"/>
      <point x="66" y="-137" type="curve"/>
      <point x="66" y="-188"/>
      <point x="84" y="-202"/>
      <point x="116" y="-202" type="curve" smooth="yes"/>
      <point x="146" y="-202"/>
      <point x="153" y="-176"/>
      <point x="153" y="-156" type="curve" smooth="yes"/>
      <point x="153" y="-127"/>
      <point x="151" y="-98"/>
      <point x="148" y="-69" type="curve" smooth="yes"/>
      <point x="112" y="302" type="line"/>
    </contour>
  </outline>
</glyph>
<glyph name="currency" format="2">
  <advance width="590"/>
  <unicode hex="00A4"/>
  <outline>
    <contour>
      <point x="122" y="531" type="line"/>
      <point x="170" y="483" type="line"/>
      <point x="207" y="511"/>
      <point x="247" y="524"/>
      <point x="295" y="524" type="curve" smooth="yes"/>
      <point x="343" y="524"/>
      <point x="382" y="511"/>
      <point x="420" y="483" type="curve"/>
      <point x="468" y="531" type="line"/>
      <point x="515" y="484" type="line"/>
      <point x="466" y="435" type="line"/>
      <point x="496" y="401"/>
      <point x="508" y="365"/>
      <point x="508" y="313" type="curve" smooth="yes"/>
      <point x="508" y="263"/>
      <point x="496" y="228"/>
      <point x="466" y="190" type="curve"/>
      <point x="515" y="141" type="line"/>
      <point x="470" y="96" type="line"/>
      <point x="422" y="144" type="line"/>
      <point x="385" y="114"/>
      <point x="348" y="102"/>
      <point x="295" y="102" type="curve" smooth="yes"/>
      <point x="242" y="102"/>
      <point x="205" y="114"/>
      <point x="168" y="144" type="curve"/>
      <point x="120" y="96" type="line"/>
      <point x="75" y="141" type="line"/>
      <point x="124" y="190" type="line"/>
      <point x="94" y="228"/>
      <point x="82" y="263"/>
      <point x="82" y="313" type="curve" smooth="yes"/>
      <point x="82" y="365"/>
      <point x="94" y="401"/>
      <point x="124" y="435" type="curve"/>
      <point x="75" y="484" type="line"/>
    </contour>
    <contour>
      <point x="298" y="465" type="curve" smooth="yes"/>
      <point x="211" y="465"/>
      <point x="141" y="397"/>
      <point x="141" y="314" type="curve" smooth="yes"/>
      <point x="141" y="229"/>
      <point x="210" y="161"/>
      <point x="295" y="161" type="curve" smooth="yes"/>
      <point x="380" y="161"/>
      <point x="449" y="229"/>
      <point x="449" y="313" type="curve" smooth="yes"/>
      <point x="449" y="395"/>
      <point x="379" y="465"/>
    </contour>
  </outline>
</glyph>
<glyph name="brokenbar" format="2">
  <advance width="208"/>
  <unicode hex="00A6"/>
  <outline>
    <contour>
      <point x="124" y="335" type="line"/>
      <point x="84" y="327" type="line"/>
      <point x="84" y="730" type="line"/>
      <point x="124" y="738" type="line"/>
    </contour>
    <contour>
      <point x="124" y="-159" type="line"/>
      <point x="84" y="-167" type="line"/>
      <point x="84" y="236" type="line"/>
      <point x="124" y="244" type="line"/>
    </contour>
  </outline>
</glyph>
<glyph name="section" format="2">
  <advance width="465"/>
  <unicode hex="00A7"/>
  <outline>
    <contour>
      <point x="364" y="166" type="curve"/>
      <point x="367" y="170" type="line" smooth="yes"/>
      <point x="380" y="188"/>
      <point x="385" y="210"/>
      <point x="385" y="232" type="curve" smooth="yes"/>
      <point x="385" y="261"/>
      <point x="369" y="285"/>
      <point x="349" y="305" type="curve" smooth="yes"/>
      <point x="298" y="358"/>
      <point x="154" y="386"/>
      <point x="113" y="442" type="curve"/>
      <point x="99" y="424"/>
      <point x="89" y="397"/>
      <point x="89" y="373" type="curve" smooth="yes"/>
      <point x="89" y="265"/>
      <point x="300" y="232"/>
    </contour>
    <contour>
      <point x="35" y="23" type="curve"/>
      <point x="105" y="50" type="line"/>
      <point x="113" y="45" type="line"/>
      <point x="115" y="-23"/>
      <point x="160" y="-81"/>
      <point x="231" y="-81" type="curve" smooth="yes"/>
      <point x="293" y="-81"/>
      <point x="336" y="-21"/>
      <point x="336" y="48" type="curve" smooth="yes"/>
      <point x="336" y="110"/>
      <point x="276" y="136"/>
      <point x="194" y="176" type="curve" smooth="yes"/>
      <point x="108" y="214"/>
      <point x="50" y="252"/>
      <point x="50" y="338" type="curve" smooth="yes"/>
      <point x="50" y="384"/>
      <point x="72" y="426"/>
      <point x="98" y="464" type="curve"/>
      <point x="92" y="484"/>
      <point x="88" y="504"/>
      <point x="88" y="525" type="curve" smooth="yes"/>
      <point x="88" y="622"/>
      <point x="156" y="701"/>
      <point x="258" y="701" type="curve" smooth="yes"/>
      <point x="307" y="701"/>
      <point x="376" y="683"/>
      <point x="376" y="622" type="curve" smooth="yes"/>
      <point x="376" y="615"/>
      <point x="372" y="597"/>
      <point x="370" y="585" type="curve"/>
      <point x="311" y="564" type="line"/>
      <point x="296" y="575" type="line"/>
      <point x="296" y="635"/>
      <point x="272" y="671"/>
      <point x="228" y="671" type="curve" smooth="yes"/>
      <point x="177" y="671"/>
      <point x="145" y="619"/>
      <point x="145" y="561" type="curve" smooth="yes"/>
      <point x="145" y="487"/>
      <point x="205" y="474"/>
      <point x="280" y="431" type="curve" smooth="yes"/>
      <point x="343" y="395"/>
      <point x="430" y="371"/>
      <point x="430" y="285" type="curve" smooth="yes"/>
      <point x="430" y="234"/>
      <point x="411" y="186"/>
      <point x="378" y="149" type="curve"/>
      <point x="391" y="128"/>
      <point x="396" y="101"/>
      <point x="396" y="75" type="curve" smooth="yes"/>
      <point x="396" y="-24"/>
      <point x="315" y="-107"/>
      <point x="216" y="-107" type="curve" smooth="yes"/>
      <point x="135" y="-107"/>
      <point x="44" y="-76"/>
    </contour>
  </outline>
</glyph>
<glyph name="copyright" format="2">
  <advance width="632"/>
  <unicode hex="00A9"/>
  <outline>
    <contour>
      <point x="45" y="437" type="curve" smooth="yes"/>
      <point x="45" y="587"/>
      <point x="166" y="708"/>
      <point x="316" y="708" type="curve" smooth="yes"/>
      <point x="466" y="708"/>
      <point x="587" y="587"/>
      <point x="587" y="437" type="curve" smooth="yes"/>
      <point x="587" y="287"/>
      <point x="466" y="166"/>
      <point x="316" y="166" type="curve" smooth="yes"/>
      <point x="166" y="166"/>
      <point x="45" y="287"/>
    </contour>
    <contour>
      <point x="70" y="437" type="curve" smooth="yes"/>
      <point x="70" y="301"/>
      <point x="180" y="191"/>
      <point x="316" y="191" type="curve" smooth="yes"/>
      <point x="452" y="191"/>
      <point x="562" y="301"/>
      <point x="562" y="437" type="curve" smooth="yes"/>
      <point x="562" y="573"/>
      <point x="452" y="683"/>
      <point x="316" y="683" type="curve" smooth="yes"/>
      <point x="180" y="683"/>
      <point x="70" y="573"/>
    </contour>
    <contour>
      <point x="449" y="534" type="line"/>
      <point x="441" y="534" type="line"/>
      <point x="421" y="579"/>
      <point x="382" y="599"/>
      <point x="333" y="599" type="curve" smooth="yes"/>
      <point x="297" y="599"/>
      <point x="259" y="588"/>
      <point x="233" y="566" type="curve" smooth="yes"/>
      <point x="197" y="535"/>
      <point x="186" y="486"/>
      <point x="186" y="442" type="curve" smooth="yes"/>
      <point x="186" y="396"/>
      <point x="214" y="346"/>
      <point x="234" y="330" type="curve" smooth="yes"/>
      <point x="267" y="302"/>
      <point x="293" y="288"/>
      <point x="342" y="288" type="curve" smooth="yes"/>
      <point x="383" y="288"/>
      <point x="420" y="303"/>
      <point x="454" y="322" type="curve"/>
      <point x="464" y="308" type="line"/>
      <point x="421" y="284"/>
      <point x="373" y="262"/>
      <point x="321" y="262" type="curve" smooth="yes"/>
      <point x="273" y="262"/>
      <point x="224" y="272"/>
      <point x="190" y="300" type="curve" smooth="yes"/>
      <point x="148" y="335"/>
      <point x="132" y="384"/>
      <point x="132" y="433" type="curve" smooth="yes"/>
      <point x="132" y="481"/>
      <point x="145" y="530"/>
      <point x="187" y="565" type="curve" smooth="yes"/>
      <point x="231" y="601"/>
      <point x="291" y="619"/>
      <point x="354" y="619" type="curve" smooth="yes"/>
      <point x="406" y="619"/>
      <point x="452" y="605"/>
      <point x="483" y="563" type="curve"/>
    </contour>
  </outline>
</glyph>
<glyph name="logicalnot" format="2">
  <advance width="777"/>
  <unicode hex="00AC"/>
  <outline>
    <contour>
      <point x="660" y="409" type="line"/>
      <point x="660" y="206" type="line"/>
      <point x="620" y="206" type="line"/>
      <point x="620" y="369" type="line"/>
      <point x="57" y="369" type="line"/>
      <point x="57" y="409" type="line"/>
    </contour>
  </outline>
</glyph>
<glyph name="registered" format="2">
  <advance width="632"/>
  <unicode hex="00AE"/>
  <outline>
    <contour>
      <point x="45" y="437" type="curve" smooth="yes"/>
      <point x="45" y="587"/>
      <point x="166" y="708"/>
      <point x="316" y="708" type="curve" smooth="yes"/>
      <point x="466" y="708"/>
      <point x="587" y="587"/>
      <point x="587" y="437" type="curve" smooth="yes"/>
      <point x="587" y="287"/>
      <point x="466" y="166"/>
      <point x="316" y="166" type="curve" smooth="yes"/>
      <point x="166" y="166"/>
      <point x="45" y="287"/>
    </contour>
    <contour>
      <point x="70" y="437" type="curve" smooth="yes"/>
      <point x="70" y="301"/>
      <point x="180" y="191"/>
      <point x="316" y="191" type="curve" smooth="yes"/>
      <point x="452" y="191"/>
      <point x="562" y="301"/>
      <point x="562" y="437" type="curve" smooth="yes"/>
      <point x="562" y="573"/>
      <point x="452" y="683"/>
      <point x="316" y="683" type="curve" smooth="yes"/>
      <point x="180" y="683"/>
      <point x="70" y="573"/>
    </contour>
    <contour>
      <point x="262" y="455" type="curve" smooth="yes"/>
      <point x="262" y="452"/>
      <point x="264" y="448"/>
      <point x="268" y="448" type="curve" smooth="yes"/>
      <point x="334" y="448"/>
      <point x="398" y="472"/>
      <point x="398" y="532" type="curve" smooth="yes"/>
      <point x="398" y="582"/>
      <point x="341" y="590"/>
      <point x="297" y="590" type="curve" smooth="yes"/>
      <point x="273" y="590" type="line" smooth="yes"/>
      <point x="268" y="590"/>
      <point x="266" y="587"/>
      <point x="266" y="577" type="curve"/>
      <point x="264" y="545"/>
      <point x="262" y="457"/>
    </contour>
    <contour>
      <point x="327" y="436" type="curve"/>
      <point x="326" y="432" type="line"/>
      <point x="484" y="284" type="line"/>
      <point x="484" y="279" type="line"/>
      <point x="424" y="266" type="line"/>
      <point x="368" y="326"/>
      <point x="293" y="408"/>
      <point x="275" y="422" type="curve"/>
      <point x="271" y="424"/>
      <point x="267" y="426"/>
      <point x="263" y="426" type="curve"/>
      <point x="263" y="378"/>
      <point x="263" y="330"/>
      <point x="266" y="282" type="curve"/>
      <point x="216" y="267" type="line"/>
      <point x="210" y="272" type="line"/>
      <point x="215" y="344"/>
      <point x="215" y="418"/>
      <point x="215" y="490" type="curve" smooth="yes"/>
      <point x="215" y="498"/>
      <point x="213" y="548"/>
      <point x="213" y="576" type="curve" smooth="yes"/>
      <point x="213" y="592"/>
      <point x="172" y="598"/>
      <point x="167" y="598" type="curve"/>
      <point x="168" y="606" type="line"/>
      <point x="172" y="610" type="line"/>
      <point x="334" y="610" type="line" smooth="yes"/>
      <point x="404" y="610"/>
      <point x="456" y="588"/>
      <point x="456" y="540" type="curve" smooth="yes"/>
      <point x="456" y="470"/>
      <point x="399" y="442"/>
    </contour>
  </outline>
</glyph>
<glyph name="plusminus" format="2">
  <advance width="763"/>
  <unicode hex="00B1"/>
  <outline>
    <contour>
      <point x="399" y="276" type="line"/>
      <point x="712" y="276" type="line"/>
      <point x="707" y="236" type="line"/>
      <point x="399" y="236" type="line"/>
      <point x="399" y="-67" type="line"/>
      <point x="359" y="-74" type="line"/>
      <point x="359" y="236" type="line"/>
      <point x="49" y="236" type="line"/>
      <point x="56" y="276" type="line"/>
      <point x="359" y="276" type="line"/>
      <point x="359" y="580" type="line"/>
      <point x="399" y="586" type="line"/>
    </contour>
    <contour>
      <point x="707" y="-75" type="line"/>
      <point x="49" y="-75" type="line"/>
      <point x="56" y="-35" type="line"/>
      <point x="713" y="-35" type="line"/>
    </contour>
  </outline>
</glyph>
<glyph name="mu" format="2">
  <advance width="682"/>
  <unicode hex="00B5"/>
  <outline>
    <contour>
      <point x="492" y="466" type="line"/>
      <point x="500" y="455" type="line"/>
      <point x="497" y="414"/>
      <point x="494" y="363"/>
      <point x="494" y="332" type="curve" smooth="yes"/>
      <point x="494" y="165" type="line" smooth="yes"/>
      <point x="494" y="131"/>
      <point x="499" y="66"/>
      <point x="546" y="66" type="curve" smooth="yes"/>
      <point x="569" y="66"/>
      <point x="599" y="84"/>
      <point x="623" y="99" type="curve"/>
      <point x="634" y="97" type="line"/>
      <point x="642" y="83" type="line"/>
      <point x="601" y="45"/>
      <point x="545" y="-1"/>
      <point x="490" y="-1" type="curve" smooth="yes"/>
      <point x="438" y="-1"/>
      <point x="427" y="27"/>
      <point x="421" y="68" type="curve"/>
      <point x="413" y="73" type="line"/>
      <point x="355" y="40"/>
      <point x="279" y="-3"/>
      <point x="230" y="-3" type="curve" smooth="yes"/>
      <point x="198" y="-3"/>
      <point x="185" y="7"/>
      <point x="168" y="27" type="curve"/>
      <point x="162" y="25" type="line"/>
      <point x="162" y="-41"/>
      <point x="168" y="-116"/>
      <point x="181" y="-179" type="curve"/>
      <point x="128" y="-199" type="line"/>
      <point x="116" y="-193" type="line"/>
      <point x="118" y="-101"/>
      <point x="120" y="-9"/>
      <point x="120" y="83" type="curve" smooth="yes"/>
      <point x="120" y="272" type="line" smooth="yes"/>
      <point x="120" y="327"/>
      <point x="107" y="412"/>
      <point x="103" y="436" type="curve"/>
      <point x="186" y="462" type="line"/>
      <point x="195" y="455" type="line"/>
      <point x="195" y="186" type="line" smooth="yes"/>
      <point x="195" y="130"/>
      <point x="203" y="57"/>
      <point x="288" y="57" type="curve" smooth="yes"/>
      <point x="324" y="57"/>
      <point x="380" y="81"/>
      <point x="416" y="120" type="curve"/>
      <point x="417" y="168"/>
      <point x="419" y="241"/>
      <point x="419" y="262" type="curve" smooth="yes"/>
      <point x="419" y="320"/>
      <point x="417" y="377"/>
      <point x="415" y="434" type="curve"/>
    </contour>
  </outline>
</glyph>
<glyph name="paragraph" format="2">
  <advance width="453"/>
  <unicode hex="00B6"/>
  <outline>
    <contour>
      <point x="294" y="13" type="curve"/>
      <point x="356" y="-6" type="line"/>
      <point x="363" y="1" type="line"/>
      <point x="361" y="141"/>
      <point x="356" y="282"/>
      <point x="356" y="423" type="curve" smooth="yes"/>
      <point x="356" y="482"/>
      <point x="358" y="541"/>
      <point x="361" y="600" type="curve" smooth="yes"/>
      <point x="364" y="640"/>
      <point x="397" y="649"/>
      <point x="435" y="654" type="curve"/>
      <point x="435" y="672" type="line"/>
      <point x="428" y="679" type="line"/>
      <point x="278" y="682" type="line" smooth="yes"/>
      <point x="130" y="685"/>
      <point x="35" y="590"/>
      <point x="29" y="484" type="curve" smooth="yes"/>
      <point x="25" y="400"/>
      <point x="77" y="303"/>
      <point x="205" y="293" type="curve" smooth="yes"/>
      <point x="234" y="291"/>
      <point x="301" y="293"/>
      <point x="301" y="274" type="curve" smooth="yes"/>
      <point x="301" y="249"/>
      <point x="295" y="114"/>
    </contour>
  </outline>
</glyph>
<glyph name="periodcentered" format="2">
  <advance width="272"/>
  <unicode hex="00B7"/>
  <outline>
    <contour>
      <point x="69" y="257" type="curve" smooth="yes"/>
      <point x="69" y="294"/>
      <point x="99" y="324"/>
      <point x="136" y="324" type="curve" smooth="yes"/>
      <point x="173" y="324"/>
      <point x="203" y="294"/>
      <point x="203" y="257" type="curve" smooth="yes"/>
      <point x="203" y="220"/>
      <point x="173" y="190"/>
      <point x="136" y="190" type="curve" smooth="yes"/>
      <point x="99" y="190"/>
      <point x="69" y="220"/>
    </contour>
  </outline>
</glyph>
<glyph name="guillemotright" format="2">
  <advance width="416"/>
  <unicode hex="00BB"/>
  <outline>
    <contour>
      <point x="252" y="238" type="line"/>
      <point x="60" y="426" type="line"/>
      <point x="29" y="380" type="line"/>
      <point x="178" y="234" type="line"/>
      <point x="28" y="64" type="line"/>
      <point x="42" y="36" type="line"/>
    </contour>
    <contour>
      <point x="404" y="238" type="line"/>
      <point x="212" y="426" type="line"/>
      <point x="181" y="380" type="line"/>
      <point x="330" y="234" type="line"/>
      <point x="180" y="64" type="line"/>
      <point x="194" y="36" type="line"/>
    </contour>
  </outline>
</glyph>
<glyph name="onequarter" format="2">
  <advance width="790"/>
  <unicode hex="00BC"/>
  <outline>
    <contour>
      <point x="668" y="420" type="line"/>
      <point x="674" y="417" type="line"/>
      <point x="673" y="401"/>
      <point x="672" y="237"/>
      <point x="672" y="144" type="curve"/>
      <point x="678" y="139" type="line"/>
      <point x="746" y="139" type="line"/>
      <point x="749" y="135" type="line"/>
      <point x="737" y="112" type="line"/>
      <point x="678" y="112" type="line"/>
      <point x="672" y="108" type="line"/>
      <point x="672" y="76"/>
      <point x="673" y="28"/>
      <point x="675" y="15" type="curve"/>
      <point x="617" y="-5" type="line"/>
      <point x="614" y="-2" type="line"/>
      <point x="618" y="19"/>
      <point x="617" y="69"/>
      <point x="617" y="107" type="curve"/>
      <point x="612" y="112" type="line"/>
      <point x="408" y="112" type="line"/>
      <point x="408" y="139" type="line"/>
      <point x="614" y="399" type="line"/>
    </contour>
    <contour>
      <point x="617" y="144" type="line"/>
      <point x="617" y="349" type="line" smooth="yes"/>
      <point x="617" y="353"/>
      <point x="616" y="354"/>
      <point x="614" y="354" type="curve" smooth="yes"/>
      <point x="612" y="354"/>
      <point x="611" y="353"/>
      <point x="610" y="352" type="curve" smooth="yes"/>
      <point x="585" y="329"/>
      <point x="564" y="301"/>
      <point x="543" y="274" type="curve" smooth="yes"/>
      <point x="516" y="239"/>
      <point x="456" y="156"/>
      <point x="455" y="143" type="curve"/>
      <point x="458" y="139" type="line"/>
      <point x="613" y="139" type="line"/>
    </contour>
    <contour>
      <point x="179" y="703" type="line"/>
      <point x="184" y="695" type="line"/>
      <point x="180" y="642"/>
      <point x="178" y="588"/>
      <point x="178" y="535" type="curve" smooth="yes"/>
      <point x="178" y="453"/>
      <point x="179" y="335"/>
      <point x="181" y="289" type="curve"/>
      <point x="120" y="272" type="line"/>
      <point x="112" y="275" type="line"/>
      <point x="116" y="358"/>
      <point x="117" y="443"/>
      <point x="117" y="527" type="curve" smooth="yes"/>
      <point x="117" y="594"/>
      <point x="127" y="643"/>
      <point x="83" y="643" type="curve" smooth="yes"/>
      <point x="23" y="643" type="line"/>
      <point x="23" y="659" type="line"/>
    </contour>
    <component base="fraction" xOffset="348"/>
  </outline>
</glyph>
<glyph name="threequarters" format="2">
  <advance width="790"/>
  <unicode hex="00BE"/>
  <outline>
    <contour>
      <point x="179" y="507" type="curve"/>
      <point x="179" y="502" type="line"/>
      <point x="273" y="495"/>
      <point x="326" y="466"/>
      <point x="326" y="407" type="curve" smooth="yes"/>
      <point x="326" y="325"/>
      <point x="232" y="268"/>
      <point x="136" y="268" type="curve" smooth="yes"/>
      <point x="95" y="268"/>
      <point x="55" y="280"/>
      <point x="23" y="301" type="curve"/>
      <point x="19" y="307" type="line"/>
      <point x="49" y="351" type="line"/>
      <point x="56" y="351" type="line"/>
      <point x="78" y="320"/>
      <point x="111" y="292"/>
      <point x="154" y="292" type="curve" smooth="yes"/>
      <point x="219" y="292"/>
      <point x="259" y="338"/>
      <point x="259" y="390" type="curve" smooth="yes"/>
      <point x="259" y="415"/>
      <point x="244" y="440"/>
      <point x="224" y="458" type="curve" smooth="yes"/>
      <point x="196" y="483"/>
      <point x="138" y="485"/>
      <point x="95" y="485" type="curve"/>
      <point x="96" y="501" type="line"/>
      <point x="182" y="518"/>
      <point x="233" y="547"/>
      <point x="233" y="602" type="curve" smooth="yes"/>
      <point x="233" y="641"/>
      <point x="196" y="661"/>
      <point x="155" y="661" type="curve" smooth="yes"/>
      <point x="126" y="661"/>
      <point x="94" y="644"/>
      <point x="67" y="630" type="curve"/>
      <point x="57" y="643" type="line"/>
      <point x="94" y="668"/>
      <point x="142" y="699"/>
      <point x="188" y="699" type="curve" smooth="yes"/>
      <point x="244" y="699"/>
      <point x="293" y="672"/>
      <point x="293" y="619" type="curve" smooth="yes"/>
      <point x="293" y="561"/>
      <point x="241" y="522"/>
    </contour>
    <contour>
      <point x="668" y="420" type="line"/>
      <point x="674" y="417" type="line"/>
      <point x="673" y="401"/>
      <point x="672" y="237"/>
      <point x="672" y="144" type="curve"/>
      <point x="678" y="139" type="line"/>
      <point x="746" y="139" type="line"/>
      <point x="749" y="135" type="line"/>
      <point x="737" y="112" type="line"/>
      <point x="678" y="112" type="line"/>
      <point x="672" y="108" type="line"/>
      <point x="672" y="76"/>
      <point x="673" y="28"/>
      <point x="675" y="15" type="curve"/>
      <point x="617" y="-5" type="line"/>
      <point x="614" y="-2" type="line"/>
      <point x="618" y="19"/>
      <point x="617" y="69"/>
      <point x="617" y="107" type="curve"/>
      <point x="612" y="112" type="line"/>
      <point x="408" y="112" type="line"/>
      <point x="408" y="139" type="line"/>
      <point x="614" y="399" type="line"/>
    </contour>
    <contour>
      <point x="617" y="144" type="line"/>
      <point x="617" y="349" type="line" smooth="yes"/>
      <point x="617" y="353"/>
      <point x="616" y="354"/>
      <point x="614" y="354" type="curve" smooth="yes"/>
      <point x="612" y="354"/>
      <point x="611" y="353"/>
      <point x="610" y="352" type="curve" smooth="yes"/>
      <point x="585" y="329"/>
      <point x="564" y="301"/>
      <point x="543" y="274" type="curve" smooth="yes"/>
      <point x="516" y="239"/>
      <point x="456" y="156"/>
      <point x="455" y="143" type="curve"/>
      <point x="458" y="139" type="line"/>
      <point x="613" y="139" type="line"/>
    </contour>
    <component base="fraction" xOffset="388"/>
  </outline>
</glyph>
<glyph name="questiondown" format="2">
  <advance width="353"/>
  <unicode hex="00BF"/>
  <outline>
    <contour>
      <point x="271" y="442" type="curve" smooth="yes"/>
      <point x="271" y="411"/>
      <point x="246" y="385"/>
      <point x="215" y="385" type="curve" smooth="yes"/>
      <point x="183" y="385"/>
      <point x="157" y="411"/>
      <point x="157" y="442" type="curve" smooth="yes"/>
      <point x="157" y="473"/>
      <point x="183" y="499"/>
      <point x="215" y="499" type="curve" smooth="yes"/>
      <point x="246" y="499"/>
      <point x="271" y="473"/>
    </contour>
    <contour>
      <point x="191" y="277" type="line"/>
      <point x="237" y="309" type="line"/>
      <point x="260" y="295"/>
      <point x="279" y="268"/>
      <point x="279" y="238" type="curve" smooth="yes"/>
      <point x="279" y="218"/>
      <point x="266" y="199"/>
      <point x="253" y="183" type="curve" smooth="yes"/>
      <point x="189" y="100"/>
      <point x="90" y="56"/>
      <point x="90" y="-57" type="curve" smooth="yes"/>
      <point x="90" y="-111"/>
      <point x="138" y="-173"/>
      <point x="188" y="-173" type="curve" smooth="yes"/>
      <point x="227" y="-173"/>
      <point x="269" y="-146"/>
      <point x="269" y="-101" type="curve" smooth="yes"/>
      <point x="269" y="-77"/>
      <point x="256" y="-55"/>
      <point x="237" y="-40" type="curve"/>
      <point x="304" y="0" type="line"/>
      <point x="322" y="-16"/>
      <point x="332" y="-43"/>
      <point x="332" y="-69" type="curve" smooth="yes"/>
      <point x="332" y="-152"/>
      <point x="227" y="-205"/>
      <point x="148" y="-205" type="curve" smooth="yes"/>
      <point x="72" y="-205"/>
      <point x="19" y="-154"/>
      <point x="19" y="-77" type="curve" smooth="yes"/>
      <point x="19" y="-44"/>
      <point x="32" y="-17"/>
      <point x="49" y="12" type="curve" smooth="yes"/>
      <point x="96" y="91"/>
      <point x="218" y="152"/>
      <point x="218" y="214" type="curve" smooth="yes"/>
      <point x="218" y="234"/>
      <point x="207" y="254"/>
      <point x="191" y="266" type="curve"/>
    </contour>
  </outline>
</glyph>
<glyph name="AE" format="2">
  <advance width="797"/>
  <unicode hex="00C6"/>
  <outline>
    <contour>
      <point x="366" y="568" type="line" smooth="yes"/>
      <point x="366" y="577"/>
      <point x="362" y="577"/>
      <point x="360" y="572" type="curve"/>
      <point x="244" y="328" type="line" smooth="yes"/>
      <point x="243" y="326"/>
      <point x="243" y="320"/>
      <point x="243" y="319" type="curve" smooth="yes"/>
      <point x="243" y="316"/>
      <point x="247" y="312"/>
      <point x="250" y="312" type="curve" smooth="yes"/>
      <point x="366" y="312" type="line"/>
    </contour>
    <contour>
      <point x="366" y="273" type="line"/>
      <point x="224" y="273" type="line" smooth="yes"/>
      <point x="220" y="273"/>
      <point x="216" y="269"/>
      <point x="214" y="265" type="curve" smooth="yes"/>
      <point x="97" y="17" type="line"/>
      <point x="6" y="-2" type="line"/>
      <point x="3" y="8" type="line"/>
      <point x="122" y="208"/>
      <point x="238" y="414"/>
      <point x="343" y="622" type="curve"/>
      <point x="344" y="625"/>
      <point x="344" y="626"/>
      <point x="344" y="629" type="curve" smooth="yes"/>
      <point x="344" y="632"/>
      <point x="341" y="638"/>
      <point x="332" y="640" type="curve"/>
      <point x="241" y="655" type="line"/>
      <point x="241" y="682" type="line"/>
      <point x="435" y="682" type="line" smooth="yes"/>
      <point x="505" y="682"/>
      <point x="606" y="687"/>
      <point x="677" y="688" type="curve" smooth="yes"/>
      <point x="695" y="688"/>
      <point x="710" y="688"/>
      <point x="723" y="687" type="curve"/>
      <point x="721" y="637" type="line"/>
      <point x="717" y="630" type="line"/>
      <point x="648" y="634"/>
      <point x="515" y="640"/>
      <point x="508" y="640" type="curve" smooth="yes"/>
      <point x="468" y="640" type="line"/>
      <point x="448" y="636"/>
      <point x="444" y="599"/>
      <point x="444" y="564" type="curve" smooth="yes"/>
      <point x="444" y="398" type="line" smooth="yes"/>
      <point x="444" y="381"/>
      <point x="473" y="384"/>
      <point x="510" y="384" type="curve" smooth="yes"/>
      <point x="563" y="384"/>
      <point x="637" y="387"/>
      <point x="690" y="391" type="curve"/>
      <point x="696" y="384" type="line"/>
      <point x="690" y="336" type="line"/>
      <point x="651" y="339"/>
      <point x="611" y="342"/>
      <point x="572" y="342" type="curve" smooth="yes"/>
      <point x="514" y="342"/>
      <point x="443" y="345"/>
      <point x="443" y="327" type="curve" smooth="yes"/>
      <point x="443" y="188" type="line" smooth="yes"/>
      <point x="443" y="150"/>
      <point x="444" y="101"/>
      <point x="458" y="76" type="curve" smooth="yes"/>
      <point x="472" y="50"/>
      <point x="493" y="44"/>
      <point x="554" y="44" type="curve" smooth="yes"/>
      <point x="601" y="44"/>
      <point x="624" y="44"/>
      <point x="788" y="58" type="curve"/>
      <point x="793" y="53" type="line"/>
      <point x="780" y="0" type="line"/>
      <point x="392" y="0" type="line"/>
      <point x="372" y="11"/>
      <point x="366" y="39"/>
      <point x="366" y="66" type="curve" smooth="yes"/>
    </contour>
  </outline>
</glyph>
<glyph name="Eth" format="2">
  <advance width="746"/>
  <unicode hex="00D0"/>
  <outline>
    <contour>
      <point x="314" y="340" type="line"/>
      <point x="19" y="340" type="line"/>
      <point x="26" y="380" type="line"/>
      <point x="320" y="380" type="line"/>
    </contour>
    <component base="D" xOffset="9"/>
  </outline>
</glyph>
<glyph name="multiply" format="2">
  <advance width="603"/>
  <unicode hex="00D7"/>
  <outline>
    <contour>
      <point x="301" y="283" type="line"/>
      <point x="522" y="504" type="line"/>
      <point x="547" y="472" type="line"/>
      <point x="329" y="255" type="line"/>
      <point x="543" y="40" type="line"/>
      <point x="520" y="7" type="line"/>
      <point x="301" y="226" type="line"/>
      <point x="81" y="7" type="line"/>
      <point x="58" y="40" type="line"/>
      <point x="272" y="255" type="line"/>
      <point x="57" y="470" type="line"/>
      <point x="81" y="502" type="line"/>
    </contour>
  </outline>
</glyph>
<glyph name="ae" format="2">
  <advance width="752"/>
  <unicode hex="00E6"/>
  <outline>
    <contour>
      <point x="707" y="319" type="curve" smooth="yes"/>
      <point x="425" y="197" type="line"/>
      <point x="431" y="134"/>
      <point x="465" y="56"/>
      <point x="554" y="56" type="curve" smooth="yes"/>
      <point x="609" y="56"/>
      <point x="663" y="89"/>
      <point x="708" y="124" type="curve"/>
      <point x="719" y="122" type="line"/>
      <point x="732" y="104" type="line"/>
      <point x="670" y="46"/>
      <point x="590" y="-12"/>
      <point x="504" y="-12" type="curve" smooth="yes"/>
      <point x="436" y="-12"/>
      <point x="395" y="20"/>
      <point x="370" y="66" type="curve"/>
      <point x="319" y="29"/>
      <point x="254" y="-12"/>
      <point x="187" y="-12" type="curve" smooth="yes"/>
      <point x="76" y="-12"/>
      <point x="40" y="95"/>
      <point x="40" y="185" type="curve" smooth="yes"/>
      <point x="40" y="326"/>
      <point x="108" y="466"/>
      <point x="278" y="466" type="curve" smooth="yes"/>
      <point x="320" y="466"/>
      <point x="385" y="446"/>
      <point x="407" y="407" type="curve"/>
      <point x="455" y="453"/>
      <point x="519" y="478"/>
      <point x="586" y="478" type="curve" smooth="yes"/>
      <point x="672" y="478"/>
      <point x="728" y="417"/>
      <point x="728" y="340" type="curve" smooth="yes"/>
      <point x="728" y="328"/>
      <point x="718" y="324"/>
    </contour>
    <contour>
      <point x="467" y="396" type="curve"/>
      <point x="428" y="354"/>
      <point x="421" y="309"/>
      <point x="421" y="260" type="curve" smooth="yes"/>
      <point x="421" y="254"/>
      <point x="422" y="248"/>
      <point x="423" y="242" type="curve"/>
      <point x="427" y="238" type="line"/>
      <point x="629" y="318" type="line"/>
      <point x="635" y="320"/>
      <point x="642" y="328"/>
      <point x="642" y="344" type="curve" smooth="yes"/>
      <point x="642" y="386"/>
      <point x="607" y="438"/>
      <point x="551" y="438" type="curve" smooth="yes"/>
      <point x="518" y="438"/>
      <point x="488" y="422"/>
    </contour>
    <contour>
      <point x="363" y="348" type="curve"/>
      <point x="362" y="367"/>
      <point x="359" y="385"/>
      <point x="347" y="398" type="curve" smooth="yes"/>
      <point x="329" y="417"/>
      <point x="304" y="431"/>
      <point x="279" y="431" type="curve" smooth="yes"/>
      <point x="243" y="431"/>
      <point x="210" y="418"/>
      <point x="184" y="393" type="curve" smooth="yes"/>
      <point x="161" y="371"/>
      <point x="132" y="316"/>
      <point x="130" y="215" type="curve" smooth="yes"/>
      <point x="129" y="173"/>
      <point x="135" y="130"/>
      <point x="158" y="95" type="curve" smooth="yes"/>
      <point x="179" y="62"/>
      <point x="220" y="54"/>
      <point x="257" y="54" type="curve" smooth="yes"/>
      <point x="294" y="54"/>
      <point x="328" y="74"/>
      <point x="357" y="95" type="curve"/>
      <point x="343" y="135"/>
      <point x="338" y="181"/>
      <point x="338" y="226" type="curve" smooth="yes"/>
      <point x="338" y="268"/>
      <point x="345" y="311"/>
    </contour>
  </outline>
</glyph>
<glyph name="eth" format="2">
  <advance width="461"/>
  <unicode hex="00F0"/>
  <outline>
    <contour>
      <point x="379" y="649" type="line"/>
      <point x="119" y="511" type="line"/>
      <point x="106" y="550" type="line"/>
      <point x="366" y="688" type="line"/>
    </contour>
    <contour>
      <point x="158" y="684" type="line"/>
      <point x="272" y="644"/>
      <point x="390" y="512"/>
      <point x="415" y="356" type="curve" smooth="yes"/>
      <point x="431" y="256"/>
      <point x="433" y="142"/>
      <point x="363" y="61" type="curve" smooth="yes"/>
      <point x="335" y="28"/>
      <point x="297" y="5"/>
      <point x="256" y="-2" type="curve" smooth="yes"/>
      <point x="199" y="-11"/>
      <point x="145" y="-11"/>
      <point x="104" y="25" type="curve" smooth="yes"/>
      <point x="64" y="60"/>
      <point x="39" y="129"/>
      <point x="32" y="175" type="curve" smooth="yes"/>
      <point x="12" y="302"/>
      <point x="66" y="437"/>
      <point x="217" y="461" type="curve" smooth="yes"/>
      <point x="238" y="464"/>
      <point x="261" y="465"/>
      <point x="298" y="461" type="curve"/>
      <point x="301" y="466" type="line"/>
      <point x="261" y="561"/>
      <point x="216" y="620"/>
      <point x="144" y="662" type="curve"/>
    </contour>
    <contour>
      <point x="345" y="145" type="curve" smooth="yes"/>
      <point x="355" y="198"/>
      <point x="352" y="255"/>
      <point x="344" y="308" type="curve" smooth="yes"/>
      <point x="338" y="348"/>
      <point x="328" y="387"/>
      <point x="314" y="424" type="curve"/>
      <point x="288" y="431"/>
      <point x="260" y="435"/>
      <point x="233" y="431" type="curve" smooth="yes"/>
      <point x="117" y="413"/>
      <point x="101" y="280"/>
      <point x="115" y="190" type="curve" smooth="yes"/>
      <point x="123" y="143"/>
      <point x="164" y="24"/>
      <point x="262" y="39" type="curve" smooth="yes"/>
      <point x="314" y="47"/>
      <point x="337" y="98"/>
    </contour>
  </outline>
</glyph>
<glyph name="oslash" format="2">
  <advance width="520"/>
  <unicode hex="00F8"/>
  <anchor x="269" y="462" name="top"/>
  <anchor x="269" y="0" name="bottom"/>
  <outline>
    <contour>
      <point x="396" y="526" type="line"/>
      <point x="402" y="515" type="line"/>
      <point x="140" y="-90" type="line"/>
      <point x="108" y="-82" type="line"/>
      <point x="106" y="-68" type="line"/>
      <point x="364" y="529" type="line"/>
      <point x="374" y="531" type="line"/>
    </contour>
    <component base="o"/>
  </outline>
</glyph>
<glyph name="dotlessi" format="2">
  <advance width="323"/>
  <unicode hex="0131"/>
  <anchor x="165" y="0" name="bottom"/>
  <anchor x="268" y="10" name="ogonek"/>
  <anchor x="130" y="462" name="top"/>
  <outline>
    <contour>
      <point x="192" y="392" type="curve"/>
      <point x="184" y="182" type="line"/>
      <point x="184" y="108"/>
      <point x="193" y="65"/>
      <point x="228" y="65" type="curve" smooth="yes"/>
      <point x="266" y="65"/>
      <point x="293" y="86"/>
      <point x="320" y="110" type="curve"/>
      <point x="333" y="100" type="line"/>
      <point x="333" y="89" type="line"/>
      <point x="299" y="44"/>
      <point x="247" y="-8"/>
      <point x="192" y="-8" type="curve" smooth="yes"/>
      <point x="149" y="-8"/>
      <point x="112" y="5"/>
      <point x="112" y="104" type="curve" smooth="yes"/>
      <point x="118" y="325" type="line" smooth="yes"/>
      <point x="118" y="377"/>
      <point x="109" y="410"/>
      <point x="83" y="410" type="curve" smooth="yes"/>
      <point x="61" y="410"/>
      <point x="27" y="393"/>
      <point x="3" y="378" type="curve"/>
      <point x="-10" y="396" type="line"/>
      <point x="35" y="432"/>
      <point x="91" y="471"/>
      <point x="130" y="471" type="curve" smooth="yes"/>
      <point x="175" y="471"/>
      <point x="192" y="436"/>
    </contour>
  </outline>
</glyph>
<glyph name="oe" format="2">
  <advance width="815"/>
  <unicode hex="0153"/>
  <outline>
    <contour>
      <point x="530" y="396" type="curve"/>
      <point x="491" y="354"/>
      <point x="484" y="309"/>
      <point x="484" y="260" type="curve" smooth="yes"/>
      <point x="484" y="254"/>
      <point x="485" y="248"/>
      <point x="486" y="242" type="curve"/>
      <point x="490" y="238" type="line"/>
      <point x="692" y="318" type="line"/>
      <point x="698" y="320"/>
      <point x="705" y="328"/>
      <point x="705" y="344" type="curve" smooth="yes"/>
      <point x="705" y="386"/>
      <point x="670" y="438"/>
      <point x="614" y="438" type="curve" smooth="yes"/>
      <point x="581" y="438"/>
      <point x="551" y="422"/>
    </contour>
    <contour>
      <point x="770" y="319" type="curve" smooth="yes"/>
      <point x="488" y="197" type="line"/>
      <point x="494" y="134"/>
      <point x="528" y="56"/>
      <point x="617" y="56" type="curve" smooth="yes"/>
      <point x="672" y="56"/>
      <point x="726" y="89"/>
      <point x="771" y="124" type="curve"/>
      <point x="782" y="122" type="line"/>
      <point x="795" y="104" type="line"/>
      <point x="733" y="46"/>
      <point x="653" y="-12"/>
      <point x="567" y="-12" type="curve" smooth="yes"/>
      <point x="433" y="-12"/>
      <point x="401" y="113"/>
      <point x="401" y="226" type="curve" smooth="yes"/>
      <point x="401" y="284"/>
      <point x="413" y="343"/>
      <point x="452" y="388" type="curve" smooth="yes"/>
      <point x="501" y="445"/>
      <point x="573" y="478"/>
      <point x="649" y="478" type="curve" smooth="yes"/>
      <point x="735" y="478"/>
      <point x="791" y="417"/>
      <point x="791" y="340" type="curve" smooth="yes"/>
      <point x="791" y="328"/>
      <point x="781" y="324"/>
    </contour>
    <contour>
      <point x="142" y="316" type="curve" smooth="yes"/>
      <point x="136" y="291"/>
      <point x="134" y="265"/>
      <point x="134" y="239" type="curve" smooth="yes"/>
      <point x="134" y="155"/>
      <point x="160" y="27"/>
      <point x="269" y="27" type="curve" smooth="yes"/>
      <point x="377" y="27"/>
      <point x="400" y="137"/>
      <point x="400" y="220" type="curve" smooth="yes"/>
      <point x="400" y="302"/>
      <point x="381" y="426"/>
      <point x="268" y="426" type="curve" smooth="yes"/>
      <point x="214" y="426"/>
      <point x="160" y="390"/>
    </contour>
    <contour>
      <point x="468" y="119" type="line"/>
      <point x="459" y="97"/>
      <point x="447" y="77"/>
      <point x="431" y="59" type="curve" smooth="yes"/>
      <point x="384" y="6"/>
      <point x="312" y="-14"/>
      <point x="242" y="-14" type="curve" smooth="yes"/>
      <point x="104" y="-14"/>
      <point x="55" y="90"/>
      <point x="48" y="196" type="curve"/>
      <point x="48" y="265"/>
      <point x="55" y="339"/>
      <point x="103" y="391" type="curve" smooth="yes"/>
      <point x="150" y="443"/>
      <point x="221" y="465"/>
      <point x="291" y="465" type="curve" smooth="yes"/>
      <point x="393" y="465"/>
      <point x="448" y="410"/>
      <point x="473" y="340" type="curve"/>
    </contour>
  </outline>
</glyph>
<glyph name="dotlessj" format="2">
  <advance width="288"/>
  <unicode hex="0237"/>
  <outline>
    <contour>
      <point x="18" y="375" type="curve"/>
      <point x="5" y="393" type="line"/>
      <point x="46" y="425"/>
      <point x="103" y="468"/>
      <point x="146" y="468" type="curve" smooth="yes"/>
      <point x="194" y="468"/>
      <point x="204" y="434"/>
      <point x="207" y="401" type="curve"/>
      <point x="214" y="358"/>
      <point x="214" y="191"/>
      <point x="214" y="154" type="curve" smooth="yes"/>
      <point x="214" y="134"/>
      <point x="214" y="-6"/>
      <point x="202" y="-41" type="curve" smooth="yes"/>
      <point x="172" y="-128"/>
      <point x="96" y="-188"/>
      <point x="6" y="-231" type="curve"/>
      <point x="-10" y="-215" type="line"/>
      <point x="64" y="-171"/>
      <point x="104" y="-126"/>
      <point x="118" y="-76" type="curve" smooth="yes"/>
      <point x="135" y="-14"/>
      <point x="138" y="110"/>
      <point x="138" y="154" type="curve" smooth="yes"/>
      <point x="138" y="396"/>
      <point x="130" y="408"/>
      <point x="94" y="408" type="curve" smooth="yes"/>
      <point x="78" y="408"/>
      <point x="43" y="388"/>
    </contour>
  </outline>
</glyph>
<glyph name="gravecomb" format="2">
  <unicode hex="0300"/>
  <anchor x="0" y="462" name="_top"/>
  <anchor x="0" y="701" name="top"/>
  <outline>
    <contour>
      <point x="32" y="511" type="line"/>
      <point x="50" y="542" type="line"/>
      <point x="-70" y="699" type="line"/>
      <point x="-83" y="701" type="line"/>
      <point x="-130" y="665" type="line"/>
    </contour>
  </outline>
</glyph>
<glyph name="uni0302" format="2">
  <unicode hex="0302"/>
  <anchor x="0" y="462" name="_top"/>
  <anchor x="0" y="692" name="top"/>
  <outline>
    <contour>
      <point x="6" y="692" type="line"/>
      <point x="163" y="532" type="line"/>
      <point x="124" y="506" type="line"/>
      <point x="3" y="630" type="line"/>
      <point x="-140" y="499" type="line"/>
      <point x="-163" y="511" type="line"/>
    </contour>
  </outline>
</glyph>
<glyph name="tildecomb" format="2">
  <unicode hex="0303"/>
  <anchor x="0" y="462" name="_top"/>
  <anchor x="0" y="642" name="top"/>
  <outline>
    <contour>
      <point x="-2" y="620" type="curve" smooth="yes"/>
      <point x="45" y="599" type="line" smooth="yes"/>
      <point x="59" y="593"/>
      <point x="75" y="588"/>
      <point x="91" y="590" type="curve" smooth="yes"/>
      <point x="115" y="593"/>
      <point x="123" y="606"/>
      <point x="132" y="629" type="curve"/>
      <point x="145" y="624" type="line"/>
      <point x="142" y="595"/>
      <point x="122" y="539"/>
      <point x="90" y="535" type="curve" smooth="yes"/>
      <point x="68" y="532"/>
      <point x="46" y="538"/>
      <point x="26" y="547" type="curve" smooth="yes"/>
      <point x="-37" y="577" type="line" smooth="yes"/>
      <point x="-52" y="584"/>
      <point x="-70" y="588"/>
      <point x="-87" y="586" type="curve" smooth="yes"/>
      <point x="-111" y="583"/>
      <point x="-121" y="571"/>
      <point x="-133" y="538" type="curve"/>
      <point x="-147" y="543" type="line"/>
      <point x="-139" y="578"/>
      <point x="-120" y="636"/>
      <point x="-85" y="641" type="curve" smooth="yes"/>
      <point x="-59" y="645"/>
      <point x="-28" y="632"/>
    </contour>
  </outline>
</glyph>
<glyph name="uni0304" format="2">
  <unicode hex="0304"/>
  <anchor x="0" y="462" name="_top"/>
  <anchor x="0" y="595" name="top"/>
  <outline>
    <contour>
      <point x="115" y="555" type="line"/>
      <point x="-121" y="555" type="line"/>
      <point x="-114" y="595" type="line"/>
      <point x="121" y="595" type="line"/>
    </contour>
  </outline>
</glyph>
<glyph name="uni0308" format="2">
  <unicode hex="0308"/>
  <anchor x="0" y="462" name="_top"/>
  <anchor x="0" y="653" name="top"/>
  <outline>
    <contour>
      <point x="160" y="595" type="curve"/>
      <point x="158" y="562"/>
      <point x="132" y="539"/>
      <point x="100" y="539" type="curve" smooth="yes"/>
      <point x="68" y="539"/>
      <point x="42" y="565"/>
      <point x="42" y="597" type="curve" smooth="yes"/>
      <point x="42" y="631"/>
      <point x="77" y="653"/>
      <point x="106" y="653" type="curve" smooth="yes"/>
      <point x="140" y="653"/>
      <point x="160" y="625"/>
    </contour>
    <contour>
      <point x="-42" y="595" type="curve"/>
      <point x="-44" y="562"/>
      <point x="-70" y="539"/>
      <point x="-102" y="539" type="curve" smooth="yes"/>
      <point x="-134" y="539"/>
      <point x="-160" y="565"/>
      <point x="-160" y="597" type="curve" smooth="yes"/>
      <point x="-160" y="631"/>
      <point x="-125" y="653"/>
      <point x="-96" y="653" type="curve" smooth="yes"/>
      <point x="-62" y="653"/>
      <point x="-42" y="625"/>
    </contour>
  </outline>
</glyph>
<glyph name="uni0327" format="2">
  <unicode hex="0327"/>
  <anchor x="0" y="0" name="_bottom"/>
  <anchor x="0" y="-259" name="bottom"/>
  <outline>
    <contour>
      <point x="-20" y="6" type="line"/>
      <point x="16" y="6" type="line"/>
      <point x="-4" y="-41" type="line"/>
      <point x="9" y="-46"/>
      <point x="49" y="-64"/>
      <point x="68" y="-87" type="curve" smooth="yes"/>
      <point x="91" y="-115"/>
      <point x="100" y="-151"/>
      <point x="74" y="-187" type="curve" smooth="yes"/>
      <point x="41" y="-231"/>
      <point x="-29" y="-249"/>
      <point x="-84" y="-259" type="curve"/>
      <point x="-90" y="-244" type="line"/>
      <point x="-85" y="-234" type="line"/>
      <point x="-59" y="-224"/>
      <point x="-27" y="-210"/>
      <point x="-13" y="-192" type="curve" smooth="yes"/>
      <point x="15" y="-154"/>
      <point x="-35" y="-123"/>
      <point x="-72" y="-112" type="curve"/>
    </contour>
  </outline>
</glyph>
<glyph name="Gamma" format="2">
  <advance width="492"/>
  <unicode hex="0393"/>
  <outline>
    <contour>
      <point x="464" y="697" type="curve"/>
      <point x="477" y="522" type="line"/>
      <point x="452" y="522" type="line"/>
      <point x="427" y="604" type="line" smooth="yes"/>
      <point x="412" y="653"/>
      <point x="317" y="652"/>
      <point x="258" y="652" type="curve" smooth="yes"/>
      <point x="238" y="652"/>
      <point x="217" y="651"/>
      <point x="197" y="650" type="curve" smooth="yes"/>
      <point x="159" y="647"/>
      <point x="161" y="586"/>
      <point x="161" y="549" type="curve" smooth="yes"/>
      <point x="161" y="372"/>
      <point x="161" y="194"/>
      <point x="164" y="16" type="curve"/>
      <point x="87" y="-7" type="line"/>
      <point x="77" y="4" type="line"/>
      <point x="80" y="187"/>
      <point x="84" y="461"/>
      <point x="84" y="553" type="curve" smooth="yes"/>
      <point x="84" y="583"/>
      <point x="89" y="633"/>
      <point x="68" y="651" type="curve" smooth="yes"/>
      <point x="42" y="673" type="line"/>
      <point x="45" y="693" type="line"/>
      <point x="282" y="693" type="line" smooth="yes"/>
      <point x="343" y="693"/>
      <point x="404" y="694"/>
    </contour>
  </outline>
</glyph>
<glyph name="Theta" format="2">
  <advance width="778"/>
  <unicode hex="0398"/>
  <outline>
    <contour>
      <point x="220" y="349" type="line"/>
      <point x="217" y="457" type="line"/>
      <point x="242" y="457" type="line"/>
      <point x="242" y="438"/>
      <point x="246" y="419"/>
      <point x="246" y="400" type="curve" smooth="yes"/>
      <point x="246" y="379"/>
      <point x="360" y="384"/>
      <point x="413" y="384" type="curve" smooth="yes"/>
      <point x="453" y="384"/>
      <point x="536" y="375"/>
      <point x="535" y="406" type="curve" smooth="yes"/>
      <point x="533" y="457" type="line"/>
      <point x="561" y="457" type="line"/>
      <point x="561" y="243" type="line"/>
      <point x="531" y="244" type="line"/>
      <point x="531" y="249"/>
      <point x="532" y="253"/>
      <point x="532" y="258" type="curve" smooth="yes"/>
      <point x="532" y="280"/>
      <point x="535" y="322"/>
      <point x="513" y="322" type="curve" smooth="yes"/>
      <point x="478" y="322"/>
      <point x="444" y="326"/>
      <point x="409" y="326" type="curve" smooth="yes"/>
      <point x="369" y="326"/>
      <point x="318" y="324"/>
      <point x="272" y="322" type="curve" smooth="yes"/>
      <point x="262" y="322"/>
      <point x="247" y="320"/>
      <point x="247" y="306" type="curve" smooth="yes"/>
      <point x="247" y="241" type="line"/>
      <point x="220" y="241" type="line"/>
    </contour>
    <contour>
      <point x="348" y="-12" type="curve" smooth="yes"/>
      <point x="272" y="-12"/>
      <point x="192" y="4"/>
      <point x="138" y="59" type="curve" smooth="yes"/>
      <point x="67" y="130"/>
      <point x="41" y="232"/>
      <point x="41" y="331" type="curve" smooth="yes"/>
      <point x="41" y="427"/>
      <point x="43" y="469"/>
      <point x="86" y="543" type="curve" smooth="yes"/>
      <point x="144" y="643"/>
      <point x="283" y="701"/>
      <point x="435" y="701" type="curve" smooth="yes"/>
      <point x="514" y="701"/>
      <point x="598" y="681"/>
      <point x="655" y="624" type="curve" smooth="yes"/>
      <point x="718" y="561"/>
      <point x="738" y="468"/>
      <point x="738" y="381" type="curve" smooth="yes"/>
      <point x="738" y="71"/>
      <point x="544" y="-12"/>
    </contour>
    <contour>
      <point x="391" y="31" type="curve" smooth="yes"/>
      <point x="476" y="31"/>
      <point x="529" y="58"/>
      <point x="579" y="108" type="curve" smooth="yes"/>
      <point x="638" y="167"/>
      <point x="644" y="286"/>
      <point x="644" y="377" type="curve" smooth="yes"/>
      <point x="644" y="457"/>
      <point x="624" y="539"/>
      <point x="567" y="596" type="curve" smooth="yes"/>
      <point x="518" y="645"/>
      <point x="449" y="663"/>
      <point x="381" y="663" type="curve" smooth="yes"/>
      <point x="187" y="663"/>
      <point x="134" y="504"/>
      <point x="134" y="345" type="curve" smooth="yes"/>
      <point x="134" y="197"/>
      <point x="208" y="31"/>
    </contour>
  </outline>
</glyph>
<glyph name="Pi" format="2">
  <advance width="668"/>
  <unicode hex="03A0"/>
  <outline>
    <contour>
      <point x="668" y="658" type="line"/>
      <point x="592" y="641" type="line" smooth="yes"/>
      <point x="587" y="640"/>
      <point x="583" y="638"/>
      <point x="579" y="635" type="curve"/>
      <point x="574" y="628"/>
      <point x="572" y="513"/>
      <point x="572" y="412" type="curve" smooth="yes"/>
      <point x="572" y="277"/>
      <point x="574" y="143"/>
      <point x="584" y="8" type="curve"/>
      <point x="504" y="-14" type="line"/>
      <point x="490" y="-3" type="line"/>
      <point x="493" y="95"/>
      <point x="493" y="192"/>
      <point x="493" y="290" type="curve" smooth="yes"/>
      <point x="493" y="398"/>
      <point x="492" y="519"/>
      <point x="491" y="627" type="curve" smooth="yes"/>
      <point x="491" y="637"/>
      <point x="480" y="640"/>
      <point x="478" y="640" type="curve" smooth="yes"/>
      <point x="189" y="640" type="line" smooth="yes"/>
      <point x="183" y="640"/>
      <point x="175" y="634"/>
      <point x="175" y="626" type="curve"/>
      <point x="168" y="525"/>
      <point x="168" y="424"/>
      <point x="168" y="322" type="curve" smooth="yes"/>
      <point x="168" y="240"/>
      <point x="171" y="118"/>
      <point x="173" y="15" type="curve"/>
      <point x="88" y="-4" type="line"/>
      <point x="81" y="2" type="line"/>
      <point x="88" y="155"/>
      <point x="89" y="307"/>
      <point x="89" y="461" type="curve" smooth="yes"/>
      <point x="89" y="485"/>
      <point x="89" y="510"/>
      <point x="89" y="534" type="curve" smooth="yes"/>
      <point x="89" y="564"/>
      <point x="88" y="620"/>
      <point x="76" y="632" type="curve"/>
      <point x="67" y="640"/>
      <point x="58" y="643"/>
      <point x="1" y="660" type="curve"/>
      <point x="1" y="690" type="line"/>
      <point x="76" y="685"/>
      <point x="151" y="681"/>
      <point x="226" y="681" type="curve" smooth="yes"/>
      <point x="424" y="681" type="line" smooth="yes"/>
      <point x="468" y="681"/>
      <point x="587" y="684"/>
      <point x="668" y="686" type="curve"/>
    </contour>
  </outline>
</glyph>
<glyph name="Phi" format="2">
  <advance width="732"/>
  <unicode hex="03A6"/>
  <outline>
    <contour>
      <point x="234" y="684" type="line"/>
      <point x="493" y="686" type="line"/>
      <point x="493" y="661" type="line"/>
      <point x="430" y="651" type="line" smooth="yes"/>
      <point x="415" y="649"/>
      <point x="406" y="635"/>
      <point x="406" y="621" type="curve" smooth="yes"/>
      <point x="406" y="608" type="line"/>
      <point x="413" y="601" type="line"/>
      <point x="626" y="601"/>
      <point x="703" y="503"/>
      <point x="703" y="373" type="curve" smooth="yes"/>
      <point x="703" y="298"/>
      <point x="683" y="221"/>
      <point x="630" y="168" type="curve" smooth="yes"/>
      <point x="578" y="116"/>
      <point x="486" y="89"/>
      <point x="414" y="86" type="curve"/>
      <point x="406" y="80" type="line"/>
      <point x="409" y="60"/>
      <point x="422" y="42"/>
      <point x="443" y="38" type="curve" smooth="yes"/>
      <point x="502" y="26" type="line"/>
      <point x="502" y="2" type="line"/>
      <point x="234" y="2" type="line"/>
      <point x="234" y="23" type="line"/>
      <point x="296" y="38" type="line" smooth="yes"/>
      <point x="312" y="42"/>
      <point x="318" y="64"/>
      <point x="320" y="80" type="curve"/>
      <point x="313" y="86" type="line"/>
      <point x="169" y="88"/>
      <point x="28" y="159"/>
      <point x="28" y="332" type="curve" smooth="yes"/>
      <point x="28" y="397"/>
      <point x="45" y="464"/>
      <point x="92" y="512" type="curve" smooth="yes"/>
      <point x="149" y="570"/>
      <point x="230" y="599"/>
      <point x="312" y="601" type="curve"/>
      <point x="320" y="608" type="line"/>
      <point x="320" y="620" type="line" smooth="yes"/>
      <point x="320" y="634"/>
      <point x="310" y="646"/>
      <point x="297" y="648" type="curve" smooth="yes"/>
      <point x="234" y="657" type="line"/>
    </contour>
    <contour>
      <point x="406" y="565" type="line"/>
      <point x="406" y="122" type="line"/>
      <point x="412" y="114" type="line"/>
      <point x="551" y="117"/>
      <point x="611" y="233"/>
      <point x="611" y="352" type="curve" smooth="yes"/>
      <point x="611" y="523"/>
      <point x="522" y="571"/>
      <point x="413" y="573" type="curve"/>
    </contour>
    <contour>
      <point x="320" y="121" type="line"/>
      <point x="320" y="565" type="line"/>
      <point x="313" y="573" type="line"/>
      <point x="191" y="568"/>
      <point x="120" y="463"/>
      <point x="120" y="347" type="curve" smooth="yes"/>
      <point x="120" y="238"/>
      <point x="187" y="117"/>
      <point x="313" y="114" type="curve"/>
    </contour>
  </outline>
</glyph>
<glyph name="Psi" format="2">
  <advance width="736"/>
  <unicode hex="03A8"/>
  <outline>
    <contour>
      <point x="437" y="244" type="line"/>
      <point x="439" y="86" type="line" smooth="yes"/>
      <point x="439" y="64"/>
      <point x="450" y="43"/>
      <point x="472" y="38" type="curve" smooth="yes"/>
      <point x="529" y="26" type="line"/>
      <point x="529" y="-1" type="line"/>
      <point x="263" y="-1" type="line"/>
      <point x="263" y="26" type="line"/>
      <point x="331" y="38" type="line" smooth="yes"/>
      <point x="353" y="42"/>
      <point x="360" y="78"/>
      <point x="360" y="87" type="curve" smooth="yes"/>
      <point x="360" y="242" type="line"/>
      <point x="354" y="248" type="line"/>
      <point x="235" y="248"/>
      <point x="164" y="282"/>
      <point x="141" y="372" type="curve" smooth="yes"/>
      <point x="92" y="539"/>
      <point x="139" y="644"/>
      <point x="72" y="644" type="curve"/>
      <point x="72" y="644"/>
      <point x="71" y="644"/>
      <point x="70" y="644" type="curve"/>
      <point x="7" y="634" type="line"/>
      <point x="0" y="656" type="line"/>
      <point x="108" y="692" type="line"/>
      <point x="111" y="694"/>
      <point x="131" y="694"/>
      <point x="143" y="694" type="curve" smooth="yes"/>
      <point x="179" y="694"/>
      <point x="186" y="653"/>
      <point x="186" y="595" type="curve" smooth="yes"/>
      <point x="186" y="463"/>
      <point x="204" y="283"/>
      <point x="354" y="275" type="curve"/>
      <point x="360" y="282" type="line"/>
      <point x="360" y="365" type="line" smooth="yes"/>
      <point x="360" y="465"/>
      <point x="360" y="585"/>
      <point x="354" y="667" type="curve"/>
      <point x="440" y="690" type="line"/>
      <point x="444" y="682" type="line"/>
      <point x="437" y="607"/>
      <point x="431" y="533"/>
      <point x="431" y="458" type="curve" smooth="yes"/>
      <point x="431" y="399"/>
      <point x="432" y="340"/>
      <point x="434" y="282" type="curve"/>
      <point x="441" y="276" type="line"/>
      <point x="553" y="282"/>
      <point x="582" y="396"/>
      <point x="600" y="523" type="curve" smooth="yes"/>
      <point x="606" y="567"/>
      <point x="607" y="612"/>
      <point x="619" y="655" type="curve"/>
      <point x="653" y="667"/>
      <point x="688" y="675"/>
      <point x="723" y="679" type="curve"/>
      <point x="726" y="661" type="line"/>
      <point x="682" y="633"/>
      <point x="681" y="578"/>
      <point x="665" y="488" type="curve" smooth="yes"/>
      <point x="634" y="285"/>
      <point x="560" y="253"/>
      <point x="443" y="251" type="curve"/>
    </contour>
  </outline>
</glyph>
<glyph name="delta" format="2">
  <advance width="423"/>
  <unicode hex="03B4"/>
  <outline>
    <contour>
      <point x="349" y="687" type="curve"/>
      <point x="354" y="679" type="line"/>
      <point x="339" y="637" type="line"/>
      <point x="304" y="639"/>
      <point x="266" y="646"/>
      <point x="200" y="646" type="curve" smooth="yes"/>
      <point x="167" y="646"/>
      <point x="135" y="637"/>
      <point x="135" y="605" type="curve" smooth="yes"/>
      <point x="135" y="578"/>
      <point x="160" y="562"/>
      <point x="240" y="486" type="curve" smooth="yes"/>
      <point x="335" y="395" type="line" smooth="yes"/>
      <point x="373" y="356"/>
      <point x="403" y="306"/>
      <point x="403" y="251" type="curve" smooth="yes"/>
      <point x="403" y="122"/>
      <point x="300" y="-9"/>
      <point x="169" y="-9" type="curve" smooth="yes"/>
      <point x="65" y="-9"/>
      <point x="21" y="78"/>
      <point x="21" y="160" type="curve" smooth="yes"/>
      <point x="21" y="263"/>
      <point x="102" y="365"/>
      <point x="179" y="442" type="curve"/>
      <point x="141" y="477"/>
      <point x="87" y="527"/>
      <point x="87" y="565" type="curve" smooth="yes"/>
      <point x="87" y="578"/>
      <point x="92" y="590"/>
      <point x="98" y="602" type="curve" smooth="yes"/>
      <point x="133" y="673"/>
      <point x="196" y="694"/>
      <point x="269" y="694" type="curve" smooth="yes"/>
      <point x="296" y="694"/>
      <point x="320" y="691"/>
    </contour>
    <contour>
      <point x="203" y="422" type="curve"/>
      <point x="133" y="350"/>
      <point x="98" y="288"/>
      <point x="98" y="212" type="curve" smooth="yes"/>
      <point x="98" y="140"/>
      <point x="134" y="44"/>
      <point x="219" y="44" type="curve" smooth="yes"/>
      <point x="294" y="44"/>
      <point x="339" y="126"/>
      <point x="339" y="209" type="curve" smooth="yes"/>
      <point x="339" y="281"/>
      <point x="263" y="362"/>
    </contour>
  </outline>
</glyph>
<glyph name="epsilon" format="2">
  <advance width="370"/>
  <unicode hex="03B5"/>
  <outline>
    <contour>
      <point x="335" y="430" type="curve"/>
      <point x="305" y="365" type="line"/>
      <point x="294" y="366" type="line"/>
      <point x="279" y="409"/>
      <point x="238" y="430"/>
      <point x="198" y="430" type="curve" smooth="yes"/>
      <point x="158" y="430"/>
      <point x="112" y="402"/>
      <point x="112" y="353" type="curve" smooth="yes"/>
      <point x="112" y="266"/>
      <point x="170" y="279"/>
      <point x="251" y="274" type="curve"/>
      <point x="230" y="227" type="line"/>
      <point x="215" y="231"/>
      <point x="200" y="232"/>
      <point x="184" y="232" type="curve" smooth="yes"/>
      <point x="139" y="232"/>
      <point x="91" y="205"/>
      <point x="91" y="151" type="curve" smooth="yes"/>
      <point x="91" y="78"/>
      <point x="159" y="38"/>
      <point x="223" y="38" type="curve" smooth="yes"/>
      <point x="269" y="38"/>
      <point x="317" y="66"/>
      <point x="356" y="98" type="curve"/>
      <point x="365" y="96" type="line"/>
      <point x="373" y="82" type="line"/>
      <point x="320" y="25"/>
      <point x="248" y="-15"/>
      <point x="169" y="-15" type="curve" smooth="yes"/>
      <point x="95" y="-15"/>
      <point x="21" y="30"/>
      <point x="21" y="109" type="curve" smooth="yes"/>
      <point x="21" y="166"/>
      <point x="52" y="210"/>
      <point x="106" y="235" type="curve"/>
      <point x="106" y="242" type="line"/>
      <point x="83" y="256"/>
      <point x="63" y="290"/>
      <point x="63" y="320" type="curve" smooth="yes"/>
      <point x="63" y="416"/>
      <point x="145" y="471"/>
      <point x="230" y="471" type="curve" smooth="yes"/>
      <point x="269" y="471"/>
      <point x="304" y="452"/>
    </contour>
  </outline>
</glyph>
<glyph name="zeta" format="2">
  <advance width="421"/>
  <unicode hex="03B6"/>
  <outline>
    <contour>
      <point x="363" y="-136" type="curve"/>
      <point x="342" y="-124" type="line"/>
      <point x="357" y="-97"/>
      <point x="376" y="-65"/>
      <point x="376" y="-39" type="curve" smooth="yes"/>
      <point x="376" y="-15"/>
      <point x="347" y="-1"/>
      <point x="325" y="-1" type="curve" smooth="yes"/>
      <point x="284" y="-1"/>
      <point x="216" y="-10"/>
      <point x="190" y="-10" type="curve" smooth="yes"/>
      <point x="66" y="-10"/>
      <point x="28" y="81"/>
      <point x="28" y="174" type="curve" smooth="yes"/>
      <point x="28" y="333"/>
      <point x="162" y="504"/>
      <point x="292" y="613" type="curve"/>
      <point x="291" y="620" type="line"/>
      <point x="200" y="628" type="line"/>
      <point x="175" y="632"/>
      <point x="149" y="638"/>
      <point x="131" y="655" type="curve"/>
      <point x="131" y="656"/>
      <point x="131" y="657"/>
      <point x="133" y="659" type="curve"/>
      <point x="161" y="694" type="line"/>
      <point x="163" y="695"/>
      <point x="164" y="695"/>
      <point x="166" y="695" type="curve" smooth="yes"/>
      <point x="168" y="695"/>
      <point x="167" y="695"/>
      <point x="174" y="691" type="curve"/>
      <point x="222" y="659"/>
      <point x="264" y="647"/>
      <point x="319" y="647" type="curve" smooth="yes"/>
      <point x="345" y="647"/>
      <point x="374" y="650"/>
      <point x="408" y="655" type="curve"/>
      <point x="408" y="636" type="line"/>
      <point x="253" y="587"/>
      <point x="105" y="391"/>
      <point x="105" y="210" type="curve" smooth="yes"/>
      <point x="105" y="127"/>
      <point x="150" y="47"/>
      <point x="254" y="47" type="curve" smooth="yes"/>
      <point x="294" y="47"/>
      <point x="331" y="53"/>
      <point x="355" y="53" type="curve" smooth="yes"/>
      <point x="396" y="53"/>
      <point x="435" y="42"/>
      <point x="435" y="6" type="curve" smooth="yes"/>
      <point x="435" y="-42"/>
      <point x="395" y="-96"/>
    </contour>
  </outline>
</glyph>
<glyph name="eta" format="2">
  <advance width="540"/>
  <unicode hex="03B7"/>
  <outline>
    <contour>
      <point x="416" y="-199" type="line"/>
      <point x="407" y="-188" type="line"/>
      <point x="408" y="-161"/>
      <point x="408" y="20"/>
      <point x="408" y="125" type="curve" smooth="yes"/>
      <point x="408" y="295"/>
      <point x="428" y="402"/>
      <point x="323" y="402" type="curve" smooth="yes"/>
      <point x="276" y="402"/>
      <point x="228" y="373"/>
      <point x="187" y="344" type="curve"/>
      <point x="185" y="320"/>
      <point x="185" y="237"/>
      <point x="185" y="184" type="curve" smooth="yes"/>
      <point x="185" y="138"/>
      <point x="189" y="71"/>
      <point x="192" y="14" type="curve"/>
      <point x="120" y="-11" type="line"/>
      <point x="111" y="-1" type="line"/>
      <point x="111" y="334" type="line" smooth="yes"/>
      <point x="111" y="366"/>
      <point x="109" y="408"/>
      <point x="72" y="408" type="curve" smooth="yes"/>
      <point x="53" y="408"/>
      <point x="25" y="389"/>
      <point x="3" y="375" type="curve"/>
      <point x="-13" y="393" type="line"/>
      <point x="23" y="422"/>
      <point x="72" y="463"/>
      <point x="117" y="463" type="curve" smooth="yes"/>
      <point x="158" y="463"/>
      <point x="183" y="442"/>
      <point x="186" y="393" type="curve"/>
      <point x="197" y="391" type="line"/>
      <point x="253" y="428"/>
      <point x="324" y="466"/>
      <point x="388" y="466" type="curve" smooth="yes"/>
      <point x="492" y="466"/>
      <point x="481" y="381"/>
      <point x="481" y="204" type="curve" smooth="yes"/>
      <point x="481" y="81"/>
      <point x="483" y="-42"/>
      <point x="498" y="-164" type="curve"/>
    </contour>
  </outline>
</glyph>
<glyph name="iota" format="2">
  <advance width="278"/>
  <unicode hex="03B9"/>
  <outline>
    <contour>
      <point x="275" y="109" type="line"/>
      <point x="288" y="95" type="line"/>
      <point x="250" y="47"/>
      <point x="195" y="-9"/>
      <point x="138" y="-9" type="curve" smooth="yes"/>
      <point x="86" y="-9"/>
      <point x="57" y="52"/>
      <point x="57" y="102" type="curve" smooth="yes"/>
      <point x="57" y="449" type="line"/>
      <point x="138" y="474" type="line"/>
      <point x="149" y="464" type="line"/>
      <point x="134" y="375"/>
      <point x="132" y="285"/>
      <point x="132" y="195" type="curve" smooth="yes"/>
      <point x="132" y="150"/>
      <point x="130" y="64"/>
      <point x="191" y="64" type="curve" smooth="yes"/>
      <point x="219" y="64"/>
      <point x="246" y="88"/>
      <point x="266" y="108" type="curve"/>
    </contour>
  </outline>
</glyph>
<glyph name="lambda" format="2">
  <advance width="481"/>
  <unicode hex="03BB"/>
  <outline>
    <contour>
      <point x="394" y="-4" type="line"/>
      <point x="248" y="380" type="line" smooth="yes"/>
      <point x="247" y="383"/>
      <point x="244" y="386"/>
      <point x="240" y="386" type="curve"/>
      <point x="236" y="385"/>
      <point x="234" y="382"/>
      <point x="233" y="379" type="curve"/>
      <point x="105" y="108"/>
      <point x="96" y="89"/>
      <point x="70" y="11" type="curve"/>
      <point x="11" y="-6" type="line"/>
      <point x="-7" y="7" type="line"/>
      <point x="224" y="442" type="line"/>
      <point x="220" y="476"/>
      <point x="175" y="646"/>
      <point x="94" y="646" type="curve" smooth="yes"/>
      <point x="79" y="646"/>
      <point x="47" y="639"/>
      <point x="24" y="634" type="curve"/>
      <point x="16" y="659" type="line"/>
      <point x="60" y="675"/>
      <point x="110" y="690"/>
      <point x="162" y="690" type="curve" smooth="yes"/>
      <point x="194" y="690"/>
      <point x="220" y="674"/>
      <point x="252" y="612" type="curve" smooth="yes"/>
      <point x="274" y="568"/>
      <point x="304" y="461"/>
      <point x="328" y="396" type="curve" smooth="yes"/>
      <point x="346" y="344"/>
      <point x="381" y="247"/>
      <point x="482" y="27" type="curve"/>
      <point x="482" y="26"/>
      <point x="483" y="25"/>
      <point x="483" y="23" type="curve" smooth="yes"/>
      <point x="483" y="19"/>
      <point x="481" y="15"/>
      <point x="481" y="15" type="curve"/>
      <point x="408" y="-11" type="line"/>
    </contour>
  </outline>
</glyph>
<glyph name="nu" format="2">
  <advance width="529"/>
  <unicode hex="03BD"/>
  <outline>
    <contour>
      <point x="534" y="444" type="line"/>
      <point x="398" y="170" type="line" smooth="yes"/>
      <point x="374" y="122"/>
      <point x="352" y="74"/>
      <point x="332" y="24" type="curve"/>
      <point x="276" y="-8" type="line"/>
      <point x="269" y="-1" type="line"/>
      <point x="257" y="80"/>
      <point x="241" y="161"/>
      <point x="214" y="238" type="curve" smooth="yes"/>
      <point x="191" y="304"/>
      <point x="148" y="402"/>
      <point x="75" y="402" type="curve" smooth="yes"/>
      <point x="44" y="402"/>
      <point x="23" y="394"/>
      <point x="8" y="384" type="curve"/>
      <point x="-12" y="410" type="line"/>
      <point x="23" y="449"/>
      <point x="66" y="471"/>
      <point x="119" y="471" type="curve" smooth="yes"/>
      <point x="149" y="471"/>
      <point x="182" y="460"/>
      <point x="203" y="439" type="curve" smooth="yes"/>
      <point x="258" y="384"/>
      <point x="295" y="220"/>
      <point x="321" y="101" type="curve"/>
      <point x="326" y="101" type="line"/>
      <point x="382" y="219"/>
      <point x="418" y="329"/>
      <point x="451" y="458" type="curve"/>
      <point x="474" y="468" type="line"/>
      <point x="531" y="452" type="line"/>
    </contour>
  </outline>
</glyph>
<glyph name="xi" format="2">
  <advance width="472"/>
  <unicode hex="03BE"/>
  <outline>
    <contour>
      <point x="411" y="-137" type="curve"/>
      <point x="390" y="-122" type="line"/>
      <point x="405" y="-97"/>
      <point x="424" y="-67"/>
      <point x="424" y="-43" type="curve" smooth="yes"/>
      <point x="424" y="-1"/>
      <point x="379" y="8"/>
      <point x="345" y="8" type="curve" smooth="yes"/>
      <point x="293" y="8"/>
      <point x="187" y="-8"/>
      <point x="159" y="-8" type="curve" smooth="yes"/>
      <point x="76" y="-8"/>
      <point x="14" y="45"/>
      <point x="14" y="126" type="curve" smooth="yes"/>
      <point x="14" y="234"/>
      <point x="105" y="311"/>
      <point x="199" y="340" type="curve"/>
      <point x="199" y="346" type="line"/>
      <point x="148" y="357"/>
      <point x="91" y="381"/>
      <point x="91" y="451" type="curve" smooth="yes"/>
      <point x="91" y="530"/>
      <point x="159" y="585"/>
      <point x="227" y="612" type="curve"/>
      <point x="226" y="620" type="line"/>
      <point x="182" y="621"/>
      <point x="135" y="626"/>
      <point x="94" y="648" type="curve"/>
      <point x="122" y="694" type="line"/>
      <point x="130" y="694" type="line"/>
      <point x="169" y="662"/>
      <point x="220" y="649"/>
      <point x="270" y="649" type="curve" smooth="yes"/>
      <point x="301" y="649"/>
      <point x="336" y="654"/>
      <point x="368" y="660" type="curve"/>
      <point x="368" y="632" type="line"/>
      <point x="281" y="622"/>
      <point x="169" y="588"/>
      <point x="169" y="478" type="curve" smooth="yes"/>
      <point x="169" y="387"/>
      <point x="255" y="366"/>
      <point x="329" y="358" type="curve"/>
      <point x="329" y="335" type="line"/>
      <point x="221" y="335"/>
      <point x="99" y="287"/>
      <point x="99" y="155" type="curve" smooth="yes"/>
      <point x="99" y="86"/>
      <point x="152" y="47"/>
      <point x="218" y="47" type="curve" smooth="yes"/>
      <point x="274" y="47"/>
      <point x="358" y="58"/>
      <point x="398" y="58" type="curve" smooth="yes"/>
      <point x="430" y="58"/>
      <point x="485" y="49"/>
      <point x="485" y="7" type="curve" smooth="yes"/>
      <point x="485" y="-40"/>
      <point x="443" y="-94"/>
    </contour>
  </outline>
</glyph>
<glyph name="pi" format="2">
  <advance width="596"/>
  <unicode hex="03C0"/>
  <outline>
    <contour>
      <point x="171" y="460" type="curve" smooth="yes"/>
      <point x="494" y="460" type="line" smooth="yes"/>
      <point x="533" y="460"/>
      <point x="571" y="470"/>
      <point x="605" y="488" type="curve"/>
      <point x="613" y="481" type="line"/>
      <point x="578" y="422" type="line"/>
      <point x="544" y="406"/>
      <point x="507" y="395"/>
      <point x="469" y="394" type="curve"/>
      <point x="462" y="387" type="line"/>
      <point x="460" y="352"/>
      <point x="456" y="316"/>
      <point x="456" y="282" type="curve" smooth="yes"/>
      <point x="456" y="192"/>
      <point x="454" y="63"/>
      <point x="519" y="63" type="curve" smooth="yes"/>
      <point x="537" y="63"/>
      <point x="553" y="69"/>
      <point x="568" y="79" type="curve"/>
      <point x="574" y="77" type="line"/>
      <point x="584" y="60" type="line"/>
      <point x="553" y="32"/>
      <point x="512" y="0"/>
      <point x="471" y="0" type="curve" smooth="yes"/>
      <point x="452" y="0"/>
      <point x="430" y="0"/>
      <point x="418" y="12" type="curve" smooth="yes"/>
      <point x="389" y="39"/>
      <point x="387" y="102"/>
      <point x="387" y="147" type="curve" smooth="yes"/>
      <point x="387" y="228"/>
      <point x="393" y="308"/>
      <point x="403" y="388" type="curve"/>
      <point x="397" y="394" type="line"/>
      <point x="254" y="394" type="line"/>
      <point x="227" y="264"/>
      <point x="182" y="133"/>
      <point x="138" y="5" type="curve"/>
      <point x="127" y="-5" type="line"/>
      <point x="72" y="10" type="line"/>
      <point x="71" y="23" type="line"/>
      <point x="138" y="139"/>
      <point x="192" y="282"/>
      <point x="217" y="394" type="curve"/>
      <point x="143" y="394" type="line" smooth="yes"/>
      <point x="94" y="394"/>
      <point x="68" y="384"/>
      <point x="45" y="325" type="curve" smooth="yes"/>
      <point x="27" y="279" type="line"/>
      <point x="6" y="288" type="line"/>
      <point x="34" y="401" type="line"/>
      <point x="52" y="459"/>
      <point x="113" y="460"/>
    </contour>
  </outline>
</glyph>
<glyph name="rho" format="2">
  <advance width="484"/>
  <unicode hex="03C1"/>
  <outline>
    <contour>
      <point x="77" y="-189" type="line"/>
      <point x="57" y="-181" type="line"/>
      <point x="51" y="-77"/>
      <point x="46" y="28"/>
      <point x="46" y="133" type="curve" smooth="yes"/>
      <point x="46" y="253"/>
      <point x="43" y="358"/>
      <point x="119" y="425" type="curve" smooth="yes"/>
      <point x="160" y="461"/>
      <point x="217" y="477"/>
      <point x="271" y="477" type="curve" smooth="yes"/>
      <point x="322" y="477"/>
      <point x="369" y="459"/>
      <point x="406" y="423" type="curve" smooth="yes"/>
      <point x="446" y="383"/>
      <point x="455" y="309"/>
      <point x="455" y="251" type="curve" smooth="yes"/>
      <point x="455" y="133"/>
      <point x="371" y="-3"/>
      <point x="251" y="-3" type="curve" smooth="yes"/>
      <point x="197" y="-3"/>
      <point x="152" y="25"/>
      <point x="119" y="75" type="curve"/>
      <point x="112" y="74" type="line"/>
      <point x="115" y="-6"/>
      <point x="119" y="-78"/>
      <point x="139" y="-156" type="curve"/>
      <point x="139" y="-157"/>
      <point x="135" y="-165"/>
      <point x="133" y="-169" type="curve"/>
    </contour>
    <contour>
      <point x="117" y="231" type="curve" smooth="yes"/>
      <point x="117" y="154"/>
      <point x="138" y="47"/>
      <point x="222" y="47" type="curve" smooth="yes"/>
      <point x="326" y="47"/>
      <point x="367" y="147"/>
      <point x="367" y="234" type="curve" smooth="yes"/>
      <point x="367" y="324"/>
      <point x="347" y="441"/>
      <point x="256" y="441" type="curve" smooth="yes"/>
      <point x="145" y="441"/>
      <point x="117" y="321"/>
    </contour>
  </outline>
</glyph>
<glyph name="sigma" format="2">
  <advance width="543"/>
  <unicode hex="03C3"/>
  <outline>
    <contour>
      <point x="210" y="462" type="curve" smooth="yes"/>
      <point x="552" y="476" type="line"/>
      <point x="557" y="466" type="line"/>
      <point x="543" y="409" type="line"/>
      <point x="536" y="403" type="line"/>
      <point x="472" y="416"/>
      <point x="403" y="424"/>
      <point x="337" y="432" type="curve"/>
      <point x="336" y="426" type="line"/>
      <point x="403" y="381"/>
      <point x="438" y="311"/>
      <point x="438" y="228" type="curve" smooth="yes"/>
      <point x="438" y="96"/>
      <point x="351" y="-5"/>
      <point x="206" y="-5" type="curve" smooth="yes"/>
      <point x="77" y="-5"/>
      <point x="31" y="112"/>
      <point x="31" y="221" type="curve" smooth="yes"/>
      <point x="31" y="339"/>
      <point x="84" y="457"/>
    </contour>
    <contour>
      <point x="229" y="429" type="curve" smooth="yes"/>
      <point x="141" y="429"/>
      <point x="114" y="327"/>
      <point x="114" y="253" type="curve" smooth="yes"/>
      <point x="114" y="218"/>
      <point x="117" y="184"/>
      <point x="128" y="150" type="curve" smooth="yes"/>
      <point x="143" y="102"/>
      <point x="183" y="36"/>
      <point x="243" y="36" type="curve" smooth="yes"/>
      <point x="339" y="36"/>
      <point x="359" y="147"/>
      <point x="359" y="216" type="curve" smooth="yes"/>
      <point x="359" y="307"/>
      <point x="333" y="429"/>
    </contour>
  </outline>
</glyph>
<glyph name="tau" format="2">
  <advance width="486"/>
  <unicode hex="03C4"/>
  <outline>
    <contour>
      <point x="130" y="461" type="curve" smooth="yes"/>
      <point x="384" y="461" type="line" smooth="yes"/>
      <point x="422" y="461"/>
      <point x="460" y="468"/>
      <point x="494" y="484" type="curve"/>
      <point x="507" y="475" type="line"/>
      <point x="464" y="408" type="line"/>
      <point x="437" y="402"/>
      <point x="409" y="398"/>
      <point x="381" y="398" type="curve" smooth="yes"/>
      <point x="313" y="398" type="line"/>
      <point x="304" y="390" type="line"/>
      <point x="302" y="356"/>
      <point x="293" y="279"/>
      <point x="293" y="225" type="curve" smooth="yes"/>
      <point x="293" y="191"/>
      <point x="292" y="57"/>
      <point x="354" y="57" type="curve" smooth="yes"/>
      <point x="373" y="57"/>
      <point x="399" y="72"/>
      <point x="415" y="82" type="curve"/>
      <point x="424" y="80" type="line"/>
      <point x="433" y="66" type="line"/>
      <point x="394" y="29"/>
      <point x="341" y="-9"/>
      <point x="298" y="-9" type="curve" smooth="yes"/>
      <point x="230" y="-9"/>
      <point x="220" y="79"/>
      <point x="220" y="142" type="curve" smooth="yes"/>
      <point x="220" y="225"/>
      <point x="228" y="308"/>
      <point x="235" y="391" type="curve"/>
      <point x="228" y="398" type="line"/>
      <point x="153" y="398" type="line" smooth="yes"/>
      <point x="125" y="398"/>
      <point x="88" y="396"/>
      <point x="68" y="376" type="curve" smooth="yes"/>
      <point x="55" y="362"/>
      <point x="38" y="316"/>
      <point x="25" y="282" type="curve"/>
      <point x="3" y="285" type="line"/>
      <point x="7" y="304"/>
      <point x="29" y="406"/>
      <point x="42" y="426" type="curve" smooth="yes"/>
      <point x="62" y="456"/>
      <point x="101" y="461"/>
    </contour>
  </outline>
</glyph>
<glyph name="phi" format="2">
  <advance width="644"/>
  <unicode hex="03C6"/>
  <outline>
    <contour>
      <point x="365" y="-156" type="curve"/>
      <point x="293" y="-192" type="line"/>
      <point x="276" y="-182" type="line"/>
      <point x="277" y="-125"/>
      <point x="281" y="-70"/>
      <point x="281" y="-13" type="curve"/>
      <point x="273" y="-4" type="line"/>
      <point x="76" y="1"/>
      <point x="26" y="97"/>
      <point x="26" y="212" type="curve" smooth="yes"/>
      <point x="26" y="284"/>
      <point x="50" y="354"/>
      <point x="100" y="405" type="curve" smooth="yes"/>
      <point x="147" y="452"/>
      <point x="230" y="473"/>
      <point x="272" y="473" type="curve"/>
      <point x="281" y="482" type="line"/>
      <point x="281" y="539"/>
      <point x="279" y="596"/>
      <point x="275" y="652" type="curve"/>
      <point x="357" y="694" type="line"/>
      <point x="364" y="686" type="line"/>
      <point x="359" y="619"/>
      <point x="356" y="551"/>
      <point x="356" y="483" type="curve"/>
      <point x="364" y="473" type="line"/>
      <point x="549" y="473"/>
      <point x="619" y="383"/>
      <point x="619" y="259" type="curve" smooth="yes"/>
      <point x="619" y="192"/>
      <point x="598" y="123"/>
      <point x="550" y="75" type="curve" smooth="yes"/>
      <point x="500" y="25"/>
      <point x="433" y="4"/>
      <point x="363" y="2" type="curve"/>
      <point x="354" y="-8" type="line"/>
      <point x="354" y="-57"/>
      <point x="358" y="-107"/>
    </contour>
    <contour>
      <point x="362" y="33" type="line"/>
      <point x="475" y="40"/>
      <point x="537" y="156"/>
      <point x="537" y="261" type="curve" smooth="yes"/>
      <point x="537" y="312"/>
      <point x="526" y="364"/>
      <point x="490" y="401" type="curve" smooth="yes"/>
      <point x="456" y="435"/>
      <point x="410" y="442"/>
      <point x="363" y="443" type="curve"/>
      <point x="354" y="434" type="line"/>
      <point x="354" y="42" type="line"/>
    </contour>
    <contour>
      <point x="272" y="441" type="line"/>
      <point x="241" y="441"/>
      <point x="192" y="428"/>
      <point x="162" y="398" type="curve" smooth="yes"/>
      <point x="121" y="357"/>
      <point x="109" y="298"/>
      <point x="109" y="242" type="curve" smooth="yes"/>
      <point x="109" y="143"/>
      <point x="163" y="29"/>
      <point x="273" y="29" type="curve"/>
      <point x="281" y="38" type="line"/>
      <point x="281" y="433" type="line"/>
    </contour>
  </outline>
</glyph>
<glyph name="chi" format="2">
  <advance width="525"/>
  <unicode hex="03C7"/>
  <outline>
    <contour>
      <point x="294" y="206" type="line"/>
      <point x="481" y="456" type="line"/>
      <point x="501" y="460" type="line"/>
      <point x="534" y="428" type="line"/>
      <point x="535" y="421" type="line"/>
      <point x="356" y="215" type="line" smooth="yes"/>
      <point x="340" y="196"/>
      <point x="323" y="177"/>
      <point x="308" y="156" type="curve"/>
      <point x="361" y="38"/>
      <point x="431" y="-132"/>
      <point x="493" y="-132" type="curve" smooth="yes"/>
      <point x="517" y="-132"/>
      <point x="541" y="-128"/>
      <point x="562" y="-117" type="curve"/>
      <point x="570" y="-140" type="line"/>
      <point x="527" y="-165"/>
      <point x="473" y="-197"/>
      <point x="432" y="-197" type="curve" smooth="yes"/>
      <point x="366" y="-197"/>
      <point x="324" y="-64"/>
      <point x="262" y="83" type="curve"/>
      <point x="252" y="83" type="line"/>
      <point x="194" y="-5"/>
      <point x="134" y="-94"/>
      <point x="98" y="-185" type="curve"/>
      <point x="81" y="-191" type="line"/>
      <point x="31" y="-161" type="line"/>
      <point x="99" y="-61"/>
      <point x="168" y="38"/>
      <point x="242" y="134" type="curve"/>
      <point x="242" y="135"/>
      <point x="168" y="277"/>
      <point x="133" y="349" type="curve" smooth="yes"/>
      <point x="119" y="377"/>
      <point x="97" y="411"/>
      <point x="68" y="411" type="curve" smooth="yes"/>
      <point x="50" y="411"/>
      <point x="22" y="389"/>
      <point x="3" y="374" type="curve"/>
      <point x="-12" y="395" type="line"/>
      <point x="51" y="443" type="line" smooth="yes"/>
      <point x="70" y="458"/>
      <point x="95" y="466"/>
      <point x="120" y="466" type="curve" smooth="yes"/>
      <point x="157" y="466"/>
      <point x="180" y="428"/>
      <point x="194" y="398" type="curve" smooth="yes"/>
      <point x="284" y="206" type="line"/>
    </contour>
  </outline>
</glyph>
<glyph name="omega" format="2">
  <advance width="771"/>
  <unicode hex="03C9"/>
  <outline>
    <contour>
      <point x="612" y="421" type="line"/>
      <point x="654" y="469" type="line"/>
      <point x="668" y="472" type="line"/>
      <point x="719" y="432"/>
      <point x="744" y="370"/>
      <point x="744" y="306" type="curve" smooth="yes"/>
      <point x="744" y="164"/>
      <point x="639" y="-4"/>
      <point x="493" y="-4" type="curve" smooth="yes"/>
      <point x="436" y="-4"/>
      <point x="408" y="10"/>
      <point x="372" y="87" type="curve"/>
      <point x="360" y="87" type="line"/>
      <point x="315" y="41"/>
      <point x="258" y="-13"/>
      <point x="188" y="-13" type="curve" smooth="yes"/>
      <point x="84" y="-13"/>
      <point x="30" y="85"/>
      <point x="30" y="176" type="curve" smooth="yes"/>
      <point x="30" y="293"/>
      <point x="69" y="419"/>
      <point x="204" y="466" type="curve"/>
      <point x="220" y="452" type="line"/>
      <point x="142" y="392"/>
      <point x="112" y="323"/>
      <point x="112" y="232" type="curve" smooth="yes"/>
      <point x="112" y="152"/>
      <point x="142" y="50"/>
      <point x="232" y="50" type="curve" smooth="yes"/>
      <point x="266" y="50"/>
      <point x="297" y="68"/>
      <point x="321" y="92" type="curve" smooth="yes"/>
      <point x="354" y="125"/>
      <point x="358" y="196"/>
      <point x="358" y="249" type="curve" smooth="yes"/>
      <point x="358" y="438" type="line"/>
      <point x="433" y="466" type="line"/>
      <point x="439" y="459" type="line"/>
      <point x="430" y="400"/>
      <point x="430" y="329"/>
      <point x="430" y="264" type="curve" smooth="yes"/>
      <point x="430" y="179"/>
      <point x="444" y="61"/>
      <point x="538" y="61" type="curve" smooth="yes"/>
      <point x="632" y="61"/>
      <point x="677" y="157"/>
      <point x="677" y="244" type="curve" smooth="yes"/>
      <point x="677" y="305"/>
      <point x="657" y="368"/>
      <point x="609" y="409" type="curve"/>
    </contour>
  </outline>
</glyph>
<glyph name="quoteleft" format="2">
  <advance width="200"/>
  <unicode hex="2018"/>
  <outline>
    <contour>
      <point x="115" y="532" type="curve" smooth="yes"/>
      <point x="147" y="483" type="line" smooth="yes"/>
      <point x="152" y="475"/>
      <point x="163" y="456"/>
      <point x="163" y="448" type="curve" smooth="yes"/>
      <point x="163" y="430"/>
      <point x="130" y="406"/>
      <point x="115" y="406" type="curve" smooth="yes"/>
      <point x="85" y="406"/>
      <point x="41" y="493"/>
      <point x="41" y="541" type="curve" smooth="yes"/>
      <point x="41" y="592"/>
      <point x="97" y="660"/>
      <point x="136" y="709" type="curve"/>
      <point x="150" y="695" type="line"/>
      <point x="129" y="659"/>
      <point x="101" y="612"/>
      <point x="101" y="577" type="curve" smooth="yes"/>
      <point x="101" y="561"/>
      <point x="106" y="546"/>
    </contour>
  </outline>
</glyph>
<glyph name="uni2022" format="2">
  <advance width="332.0"/>
  <unicode hex="2022"/>
  <outline>
    <contour>
      <point x="69" y="265" type="curve" smooth="yes"/>
      <point x="69" y="319"/>
      <point x="112" y="362"/>
      <point x="166" y="362" type="curve" smooth="yes"/>
      <point x="220" y="362"/>
      <point x="263" y="319"/>
      <point x="263" y="265" type="curve" smooth="yes"/>
      <point x="263" y="211"/>
      <point x="220" y="168"/>
      <point x="166" y="168" type="curve" smooth="yes"/>
      <point x="112" y="168"/>
      <point x="69" y="211"/>
    </contour>
  </outline>
</glyph>
<glyph name="uni2039" format="2">
  <advance width="264.0"/>
  <unicode hex="2039"/>
  <outline>
    <contour>
      <point x="12" y="238" type="line"/>
      <point x="204" y="426" type="line"/>
      <point x="235" y="380" type="line"/>
      <point x="86" y="234" type="line"/>
      <point x="236" y="64" type="line"/>
      <point x="222" y="36" type="line"/>
    </contour>
  </outline>
</glyph>
<glyph name="uni203A" format="2">
  <advance width="264.0"/>
  <unicode hex="203A"/>
  <outline>
    <contour>
      <point x="252" y="238" type="line"/>
      <point x="60" y="426" type="line"/>
      <point x="29" y="380" type="line"/>
      <point x="178" y="234" type="line"/>
      <point x="28" y="64" type="line"/>
      <point x="42" y="36" type="line"/>
    </contour>
  </outline>
</glyph>
<glyph name="fraction" format="2">
  <advance width="70"/>
  <unicode hex="2044"/>
  <unicode hex="2215"/>
  <outline>
    <contour>
      <point x="266" y="695" type="line"/>
      <point x="269" y="684" type="line"/>
      <point x="-168" y="-4" type="line"/>
      <point x="-199" y="9" type="line"/>
      <point x="-199" y="23" type="line"/>
      <point x="234" y="703" type="line"/>
      <point x="245" y="704" type="line"/>
    </contour>
  </outline>
</glyph>
<glyph name="uni20AC" format="2">
  <advance width="638.0"/>
  <unicode hex="20AC"/>
  <outline>
    <contour>
      <point x="425.0" y="270" type="line"/>
      <point x="25.0" y="270" type="line"/>
      <point x="35.0" y="310.0" type="line"/>
      <point x="435.0" y="310" type="line"/>
    </contour>
    <contour>
      <point x="450.66032350142723" y="369.94100856327304" type="line"/>
      <point x="50.66032350142723" y="369.94100856327304" type="line"/>
      <point x="60.66032350142723" y="409.94100856327304" type="line"/>
      <point x="460.66032350142723" y="409.94100856327304" type="line"/>
    </contour>
    <contour>
      <point x="547.0" y="528" type="line"/>
      <point x="533.0" y="529" type="line"/>
      <point x="465.0" y="709.0"/>
      <point x="208.0" y="648.0"/>
      <point x="208.0" y="344" type="curve" smooth="yes"/>
      <point x="208.0" y="252"/>
      <point x="246.0" y="157.0"/>
      <point x="302.9459459459459" y="109.32432432432427" type="curve" smooth="yes"/>
      <point x="380.0926187066143" y="44.736412245624976"/>
      <point x="484.0" y="68.0"/>
      <point x="555.0" y="105" type="curve"/>
      <point x="572.0" y="76" type="line"/>
      <point x="531.044624" y="38.147304"/>
      <point x="449.5696943213715" y="-5.393629596891536"/>
      <point x="365.0142189424753" y="-4.368388320125149" type="curve" smooth="yes"/>
      <point x="313.3076960184588" y="-3.741442976346731"/>
      <point x="260.44921984810134" y="13.55078015189874"/>
      <point x="215.0" y="59" type="curve" smooth="yes"/>
      <point x="145.0" y="129"/>
      <point x="119.0" y="228"/>
      <point x="119.0" y="326" type="curve" smooth="yes"/>
      <point x="119.0" y="422"/>
      <point x="144.9938303836672" y="515.3394487574888"/>
      <point x="210.0" y="590" type="curve" smooth="yes"/>
      <point x="311.0" y="706.0"/>
      <point x="479.0" y="728.0"/>
      <point x="604.0" y="586" type="curve"/>
    </contour>
    <contour>
  </contour>
    <contour>
  </contour>
    <contour>
  </contour>
    <contour>
  </contour>
  </outline>
</glyph>
<glyph name="weierstrass" format="2">
  <advance width="591"/>
  <unicode hex="2118"/>
  <outline>
    <contour>
      <point x="269" y="59" type="curve"/>
      <point x="316" y="102" type="line"/>
      <point x="323" y="101" type="line"/>
      <point x="332" y="66"/>
      <point x="352" y="49"/>
      <point x="379" y="49" type="curve" smooth="yes"/>
      <point x="467" y="49"/>
      <point x="490" y="159"/>
      <point x="490" y="251" type="curve" smooth="yes"/>
      <point x="490" y="316"/>
      <point x="468" y="410"/>
      <point x="388" y="410" type="curve" smooth="yes"/>
      <point x="369" y="410"/>
      <point x="359" y="408"/>
      <point x="331" y="397" type="curve" smooth="yes"/>
      <point x="292" y="381"/>
      <point x="229" y="289"/>
      <point x="189" y="227" type="curve"/>
      <point x="219" y="174"/>
      <point x="250" y="115"/>
    </contour>
    <contour>
      <point x="182" y="464" type="curve"/>
      <point x="196" y="454" type="line"/>
      <point x="170" y="421"/>
      <point x="145" y="385"/>
      <point x="145" y="342" type="curve" smooth="yes"/>
      <point x="145" y="315"/>
      <point x="156" y="287"/>
      <point x="167" y="265" type="curve"/>
      <point x="176" y="265" type="line"/>
      <point x="194" y="291" type="line" smooth="yes"/>
      <point x="233" y="353"/>
      <point x="312" y="472"/>
      <point x="430" y="472" type="curve" smooth="yes"/>
      <point x="529" y="472"/>
      <point x="550" y="378"/>
      <point x="550" y="306" type="curve" smooth="yes"/>
      <point x="550" y="214"/>
      <point x="525" y="117"/>
      <point x="459" y="51" type="curve" smooth="yes"/>
      <point x="431" y="23"/>
      <point x="392" y="-6"/>
      <point x="355" y="-6" type="curve" smooth="yes"/>
      <point x="325" y="-6"/>
      <point x="298" y="9"/>
      <point x="278" y="30" type="curve"/>
      <point x="282" y="15"/>
      <point x="284" y="1"/>
      <point x="284" y="-14" type="curve" smooth="yes"/>
      <point x="284" y="-96"/>
      <point x="242" y="-196"/>
      <point x="150" y="-196" type="curve" smooth="yes"/>
      <point x="75" y="-196"/>
      <point x="44" y="-126"/>
      <point x="44" y="-65" type="curve" smooth="yes"/>
      <point x="44" y="11"/>
      <point x="102" y="132"/>
      <point x="130" y="184" type="curve"/>
      <point x="110" y="221"/>
      <point x="89" y="263"/>
      <point x="89" y="306" type="curve" smooth="yes"/>
      <point x="89" y="372"/>
      <point x="131" y="427"/>
    </contour>
    <contour>
      <point x="145" y="144" type="line"/>
      <point x="115" y="92"/>
      <point x="94" y="20"/>
      <point x="94" y="-30" type="curve" smooth="yes"/>
      <point x="94" y="-77"/>
      <point x="110" y="-148"/>
      <point x="166" y="-148" type="curve" smooth="yes"/>
      <point x="224" y="-148"/>
      <point x="243" y="-96"/>
      <point x="243" y="-51" type="curve" smooth="yes"/>
      <point x="243" y="9"/>
      <point x="192" y="84"/>
      <point x="154" y="144" type="curve"/>
    </contour>
  </outline>
</glyph>
<glyph name="Omega" format="2">
  <advance width="905"/>
  <unicode hex="2126"/>
  <outline>
    <contour>
      <point x="853" y="60" type="curve"/>
      <point x="862" y="51" type="line"/>
      <point x="837" y="-2" type="line"/>
      <point x="778" y="3"/>
      <point x="718" y="5"/>
      <point x="659" y="5" type="curve" smooth="yes"/>
      <point x="603" y="5"/>
      <point x="547" y="3"/>
      <point x="491" y="-1" type="curve"/>
      <point x="500" y="57" type="line"/>
      <point x="654" y="93"/>
      <point x="697" y="230"/>
      <point x="697" y="368" type="curve" smooth="yes"/>
      <point x="697" y="505"/>
      <point x="629" y="654"/>
      <point x="462" y="654" type="curve" smooth="yes"/>
      <point x="272" y="654"/>
      <point x="204" y="489"/>
      <point x="204" y="329" type="curve" smooth="yes"/>
      <point x="204" y="211"/>
      <point x="249" y="81"/>
      <point x="393" y="53" type="curve"/>
      <point x="372" y="-2" type="line"/>
      <point x="302" y="4"/>
      <point x="233" y="8"/>
      <point x="164" y="8" type="curve" smooth="yes"/>
      <point x="123" y="8"/>
      <point x="83" y="7"/>
      <point x="43" y="4" type="curve"/>
      <point x="60" y="65" type="line"/>
      <point x="121" y="62"/>
      <point x="197" y="59"/>
      <point x="250" y="54" type="curve"/>
      <point x="256" y="69" type="line"/>
      <point x="146" y="128"/>
      <point x="116" y="225"/>
      <point x="116" y="338" type="curve" smooth="yes"/>
      <point x="116" y="434"/>
      <point x="144" y="527"/>
      <point x="212" y="595" type="curve" smooth="yes"/>
      <point x="283" y="666"/>
      <point x="382" y="689"/>
      <point x="481" y="689" type="curve" smooth="yes"/>
      <point x="718" y="689"/>
      <point x="787" y="538"/>
      <point x="787" y="385" type="curve" smooth="yes"/>
      <point x="787" y="256"/>
      <point x="737" y="118"/>
      <point x="602" y="63" type="curve"/>
      <point x="602" y="51" type="line"/>
      <point x="687" y="55"/>
      <point x="783" y="60"/>
    </contour>
  </outline>
</glyph>
<glyph name="Delta" format="2">
  <advance width="751"/>
  <unicode hex="2206"/>
  <outline>
    <contour>
      <point x="379" y="671" type="line"/>
      <point x="437" y="696" type="line"/>
      <point x="511" y="472"/>
      <point x="597" y="253"/>
      <point x="705" y="44" type="curve"/>
      <point x="704" y="28" type="line"/>
      <point x="643" y="-4" type="line"/>
      <point x="518" y="4"/>
      <point x="394" y="10"/>
      <point x="269" y="10" type="curve" smooth="yes"/>
      <point x="195" y="10"/>
      <point x="121" y="8"/>
      <point x="48" y="3" type="curve"/>
      <point x="46" y="45" type="line"/>
    </contour>
    <contour>
      <point x="578" y="50" type="curve"/>
      <point x="584" y="59" type="line"/>
      <point x="543" y="153"/>
      <point x="383" y="553"/>
      <point x="383" y="554" type="curve"/>
      <point x="372" y="554" type="line"/>
      <point x="277" y="390"/>
      <point x="197" y="233"/>
      <point x="117" y="64" type="curve"/>
      <point x="120" y="52" type="line"/>
      <point x="155" y="53"/>
      <point x="190" y="53"/>
      <point x="225" y="53" type="curve" smooth="yes"/>
      <point x="343" y="53"/>
      <point x="461" y="50"/>
    </contour>
  </outline>
</glyph>
<glyph name="minus" format="2">
  <advance width="892"/>
  <unicode hex="2212"/>
  <outline>
    <contour>
      <point x="772" y="236" type="line"/>
      <point x="114" y="236" type="line"/>
      <point x="121" y="276" type="line"/>
      <point x="778" y="276" type="line"/>
    </contour>
  </outline>
</glyph>
<glyph name="eight.dnom" format="2">
  <advance width="376"/>
  <outline>
    <contour>
      <point x="180" y="200" type="curve"/>
      <point x="134" y="178"/>
      <point x="102" y="153"/>
      <point x="102" y="106" type="curve" smooth="yes"/>
      <point x="102" y="63"/>
      <point x="132" y="19"/>
      <point x="185" y="19" type="curve" smooth="yes"/>
      <point x="239" y="19"/>
      <point x="272" y="52"/>
      <point x="272" y="101" type="curve" smooth="yes"/>
      <point x="272" y="145"/>
      <point x="235" y="169"/>
    </contour>
    <contour>
      <point x="230" y="231" type="line"/>
      <point x="301" y="187"/>
      <point x="331" y="167"/>
      <point x="331" y="118" type="curve" smooth="yes"/>
      <point x="331" y="41"/>
      <point x="248" y="-6"/>
      <point x="167" y="-6" type="curve" smooth="yes"/>
      <point x="135" y="-6"/>
      <point x="97" y="0"/>
      <point x="74" y="21" type="curve" smooth="yes"/>
      <point x="52" y="40"/>
      <point x="46" y="67"/>
      <point x="46" y="94" type="curve" smooth="yes"/>
      <point x="46" y="150"/>
      <point x="83" y="174"/>
      <point x="155" y="211" type="curve"/>
      <point x="155" y="218" type="line"/>
      <point x="117" y="241"/>
      <point x="79" y="275"/>
      <point x="79" y="318" type="curve" smooth="yes"/>
      <point x="79" y="378"/>
      <point x="137" y="405"/>
      <point x="191" y="424" type="curve" smooth="yes"/>
      <point x="193" y="424"/>
      <point x="195" y="424"/>
      <point x="197" y="424" type="curve" smooth="yes"/>
      <point x="265" y="424"/>
      <point x="314" y="391"/>
      <point x="314" y="341" type="curve" smooth="yes"/>
      <point x="314" y="298"/>
      <point x="270" y="260"/>
      <point x="230" y="238" type="curve"/>
    </contour>
    <contour>
      <point x="208" y="247" type="curve"/>
      <point x="237" y="264"/>
      <point x="257" y="294"/>
      <point x="257" y="326" type="curve" smooth="yes"/>
      <point x="257" y="356"/>
      <point x="228" y="395"/>
      <point x="170" y="395" type="curve"/>
      <point x="139" y="377"/>
      <point x="131" y="360"/>
      <point x="131" y="337" type="curve" smooth="yes"/>
      <point x="131" y="302"/>
      <point x="172" y="269"/>
    </contour>
  </outline>
</glyph>
<glyph name="epsilon1" format="2">
  <advance width="420"/>
  <outline>
    <contour>
      <point x="213" y="258" type="curve"/>
      <point x="332" y="258" type="line"/>
      <point x="318" y="216" type="line"/>
      <point x="288" y="217"/>
      <point x="224" y="217"/>
      <point x="177" y="217" type="curve" smooth="yes"/>
      <point x="176" y="217"/>
      <point x="134" y="215"/>
      <point x="108" y="214" type="curve"/>
      <point x="103" y="208" type="line"/>
      <point x="105" y="159"/>
      <point x="123" y="111"/>
      <point x="158" y="76" type="curve" smooth="yes"/>
      <point x="182" y="52"/>
      <point x="227" y="47"/>
      <point x="263" y="47" type="curve" smooth="yes"/>
      <point x="314" y="47"/>
      <point x="365" y="63"/>
      <point x="404" y="96" type="curve"/>
      <point x="412" y="95" type="line"/>
      <point x="424" y="75" type="line"/>
      <point x="368" y="31"/>
      <point x="297" y="-11"/>
      <point x="225" y="-11" type="curve" smooth="yes"/>
      <point x="174" y="-11"/>
      <point x="118" y="1"/>
      <point x="81" y="38" type="curve" smooth="yes"/>
      <point x="38" y="81"/>
      <point x="22" y="143"/>
      <point x="22" y="203" type="curve" smooth="yes"/>
      <point x="22" y="343"/>
      <point x="127" y="471"/>
      <point x="271" y="471" type="curve" smooth="yes"/>
      <point x="323" y="471"/>
      <point x="372" y="449"/>
      <point x="409" y="412" type="curve"/>
      <point x="372" y="359" type="line"/>
      <point x="359" y="357" type="line"/>
      <point x="317" y="416"/>
      <point x="291" y="428"/>
      <point x="238" y="428" type="curve" smooth="yes"/>
      <point x="142" y="428"/>
      <point x="107" y="341"/>
      <point x="105" y="263" type="curve"/>
      <point x="111" y="257" type="line"/>
      <point x="148" y="257"/>
      <point x="212" y="256"/>
    </contour>
  </outline>
</glyph>
<glyph name="f.alt" format="2">
  <advance width="317"/>
  <outline>
    <contour>
      <point x="314" y="669" type="line"/>
      <point x="292" y="669" type="line" smooth="yes"/>
      <point x="229" y="669"/>
      <point x="169" y="632"/>
      <point x="139" y="562" type="curve" smooth="yes"/>
      <point x="123" y="526"/>
      <point x="121" y="475"/>
      <point x="121" y="440" type="curve"/>
      <point x="115" y="434" type="line"/>
      <point x="10" y="434" type="line"/>
      <point x="3" y="428" type="line"/>
      <point x="-1" y="406" type="line"/>
      <point x="4" y="399" type="line"/>
      <point x="116" y="399" type="line"/>
      <point x="122" y="391" type="line"/>
      <point x="122" y="283" type="line" smooth="yes"/>
      <point x="122" y="192"/>
      <point x="116" y="98"/>
      <point x="109" y="-1" type="curve"/>
      <point x="126" y="-12" type="line"/>
      <point x="205" y="12" type="line"/>
      <point x="198" y="93"/>
      <point x="195" y="188"/>
      <point x="195" y="282" type="curve" smooth="yes"/>
      <point x="195" y="393" type="line"/>
      <point x="201" y="399" type="line"/>
      <point x="316" y="399" type="line"/>
      <point x="323" y="405" type="line"/>
      <point x="330" y="427" type="line"/>
      <point x="325" y="434" type="line"/>
      <point x="201" y="434" type="line"/>
      <point x="197" y="440" type="line"/>
      <point x="197" y="506"/>
      <point x="203" y="570"/>
      <point x="225" y="607" type="curve" smooth="yes"/>
      <point x="237" y="627"/>
      <point x="253" y="636"/>
      <point x="275" y="638" type="curve" smooth="yes"/>
      <point x="318" y="642"/>
      <point x="308" y="640"/>
      <point x="314" y="641" type="curve"/>
    </contour>
  </outline>
</glyph>
<glyph name="five.dnom" format="2">
  <advance width="376"/>
  <outline>
    <contour>
      <point x="103" y="356" type="curve" smooth="yes"/>
      <point x="103" y="248" type="line"/>
      <point x="103" y="244" type="line"/>
      <point x="131" y="256"/>
      <point x="162" y="266"/>
      <point x="193" y="266" type="curve" smooth="yes"/>
      <point x="272" y="266"/>
      <point x="322" y="218"/>
      <point x="322" y="151" type="curve" smooth="yes"/>
      <point x="322" y="58"/>
      <point x="236" y="-7"/>
      <point x="139" y="-7" type="curve" smooth="yes"/>
      <point x="96" y="-7"/>
      <point x="56" y="9"/>
      <point x="28" y="38" type="curve"/>
      <point x="27" y="46" type="line"/>
      <point x="56" y="79" type="line"/>
      <point x="64" y="79" type="line"/>
      <point x="78" y="50"/>
      <point x="104" y="16"/>
      <point x="145" y="16" type="curve" smooth="yes"/>
      <point x="221" y="16"/>
      <point x="257" y="72"/>
      <point x="257" y="134" type="curve" smooth="yes"/>
      <point x="257" y="184"/>
      <point x="232" y="237"/>
      <point x="163" y="237" type="curve" smooth="yes"/>
      <point x="133" y="237"/>
      <point x="105" y="224"/>
      <point x="83" y="205" type="curve"/>
      <point x="75" y="212" type="line"/>
      <point x="75" y="408" type="line"/>
      <point x="80" y="412" type="line"/>
      <point x="307" y="412" type="line"/>
      <point x="289" y="365" type="line"/>
      <point x="230" y="364"/>
      <point x="144" y="362"/>
      <point x="112" y="362" type="curve" smooth="yes"/>
      <point x="108" y="362"/>
      <point x="103" y="360"/>
    </contour>
  </outline>
</glyph>
<glyph name="four.dnom" format="2">
  <advance width="376"/>
  <outline>
    <contour>
      <point x="263" y="422" type="line"/>
      <point x="268" y="419" type="line"/>
      <point x="267" y="403"/>
      <point x="268" y="239"/>
      <point x="268" y="146" type="curve"/>
      <point x="272" y="141" type="line"/>
      <point x="336" y="141" type="line"/>
      <point x="339" y="137" type="line"/>
      <point x="328" y="115" type="line"/>
      <point x="272" y="115" type="line"/>
      <point x="268" y="110" type="line"/>
      <point x="268" y="78"/>
      <point x="267" y="30"/>
      <point x="269" y="17" type="curve"/>
      <point x="215" y="-3" type="line"/>
      <point x="212" y="1" type="line"/>
      <point x="216" y="22"/>
      <point x="215" y="71"/>
      <point x="215" y="109" type="curve"/>
      <point x="210" y="115" type="line"/>
      <point x="18" y="115" type="line"/>
      <point x="18" y="141" type="line"/>
      <point x="212" y="401" type="line"/>
    </contour>
    <contour>
      <point x="215" y="146" type="line"/>
      <point x="215" y="351" type="line" smooth="yes"/>
      <point x="215" y="355"/>
      <point x="214" y="356"/>
      <point x="212" y="356" type="curve" smooth="yes"/>
      <point x="211" y="356"/>
      <point x="209" y="356"/>
      <point x="208" y="355" type="curve" smooth="yes"/>
      <point x="185" y="332"/>
      <point x="165" y="304"/>
      <point x="145" y="277" type="curve" smooth="yes"/>
      <point x="119" y="242"/>
      <point x="62" y="158"/>
      <point x="62" y="145" type="curve"/>
      <point x="65" y="141" type="line"/>
      <point x="211" y="141" type="line"/>
    </contour>
  </outline>
</glyph>
<glyph name="nine.dnom" format="2">
  <advance width="376"/>
  <outline>
    <contour>
      <point x="164" y="7" type="curve"/>
      <point x="106" y="-5" type="line"/>
      <point x="99" y="-1" type="line"/>
      <point x="113" y="27"/>
      <point x="146" y="65"/>
      <point x="176" y="100" type="curve" smooth="yes"/>
      <point x="176" y="100"/>
      <point x="234" y="169"/>
      <point x="256" y="202" type="curve"/>
      <point x="251" y="205" type="line"/>
      <point x="219" y="189"/>
      <point x="185" y="179"/>
      <point x="150" y="179" type="curve" smooth="yes"/>
      <point x="104" y="179"/>
      <point x="46" y="221"/>
      <point x="46" y="279" type="curve" smooth="yes"/>
      <point x="46" y="310"/>
      <point x="53" y="337"/>
      <point x="72" y="359" type="curve" smooth="yes"/>
      <point x="91" y="381"/>
      <point x="151" y="408"/>
      <point x="185" y="421" type="curve"/>
      <point x="283" y="421"/>
      <point x="332" y="382"/>
      <point x="332" y="317" type="curve" smooth="yes"/>
      <point x="332" y="267"/>
      <point x="292" y="208"/>
      <point x="256" y="162" type="curve" smooth="yes"/>
      <point x="220" y="115"/>
      <point x="174" y="57"/>
    </contour>
    <contour>
      <point x="257" y="230" type="curve" smooth="yes"/>
      <point x="274" y="245"/>
      <point x="278" y="268"/>
      <point x="278" y="289" type="curve" smooth="yes"/>
      <point x="278" y="340"/>
      <point x="240" y="386"/>
      <point x="167" y="386" type="curve" smooth="yes"/>
      <point x="129" y="386"/>
      <point x="106" y="340"/>
      <point x="106" y="309" type="curve" smooth="yes"/>
      <point x="106" y="262"/>
      <point x="137" y="211"/>
      <point x="194" y="211" type="curve" smooth="yes"/>
      <point x="216" y="211"/>
      <point x="241" y="216"/>
    </contour>
  </outline>
</glyph>
<glyph name="one.dnom" format="2">
  <advance width="376"/>
  <outline>
    <contour>
      <point x="227" y="427" type="line"/>
      <point x="232" y="420" type="line"/>
      <point x="228" y="367"/>
      <point x="227" y="312"/>
      <point x="227" y="259" type="curve" smooth="yes"/>
      <point x="227" y="177"/>
      <point x="227" y="59"/>
      <point x="229" y="13" type="curve"/>
      <point x="172" y="-3" type="line"/>
      <point x="164" y="0" type="line"/>
      <point x="167" y="83"/>
      <point x="169" y="167"/>
      <point x="169" y="251" type="curve" smooth="yes"/>
      <point x="169" y="318"/>
      <point x="179" y="367"/>
      <point x="137" y="367" type="curve" smooth="yes"/>
      <point x="81" y="367" type="line"/>
      <point x="81" y="383" type="line"/>
    </contour>
  </outline>
</glyph>
<glyph name="seven.dnom" format="2">
  <advance width="376"/>
  <outline>
    <contour>
      <point x="353" y="404" type="line"/>
      <point x="249" y="253" type="line" smooth="yes"/>
      <point x="196" y="176"/>
      <point x="152" y="95"/>
      <point x="130" y="7" type="curve"/>
      <point x="74" y="-5" type="line"/>
      <point x="70" y="0" type="line"/>
      <point x="86" y="49"/>
      <point x="144" y="139"/>
      <point x="181" y="194" type="curve" smooth="yes"/>
      <point x="181" y="194"/>
      <point x="247" y="297"/>
      <point x="289" y="356" type="curve"/>
      <point x="284" y="364" type="line"/>
      <point x="56" y="364" type="line"/>
      <point x="52" y="369" type="line"/>
      <point x="66" y="416" type="line"/>
      <point x="79" y="412"/>
      <point x="182" y="412"/>
      <point x="213" y="412" type="curve" smooth="yes"/>
      <point x="353" y="412" type="line"/>
    </contour>
  </outline>
</glyph>
<glyph name="six.dnom" format="2">
  <advance width="376"/>
  <outline>
    <contour>
      <point x="338" y="413" type="curve"/>
      <point x="325" y="380" type="line"/>
      <point x="318" y="378" type="line"/>
      <point x="305" y="383"/>
      <point x="293" y="385"/>
      <point x="279" y="385" type="curve" smooth="yes"/>
      <point x="238" y="385"/>
      <point x="201" y="369"/>
      <point x="173" y="346" type="curve" smooth="yes"/>
      <point x="120" y="302"/>
      <point x="107" y="242"/>
      <point x="106" y="184" type="curve"/>
      <point x="111" y="183" type="line"/>
      <point x="147" y="209"/>
      <point x="189" y="226"/>
      <point x="236" y="226" type="curve" smooth="yes"/>
      <point x="297" y="226"/>
      <point x="338" y="178"/>
      <point x="338" y="127" type="curve" smooth="yes"/>
      <point x="338" y="56"/>
      <point x="260" y="-8"/>
      <point x="179" y="-8" type="curve" smooth="yes"/>
      <point x="83" y="-8"/>
      <point x="49" y="74"/>
      <point x="49" y="143" type="curve" smooth="yes"/>
      <point x="49" y="219"/>
      <point x="80" y="291"/>
      <point x="140" y="346" type="curve" smooth="yes"/>
      <point x="183" y="385"/>
      <point x="240" y="420"/>
      <point x="301" y="420" type="curve" smooth="yes"/>
      <point x="311" y="420"/>
      <point x="328" y="417"/>
    </contour>
    <contour>
      <point x="108" y="159" type="curve"/>
      <point x="108" y="101"/>
      <point x="127" y="19"/>
      <point x="197" y="19" type="curve" smooth="yes"/>
      <point x="253" y="19"/>
      <point x="284" y="56"/>
      <point x="284" y="103" type="curve" smooth="yes"/>
      <point x="284" y="147"/>
      <point x="246" y="188"/>
      <point x="192" y="188" type="curve" smooth="yes"/>
      <point x="164" y="188"/>
      <point x="123" y="172"/>
    </contour>
  </outline>
</glyph>
<glyph name="three.dnom" format="2">
  <advance width="376"/>
  <outline>
    <contour>
      <point x="182" y="229" type="curve"/>
      <point x="182" y="224" type="line"/>
      <point x="265" y="217"/>
      <point x="321" y="191"/>
      <point x="321" y="129" type="curve" smooth="yes"/>
      <point x="321" y="46"/>
      <point x="231" y="-10"/>
      <point x="142" y="-10" type="curve" smooth="yes"/>
      <point x="103" y="-10"/>
      <point x="66" y="2"/>
      <point x="35" y="23" type="curve"/>
      <point x="31" y="29" type="line"/>
      <point x="59" y="73" type="line"/>
      <point x="66" y="73" type="line"/>
      <point x="88" y="41"/>
      <point x="117" y="14"/>
      <point x="158" y="14" type="curve" smooth="yes"/>
      <point x="218" y="14"/>
      <point x="257" y="59"/>
      <point x="257" y="112" type="curve" smooth="yes"/>
      <point x="257" y="138"/>
      <point x="244" y="161"/>
      <point x="224" y="180" type="curve" smooth="yes"/>
      <point x="198" y="205"/>
      <point x="144" y="207"/>
      <point x="103" y="207" type="curve"/>
      <point x="104" y="223" type="line"/>
      <point x="185" y="240"/>
      <point x="233" y="269"/>
      <point x="233" y="324" type="curve" smooth="yes"/>
      <point x="233" y="361"/>
      <point x="201" y="383"/>
      <point x="160" y="383" type="curve" smooth="yes"/>
      <point x="134" y="383"/>
      <point x="103" y="367"/>
      <point x="77" y="352" type="curve"/>
      <point x="67" y="365" type="line"/>
      <point x="102" y="391"/>
      <point x="148" y="421"/>
      <point x="190" y="421" type="curve" smooth="yes"/>
      <point x="243" y="421"/>
      <point x="289" y="394"/>
      <point x="289" y="341" type="curve" smooth="yes"/>
      <point x="289" y="283"/>
      <point x="241" y="244"/>
    </contour>
  </outline>
</glyph>
<glyph name="two.dnom" format="2">
  <advance width="376"/>
  <outline>
    <contour>
      <point x="338" y="48" type="line"/>
      <point x="323" y="1" type="line"/>
      <point x="27" y="1" type="line"/>
      <point x="27" y="11" type="line"/>
      <point x="65" y="46"/>
      <point x="103" y="81"/>
      <point x="139" y="118" type="curve" smooth="yes"/>
      <point x="192" y="173"/>
      <point x="245" y="233"/>
      <point x="245" y="305" type="curve" smooth="yes"/>
      <point x="245" y="338"/>
      <point x="225" y="384"/>
      <point x="169" y="384" type="curve" smooth="yes"/>
      <point x="132" y="384"/>
      <point x="101" y="365"/>
      <point x="75" y="346" type="curve"/>
      <point x="62" y="357" type="line"/>
      <point x="99" y="393"/>
      <point x="149" y="425"/>
      <point x="205" y="425" type="curve" smooth="yes"/>
      <point x="263" y="425"/>
      <point x="307" y="385"/>
      <point x="307" y="332" type="curve" smooth="yes"/>
      <point x="307" y="248"/>
      <point x="200" y="142"/>
      <point x="118" y="59" type="curve" smooth="yes"/>
      <point x="117" y="58"/>
      <point x="117" y="58"/>
      <point x="117" y="57" type="curve" smooth="yes"/>
      <point x="117" y="53"/>
      <point x="122" y="53"/>
      <point x="126" y="53" type="curve" smooth="yes"/>
      <point x="335" y="53" type="line"/>
    </contour>
  </outline>
</glyph>
<glyph name="zero.dnom" format="2">
  <advance width="376"/>
  <outline>
    <contour>
      <point x="214.8" y="422.4" type="curve"/>
      <point x="297.6" y="376.8"/>
      <point x="330.6" y="293.4"/>
      <point x="330.6" y="213.6" type="curve" smooth="yes"/>
      <point x="330.6" y="115.2"/>
      <point x="281.4" y="-8.40039"/>
      <point x="159" y="-8.40039" type="curve" smooth="yes"/>
      <point x="61.7998" y="-8.40039"/>
      <point x="41.4004" y="111"/>
      <point x="41.4004" y="181.8" type="curve" smooth="yes"/>
      <point x="41.4004" y="253.8"/>
      <point x="72" y="326.4"/>
      <point x="129.6" y="377.4" type="curve" smooth="yes"/>
      <point x="152.4" y="397.2"/>
      <point x="186" y="411.6"/>
    </contour>
    <contour>
      <point x="177" y="384" type="curve"/>
      <point x="118.2" y="350.4"/>
      <point x="87" y="283.2"/>
      <point x="87" y="222.6" type="curve" smooth="yes"/>
      <point x="87" y="187.8"/>
      <point x="90" y="151.8"/>
      <point x="101.4" y="119.4" type="curve" smooth="yes"/>
      <point x="115.2" y="78.5996"/>
      <point x="145.2" y="31.2002"/>
      <point x="189.6" y="31.2002" type="curve" smooth="yes"/>
      <point x="271.2" y="31.2002"/>
      <point x="288.6" y="111.6"/>
      <point x="288.6" y="171" type="curve" smooth="yes"/>
      <point x="288.6" y="225"/>
      <point x="271.8" y="276"/>
      <point x="242.4" y="323.4" type="curve" smooth="yes"/>
      <point x="237.6" y="330.6"/>
      <point x="207.6" y="372.6"/>
    </contour>
  </outline>
</glyph>
